<?xml version="1.0" encoding="utf-8"?>
<!-- Generator: Adobe Illustrator 22.0.1, SVG Export Plug-In . SVG Version: 6.00 Build 0)  -->
<svg version="1.1" id="Layer_1" xmlns="http://www.w3.org/2000/svg" xmlns:xlink="http://www.w3.org/1999/xlink" x="0px" y="0px"
	 viewBox="0 0 1366 768" style="enable-background:new 0 0 1366 768;" xml:space="preserve">
<style type="text/css">
	.st0{fill:#61A39B;}
	.st1{fill:#92BA85;}
</style>
<path class="st0" d="M681.1,335c50.7,0,92,59.1,92.4,132H588.7C589.1,394.1,630.4,335,681.1,335"/>
<path class="st1" d="M679.8,335c0.3,7.6,0.3,65.4,0.3,132h-91.8C588.7,394.6,629.5,335.7,679.8,335"/>
<path class="st0" d="M583.8,380.6c32.6,0,59.1,38.7,59.5,86.4h-119C524.7,419.3,551.2,380.6,583.8,380.6"/>
<path class="st1" d="M582.6,380.6c0.2,6.1,0.2,43.4,0.2,86.4H524C524.4,419.7,550.4,381.3,582.6,380.6"/>
</svg>
