<?xml version="1.0" encoding="utf-8"?>
<!-- Generator: Adobe Illustrator 22.0.1, SVG Export Plug-In . SVG Version: 6.00 Build 0)  -->
<svg version="1.1" id="Layer_1" xmlns="http://www.w3.org/2000/svg" xmlns:xlink="http://www.w3.org/1999/xlink" x="0px" y="0px"
	 viewBox="0 0 1366 768" style="enable-background:new 0 0 1366 768;" xml:space="preserve">
<style type="text/css">
	.st0{fill:#B6DADD;}
	.st1{fill:#C5EFF7;}
</style>
<path class="st0" d="M376.3,349.5c-18.8,0-36.6,5.9-51.5,17.1c-14.4,10.8-25.2,26.2-30.2,43.3v0.1h-0.1c-28,3.9-49.1,27.9-49.1,55.7
	c0,15,6,29.1,16.8,39.7c10.8,10.7,25.2,16.6,40.4,16.6H467c1.5,0,2.9-0.1,4.4-0.1c1.4,0.1,2.7,0.1,3.8,0.1h74.6
	c24.9,0,45.1-19.9,45.1-44.4c0-24.5-20.2-44.4-45.1-44.4H538h-0.1v-0.1c-2.9-25.9-25.2-45.5-51.6-45.5c-11.8,0-23,3.8-32.2,11
	l-0.1,0.1l-0.1-0.2c-6.7-14.4-17.4-26.7-30.8-35.4C409,354.2,392.9,349.5,376.3,349.5"/>
<path class="st1" d="M635.8,317.1c-25.2,0-49,9.8-66.8,27.7c-17.9,17.9-27.7,41.5-27.7,66.7v0.1h-0.1l-0.2,0.1h-0.1h-0.1h-0.1
	c-5.8-2.7-12-4.1-18.5-4.1c-11.8,0-22.9,4.5-31.2,12.8c-8.4,8.2-13.1,19.3-13.3,31v0.1h-0.1h-0.7c-23,0-41.7,18.7-41.7,41.8
	c0,23,18.7,41.7,41.7,41.7h76.8h68.6h103.1c16.6,0,32.3-6.5,44.1-18.3c11.8-11.8,18.3-27.5,18.3-44.1c0-15.7-6-30.8-16.7-42.3
	c-10.7-11.6-25.2-18.6-40.6-19.8h-0.1v-0.1c-0.3-25-10.3-48.5-28.1-66.1C684.4,326.7,660.8,317.1,635.8,317.1"/>
<path class="st0" d="M788.5,341.5c17.5,0,34,5.6,47.9,16.1c13.4,10.2,23.5,24.6,28.3,40.7l0.6,1.9l1.2-1.6
	c7.2-9.6,18.1-15.1,30.1-15.1c20.7,0,37.5,16.8,37.5,37.5c0,0.1,0,0.2,0,0.3c0,0.1,0,0.2,0,0.3v1h1c23.7,0.5,43,20.2,43,44
	c0,24.3-19.7,44-44,44H710c-24.3,0-44-19.7-44-44c0-11.4,4.4-22.2,12.3-30.4c7.9-8.2,18.5-13,29.8-13.5h1v-1c0-0.1,0-0.2,0-0.3
	c0-0.1,0-0.2,0-0.3C709,377.2,744.7,341.5,788.5,341.5"/>
</svg>
