<?xml version="1.0" encoding="utf-8"?>
<!-- Generator: Adobe Illustrator 22.0.1, SVG Export Plug-In . SVG Version: 6.00 Build 0)  -->
<svg version="1.1" id="Layer_1" xmlns="http://www.w3.org/2000/svg" xmlns:xlink="http://www.w3.org/1999/xlink" x="0px" y="0px"
	 viewBox="0 0 1366 768" style="enable-background:new 0 0 1366 768;" xml:space="preserve">
<style type="text/css">
	.st0{fill:#C5EFF7;}
</style>
<path class="st0" d="M569,272.5c18.8,0,36.6,5.9,51.5,17.1c14.4,10.8,25.2,26.2,30.2,43.3v0.1h0.1c28,3.9,49.1,27.9,49.1,55.7
	c0,15-6,29.1-16.8,39.7C672.3,439.1,658,445,642.8,445H478.3c-1.5,0-2.9-0.1-4.4-0.1c-1.4,0.1-2.7,0.1-3.8,0.1h-74.6
	c-24.9,0-45.1-19.9-45.1-44.4c0-24.5,20.2-44.4,45.1-44.4h11.8h0.1v-0.1c2.9-25.9,25.2-45.5,51.6-45.5c11.8,0,23,3.8,32.2,11
	l0.1,0.1l0.1-0.2c6.7-14.4,17.4-26.7,30.8-35.4C536.2,277.2,552.4,272.5,569,272.5"/>
</svg>
