<?xml version="1.0" encoding="utf-8"?>
<!-- Generator: Adobe Illustrator 22.0.1, SVG Export Plug-In . SVG Version: 6.00 Build 0)  -->
<svg version="1.1" id="Layer_1" xmlns="http://www.w3.org/2000/svg" xmlns:xlink="http://www.w3.org/1999/xlink" x="0px" y="0px"
	 viewBox="0 0 1366 768" style="enable-background:new 0 0 1366 768;" xml:space="preserve">
<style type="text/css">
	.st0{fill:none;stroke:#4D4D4D;stroke-width:7;stroke-miterlimit:10;}
	.st1{fill:#92BA85;}
	.st2{fill:#FFFFFF;}
	.st3{fill:#A5A5A5;}
</style>
<path class="st0" d="M683.9,411.5L683.9,411.5c-11,0-20-9-20-20v-32.3c0-11,9-20,20-20l0,0c11,0,20,9,20,20v32.3
	C703.9,402.5,694.9,411.5,683.9,411.5z"/>
<polygon class="st1" points="739.5,241 583,241 583,534 784.6,534 784.6,286.1 739.5,241 "/>
<polygon class="st2" points="737.6,288 737.6,246 779.6,288 "/>
<path class="st3" d="M704.9,446.9h-42.2c-17.9,0-32.7-14.7-32.7-32.7v-42.4c0-17.9,14.7-32.7,32.7-32.7h42.2
	c17.9,0,32.7,14.7,32.7,32.7v42.2C737.6,432.2,722.8,446.9,704.9,446.9z"/>
<path class="st2" d="M699.9,384.9c0-8.8-7.1-16-16-16s-16,7.1-16,16c0,6.6,3.9,12.1,9.4,14.6v19.7h13v-19.7
	C696,397,699.9,391.4,699.9,384.9z"/>
</svg>
