<?xml version="1.0" encoding="utf-8"?>
<!-- Generator: Adobe Illustrator 22.0.1, SVG Export Plug-In . SVG Version: 6.00 Build 0)  -->
<svg version="1.1" id="Layer_1" xmlns="http://www.w3.org/2000/svg" xmlns:xlink="http://www.w3.org/1999/xlink" x="0px" y="0px"
	 viewBox="0 0 1366 768" style="enable-background:new 0 0 1366 768;" xml:space="preserve">
<style type="text/css">
	.st0{enable-background:new    ;}
	.st1{fill:#013A3E;}
</style>
<g class="st0">
	<path class="st1" d="M399.9,400.3c-7.9,9.1-16.8,16.5-26.6,22c-9.8,5.5-19.6,8.3-29.5,8.3c-10.8,0-21.4-3.2-31.6-9.5
		s-18.5-16.1-24.9-29.2c-6.4-13.2-9.6-27.6-9.6-43.3c0-19.4,5-38.7,14.9-58.2c9.9-19.4,22.3-34,37-43.7s29-14.6,42.9-14.6
		c10.6,0,20.7,2.8,30.3,8.3c9.6,5.5,17.9,14,24.8,25.3l6.2-28.3h32.7L440.2,360c-3.7,17-5.5,26.5-5.5,28.3c0,3.3,1.2,6.1,3.7,8.5
		s5.5,3.6,9,3.6c6.5,0,14.9-3.7,25.4-11.1c13.9-9.7,24.9-22.8,33-39.2c8.1-16.4,12.1-33.3,12.1-50.7c0-20.3-5.2-39.3-15.6-57
		s-25.9-31.8-46.6-42.4c-20.6-10.6-43.4-15.9-68.4-15.9c-28.5,0-54.5,6.7-78.1,20s-41.8,32.5-54.8,57.3
		c-13,24.9-19.5,51.6-19.5,80.1c0,29.8,6.5,55.5,19.5,77.1c13,21.6,31.7,37.5,56.3,47.8c24.5,10.3,51.7,15.4,81.5,15.4
		c31.9,0,58.6-5.4,80.2-16.1s37.7-23.7,48.4-39.1H554c-6.2,12.8-16.9,25.8-32,39.1c-15,13.3-33,23.8-53.8,31.5s-45.9,11.6-75.2,11.6
		c-27,0-52-3.5-74.8-10.4s-42.3-17.4-58.4-31.3s-28.2-30-36.3-48.1c-10.2-23-15.3-47.9-15.3-74.5c0-29.7,6.1-58,18.3-84.9
		c14.9-33,35.9-58.3,63.3-75.8c27.3-17.5,60.5-26.3,99.4-26.3c30.2,0,57.3,6.2,81.4,18.5c24,12.4,43,30.8,56.9,55.2
		c11.8,21.1,17.7,44,17.7,68.7c0,35.3-12.4,66.7-37.3,94.1c-22.2,24.6-46.4,36.9-72.7,36.9c-8.4,0-15.2-1.3-20.4-3.8
		c-5.2-2.6-9-6.2-11.4-11C401.8,413,400.6,407.8,399.9,400.3z M311.5,350.8c0,16.7,4,29.7,11.9,38.9c7.9,9.3,17,13.9,27.2,13.9
		c6.8,0,14-2,21.6-6.1c7.5-4.1,14.8-10.1,21.6-18.2c6.9-8,12.5-18.2,16.9-30.6s6.6-24.7,6.6-37.2c0-16.6-4.1-29.4-12.3-38.5
		s-18.2-13.7-30-13.7c-7.8,0-15.1,2-22,5.9c-6.9,4-13.5,10.3-20,19.1c-6.5,8.8-11.6,19.4-15.5,32
		C313.4,328.9,311.5,340.4,311.5,350.8z"/>
</g>
</svg>
