<?xml version="1.0" encoding="utf-8"?>
<!-- Generator: Adobe Illustrator 22.0.1, SVG Export Plug-In . SVG Version: 6.00 Build 0)  -->
<svg version="1.1" id="Layer_1" xmlns="http://www.w3.org/2000/svg" xmlns:xlink="http://www.w3.org/1999/xlink" x="0px" y="0px"
	 viewBox="0 0 1366 768" style="enable-background:new 0 0 1366 768;" xml:space="preserve">
<style type="text/css">
	.st0{fill:#DBD4D1;}
	.st1{fill:#E74C3C;}
	.st2{fill:#E67E22;}
	.st3{fill:#F1C40F;}
	.st4{fill:#1ABC9C;}
	.st5{fill:#4BAAE0;}
	.st6{fill:#2980B9;}
	.st7{fill:#9B59B6;}
	.st8{fill:#FFFFFF;}
</style>
<g>
	<path class="st0" d="M395.7,304.7c4.4,0,8,3.6,8,8v282c0,4.4-3.6,8-8,8s-8-3.6-8-8v-282C387.7,308.3,391.3,304.7,395.7,304.7"/>
</g>
<g>
	<rect x="770" y="241.3" class="st1" width="114.9" height="14.1"/>
</g>
<g>
	<rect x="770" y="255.4" class="st2" width="114.9" height="14.1"/>
</g>
<g>
	<rect x="770" y="269.4" class="st3" width="114.9" height="14.1"/>
</g>
<g>
	<rect x="770" y="283.5" class="st4" width="114.9" height="14.1"/>
</g>
<g>
	<rect x="770" y="297.6" class="st5" width="114.9" height="14.1"/>
</g>
<g>
	<rect x="770" y="311.6" class="st6" width="114.9" height="14.1"/>
</g>
<g>
	<rect x="770" y="325.7" class="st7" width="114.9" height="14.1"/>
</g>
<polygon class="st8" points="885.6,241 885.6,340 837.4,290.5 "/>
<g>
	<rect x="387.7" y="286" class="st1" width="191.3" height="28.9"/>
	<rect x="387.7" y="314.9" class="st2" width="191.3" height="28.9"/>
	<rect x="387.7" y="343.8" class="st3" width="191.3" height="28.9"/>
	<rect x="387.7" y="372.7" class="st5" width="191.3" height="28.9"/>
	<rect x="387.7" y="401.6" class="st7" width="191.3" height="28.9"/>
	<polygon class="st8" points="580,285.9 580,429.2 510.2,357.6 	"/>
</g>
</svg>
