<?xml version="1.0" encoding="utf-8"?>
<!-- Generator: Adobe Illustrator 22.0.1, SVG Export Plug-In . SVG Version: 6.00 Build 0)  -->
<svg version="1.1" id="Layer_1" xmlns="http://www.w3.org/2000/svg" xmlns:xlink="http://www.w3.org/1999/xlink" x="0px" y="0px"
	 viewBox="0 0 1366 768" style="enable-background:new 0 0 1366 768;" xml:space="preserve">
<style type="text/css">
	.st0{fill:url(#SVGID_1_);}
	.st1{fill:url(#SVGID_2_);}
	.st2{fill:url(#SVGID_3_);}
	.st3{fill:#472220;}
	.st4{fill:#06223F;}
</style>
<g>
	<path d="M727.2,552.2c2.1,9.6,12.6,57.9,10.4,77.4c-0.8,6.9-3.3,12-7,14.6c-3.8,2.5-8.5,2.2-13.4-1.1c-10-6.7-16.3-22.6-14.8-37.1
		C704.3,586.4,723.4,557.8,727.2,552.2"/>
	<path d="M688.6,553.3c2.1,9.6,12.6,57.9,10.4,77.4c-0.8,6.9-3.3,12-7,14.6c-3.8,2.5-8.5,2.2-13.4-1.1c-10-6.7-16.3-22.6-14.8-37.1
		C665.8,587.5,684.8,558.9,688.6,553.3"/>
</g>
<linearGradient id="SVGID_1_" gradientUnits="userSpaceOnUse" x1="629.0401" y1="500.0076" x2="768.0089" y2="500.0076">
	<stop  offset="0" style="stop-color:#50A2B1"/>
	<stop  offset="1" style="stop-color:#00486A"/>
</linearGradient>
<path class="st0" d="M636.2,532.9c2.5-12.8-1.5-43.9,4.5-74c2.2-11.1,20.7-42.3,20.7-42.3l20.7-42.3c0,0,9.3,14.8,25.6,30.1
	c9,8.4,25,20.5,35.6,47.1c5,12.7,5.5,63,10.1,75.8c3.8,10.3,11.1,35.7,11.1,35.7l0.3,0.5h-0.1h-0.1h-0.1h0.1c2,3.6,3.1,7.4,3.1,11.3
	c0,3.9,3.2,32.2-11,41.8c-10,5.3-27.4,6.4-41.3,7.3c-13.9,0.9-21.6,2.7-34.8,1.3c-13.3-1.5-19.7,1.1-30.8-2.4
	c-8-2.5-18.2-12.5-19.3-25C626.2,550.1,632.4,552.8,636.2,532.9z"/>
<linearGradient id="SVGID_2_" gradientUnits="userSpaceOnUse" x1="665.9607" y1="373.7494" x2="700.1392" y2="373.7494">
	<stop  offset="1.801692e-03" style="stop-color:#7F5C00"/>
	<stop  offset="1" style="stop-color:#6A4A00"/>
</linearGradient>
<path class="st1" d="M678.1,406.8l15.9-1.5c3.8-0.3,6.5-3.6,6.1-7.4l-4.7-51.1c-0.3-3.8-3.6-6.5-7.4-6.1l-15.9,1.5
	c-3.8,0.3-6.5,3.6-6.1,7.4l4.7,51.1C671,404.4,674.3,407.2,678.1,406.8z"/>
<linearGradient id="SVGID_3_" gradientUnits="userSpaceOnUse" x1="610.9" y1="305" x2="749.5" y2="305">
	<stop  offset="0" style="stop-color:#945F00"/>
	<stop  offset="0.2398" style="stop-color:#8B5900"/>
	<stop  offset="0.6369" style="stop-color:#714800"/>
	<stop  offset="0.9944" style="stop-color:#553600"/>
</linearGradient>
<circle class="st2" cx="680.2" cy="305" r="69.3"/>
<path class="st3" d="M681.6,218.4c16.9,2.6,32.7,10.8,55.9,22.5c52.2,36.3,22.6,91.9-52.7,63.5c-40.3,8.9-78.2-8-75.2-26.9
	c3-19,12.5-35.1,25.6-45.8C648.2,221.1,664.6,215.8,681.6,218.4z"/>
<path class="st4" d="M764.7,563.4L764.7,563.4L764.7,563.4L764.7,563.4L764.7,563.4h0.2l-0.3-0.5c0,0-1.6-5.4-3.6-12.2l-131,7
	c-1.1,7.7-1.2,18.9,0.7,39.9c1.1,12.5,11.4,22.5,19.3,25c11.1,3.5,17.5,0.9,30.8,2.4c13.2,1.5,20.9-0.3,34.8-1.3
	c13.9-0.9,31.3-1.9,41.3-7.3c14.2-9.7,11-38,11-41.8C767.7,570.8,766.7,567.1,764.7,563.4z"/>
</svg>
