<?xml version="1.0" encoding="utf-8"?>
<!-- Generator: Adobe Illustrator 22.0.1, SVG Export Plug-In . SVG Version: 6.00 Build 0)  -->
<svg version="1.1" id="Layer_1" xmlns="http://www.w3.org/2000/svg" xmlns:xlink="http://www.w3.org/1999/xlink" x="0px" y="0px"
	 viewBox="0 0 1366 768" style="enable-background:new 0 0 1366 768;" xml:space="preserve">
<style type="text/css">
	.st0{fill:url(#SVGID_1_);}
	.st1{fill:url(#SVGID_2_);}
	.st2{fill:url(#SVGID_3_);}
	.st3{fill:#9B4D45;}
	.st4{fill:#06223F;}
</style>
<g>
	<path d="M716.5,521.6c1.9,8.7,11.4,52.5,9.5,70.1c-0.7,6.3-3,10.9-6.3,13.2c-3.4,2.3-7.7,2-12.2-1c-9-6-14.8-20.4-13.4-33.6
		C695.8,552.5,713,526.6,716.5,521.6"/>
	<path d="M681.6,522.6c1.9,8.7,11.4,52.5,9.5,70.1c-0.7,6.3-3,10.9-6.3,13.2c-3.4,2.3-7.7,2-12.2-1c-9-6-14.8-20.4-13.4-33.6
		C660.9,553.5,678.1,527.6,681.6,522.6"/>
</g>
<linearGradient id="SVGID_1_" gradientUnits="userSpaceOnUse" x1="630.3732" y1="474.3175" x2="756.2791" y2="474.3175">
	<stop  offset="0" style="stop-color:#AE509B"/>
	<stop  offset="1" style="stop-color:#28002B"/>
</linearGradient>
<path class="st0" d="M636.9,504.1c2.3-11.6-1.3-39.7,4.1-67c2-10.1,18.7-38.3,18.7-38.3l18.7-38.3c0,0,8.4,13.4,23.2,27.3
	c8.1,7.6,22.6,18.5,32.2,42.6c4.5,11.5,4.9,57,9.2,68.7c3.4,9.4,10.1,32.3,10.1,32.3l0.3,0.4h-0.1h-0.1h-0.1h0.1
	c1.9,3.3,2.8,6.7,2.8,10.2s2.9,29.1-10,37.9c-9.1,4.8-24.8,5.8-37.4,6.6c-12.6,0.8-19.6,2.5-31.5,1.1c-12-1.3-17.8,1-27.9-2.2
	c-7.2-2.3-16.5-11.3-17.5-22.6C627.8,519.8,633.4,522.2,636.9,504.1z"/>
<linearGradient id="SVGID_2_" gradientUnits="userSpaceOnUse" x1="662.4881" y1="360.05" x2="693.437" y2="360.05">
	<stop  offset="0" style="stop-color:#FFCFA5"/>
	<stop  offset="1" style="stop-color:#FFA418"/>
</linearGradient>
<path class="st1" d="M673.5,390l14.4-1.3c3.4-0.3,5.9-3.3,5.6-6.7l-4.2-46.3c-0.3-3.4-3.3-5.9-6.7-5.6l-14.4,1.3
	c-3.4,0.3-5.9,3.3-5.6,6.7l4.2,46.3C667.1,387.8,670.1,390.3,673.5,390z"/>
<linearGradient id="SVGID_3_" gradientUnits="userSpaceOnUse" x1="617.4773" y1="297.8" x2="743.0773" y2="297.8">
	<stop  offset="0" style="stop-color:#FFCFA5"/>
	<stop  offset="1" style="stop-color:#FFA418"/>
</linearGradient>
<circle class="st2" cx="673.6" cy="297.8" r="62.8"/>
<path class="st3" d="M695.4,199.2c-6.5,0.7-28.8-8.1-37-4.7c-8.1,3.4-2.3,19-10,24.5c-7.8,5.4-35.1-6.7-40.5,0s11.3,32.2,10.4,39.5
	c-1.1,10.4,6.8,19,19.4,25.5c12.6,6.5,29.7,10.8,46.8,12.5c17.2,1.6,34.3,0.7,46.8-3.3c12.6-4,9.8-14.4,8.6-25.1s24.4-21,21-30
	s-25-13.4-30-20c-5-6.5-0.8-31.3-6.9-34.6C718.3,180.2,701.9,198.4,695.4,199.2z"/>
<path class="st4" d="M753.4,531.7L753.4,531.7L753.4,531.7L753.4,531.7L753.4,531.7h0.2l-0.3-0.4c0,0-1.4-4.9-3.3-11l-118.2,6.3
	c-1,6.9-1.1,17,0.6,36c1,11.3,10.2,20.3,17.4,22.5c10,3.2,15.8,0.8,27.8,2.2c11.9,1.3,18.9-0.3,31.4-1.1s28.2-1.7,37.2-6.6
	c12.8-8.7,9.9-34.2,9.9-37.7C756.2,538.3,755.2,535,753.4,531.7z"/>
</svg>
