<?xml version="1.0" encoding="utf-8"?>
<!-- Generator: Adobe Illustrator 22.0.1, SVG Export Plug-In . SVG Version: 6.00 Build 0)  -->
<svg version="1.1" id="Layer_1" xmlns="http://www.w3.org/2000/svg" xmlns:xlink="http://www.w3.org/1999/xlink" x="0px" y="0px"
	 viewBox="0 0 1366 768" style="enable-background:new 0 0 1366 768;" xml:space="preserve">
<style type="text/css">
	.st0{fill:url(#SVGID_1_);}
	.st1{fill:url(#SVGID_2_);}
	.st2{fill:url(#SVGID_3_);}
	.st3{fill:#9B4D45;}
	.st4{fill:url(#SVGID_4_);}
	.st5{fill:url(#SVGID_5_);}
	.st6{fill:url(#SVGID_6_);}
	.st7{fill:url(#SVGID_7_);}
	.st8{fill:url(#SVGID_8_);}
	.st9{fill:url(#SVGID_9_);}
	.st10{fill:#472220;}
</style>
<g>
	<path d="M476.9,466c2.2,10.1,13.2,60.7,10.9,81.1c-0.8,7.2-3.4,12.6-7.3,15.3c-4,2.7-8.9,2.3-14.1-1.2c-10.4-7-17.1-23.6-15.6-38.9
		C452.9,501.8,472.8,471.8,476.9,466"/>
	<path d="M436.4,467.2c2.2,10.1,13.2,60.7,10.9,81.1c-0.8,7.2-3.4,12.6-7.3,15.3c-4,2.7-8.9,2.3-14.1-1.2
		c-10.4-7-17.1-23.6-15.6-38.9C412.5,503,432.4,473,436.4,467.2"/>
</g>
<linearGradient id="SVGID_1_" gradientUnits="userSpaceOnUse" x1="370.2871" y1="426.9631" x2="533.0586" y2="426.9631">
	<stop  offset="0" style="stop-color:#3FB6FF"/>
	<stop  offset="1" style="stop-color:#013A3E"/>
</linearGradient>
<path class="st0" d="M371,488.8h-0.2l0.7-2c0.4-1.3,1-2.6,1.4-3.9L435.3,316l92,152.5c1,1.3,1.8,2.7,2.5,4.2l1.1,1.8h-0.2
	c6.2,14.4,0,30.8-19.1,44.1c-30.2,21.1-81.8,25.5-114.9,9.9C376.2,518.7,367.5,503.8,371,488.8z"/>
<linearGradient id="SVGID_2_" gradientUnits="userSpaceOnUse" x1="417.5044" y1="319.7397" x2="453.2782" y2="319.7397">
	<stop  offset="0" style="stop-color:#FFCFA5"/>
	<stop  offset="1" style="stop-color:#FFA418"/>
</linearGradient>
<path class="st1" d="M430.1,354.3l16.7-1.5c3.9-0.4,6.8-3.8,6.4-7.7l-4.9-53.6c-0.4-3.9-3.8-6.8-7.7-6.4l-16.7,1.5
	c-3.9,0.4-6.8,3.8-6.4,7.7l4.9,53.6C422.8,351.8,426.2,354.6,430.1,354.3z"/>
<linearGradient id="SVGID_3_" gradientUnits="userSpaceOnUse" x1="366.4547" y1="247.6472" x2="511.6546" y2="247.6472">
	<stop  offset="0" style="stop-color:#FFCFA5"/>
	<stop  offset="1" style="stop-color:#FFA418"/>
</linearGradient>
<circle class="st2" cx="431.3" cy="247.6" r="72.6"/>
<path class="st3" d="M501.5,210.6c20.7,36.8,39.5,119.1,17.1,143.6c-31.8,34.9-170-144.9-129-168.1
	C430.9,162.9,480.9,173.9,501.5,210.6z"/>
<g>
	<path d="M1002.5,468.2c2.2,10.2,13.3,61.5,11.1,82.1c-0.8,7.3-3.5,12.7-7.4,15.5c-4,2.7-9.1,2.3-14.2-1.2
		c-10.6-7.1-17.3-24-15.8-39.4C978.2,504.5,998.4,474.1,1002.5,468.2"/>
	<path d="M961.6,469.4c2.2,10.2,13.3,61.5,11.1,82.1c-0.8,7.3-3.5,12.7-7.4,15.5c-4,2.7-9.1,2.3-14.2-1.2
		c-10.6-7.1-17.3-24-15.8-39.4C937.3,505.7,957.5,475.3,961.6,469.4"/>
</g>
<linearGradient id="SVGID_4_" gradientUnits="userSpaceOnUse" x1="891.6783" y1="432.1194" x2="1054.2196" y2="432.1194">
	<stop  offset="0" style="stop-color:#FFF64E"/>
	<stop  offset="1" style="stop-color:#28FFFF"/>
</linearGradient>
<path class="st4" d="M892.4,495h-0.2l0.7-2.1c0.4-1.3,1-2.7,1.4-4l62.3-169.1l91.9,154.5c1,1.3,1.8,2.8,2.5,4.2l1.1,1.8h-0.2
	c6.2,14.6,0,31.2-19,44.6c-30.2,21.3-81.7,25.8-114.7,10C897.6,525.2,889,510.2,892.4,495z"/>
<linearGradient id="SVGID_5_" gradientUnits="userSpaceOnUse" x1="938.7905" y1="323.6414" x2="974.5059" y2="323.6414">
	<stop  offset="0" style="stop-color:#945300"/>
	<stop  offset="1" style="stop-color:#945300"/>
</linearGradient>
<path class="st5" d="M951.5,358.7l16.6-1.6c3.9-0.4,6.8-3.9,6.4-7.8l-4.9-54.3c-0.4-4-3.8-6.9-7.7-6.5l-16.6,1.6
	c-3.9,0.4-6.8,3.9-6.4,7.8l4.9,54.3C944.1,356.1,947.5,359,951.5,358.7z"/>
<linearGradient id="SVGID_6_" gradientUnits="userSpaceOnUse" x1="887.8597" y1="250.6492" x2="1032.8596" y2="250.6492">
	<stop  offset="0" style="stop-color:#945300"/>
	<stop  offset="1" style="stop-color:#947000"/>
</linearGradient>
<path class="st6" d="M880.2,250.6c0,40.6,32.4,73.6,72.5,73.6s72.5-32.9,72.5-73.6S992.8,177,952.7,177S880.2,210,880.2,250.6"/>
<path d="M1018.5,208.1c26,18.9,12.8,22.1,19.4,37c23.3,32.6,11.9,44.7,16.2,60.3c4.3,15.6,45.2,25.3,26.1,61.5
	c-13.1,27.7-45.5,15-54.7,15.7c-11.8,0.8-10.7,32.6-45.2,16.9c-21.5-5.9-30.9-63.9-27.3-114.6c-20.8-14.7-34.5-18.1-27.3-56.7
	c-6.8-17.6-39.2-8.4-20.3-36.4c13.2-14.2,20.3-11.1,30.9-13.6c12-9,21.4-3,31.6-1.4c18.4-2.8,20,4.8,28.6,10.1
	C1011.3,187.3,1012.7,199.2,1018.5,208.1z"/>
<g>
	<path d="M748.2,496.1c2.3,10.6,13.8,63.8,11.5,85.2c-0.8,7.6-3.6,13.2-7.7,16.1c-4.2,2.8-9.4,2.4-14.8-1.2
		c-11-7.3-18-24.8-16.3-40.9C723.1,533.7,744,502.2,748.2,496.1"/>
	<path d="M705.8,497.4c2.3,10.6,13.8,63.8,11.5,85.2c-0.8,7.6-3.6,13.2-7.7,16.1c-4.2,2.8-9.4,2.4-14.8-1.2
		c-11-7.3-18-24.8-16.3-40.9C680.6,535,701.5,503.5,705.8,497.4"/>
</g>
<linearGradient id="SVGID_7_" gradientUnits="userSpaceOnUse" x1="631.8867" y1="461.3337" x2="802.6829" y2="461.3337">
	<stop  offset="0" style="stop-color:#FF45A5"/>
	<stop  offset="1" style="stop-color:#FF5F2A"/>
</linearGradient>
<path class="st7" d="M632.7,526.4h-0.3l0.8-2.1c0.4-1.4,1-2.8,1.5-4.1l65.5-175.3L796.9,505c1,1.4,1.9,2.9,2.6,4.4l1.1,1.9h-0.3
	c6.5,15.1,0,32.4-20,46.3c-31.8,22.1-85.9,26.8-120.7,10.4C638.2,557.8,629.1,542.1,632.7,526.4z"/>
<linearGradient id="SVGID_8_" gradientUnits="userSpaceOnUse" x1="681.4407" y1="348.689" x2="718.9821" y2="348.689">
	<stop  offset="0" style="stop-color:#FFCFA5"/>
	<stop  offset="1" style="stop-color:#FFA418"/>
</linearGradient>
<path class="st8" d="M694.8,385.1l17.5-1.6c4.1-0.4,7.1-4,6.8-8.1l-5.1-56.3c-0.4-4.1-4-7.1-8.1-6.8l-17.5,1.6
	c-4.1,0.4-7.1,4-6.8,8.1l5.1,56.3C687.1,382.4,690.7,385.4,694.8,385.1z"/>
<linearGradient id="SVGID_9_" gradientUnits="userSpaceOnUse" x1="627.8538" y1="272.989" x2="780.4538" y2="272.989">
	<stop  offset="0" style="stop-color:#FFCFA5"/>
	<stop  offset="1" style="stop-color:#FFA418"/>
</linearGradient>
<circle class="st9" cx="696.1" cy="273" r="76.3"/>
<path class="st10" d="M769.7,234.1c10.9,19.3,25,56.9,31.6,89.8s5.8,60.9-13.6,60.9c-24.8,0-98.9,16.6-102.5-78.8
	c-41.3-33.8-54.4-85.7-32.9-97.8s45.5-15.4,66.8-10.6C740.3,202.4,759,214.9,769.7,234.1z"/>
</svg>
