<?xml version="1.0" encoding="utf-8"?>
<!-- Generator: Adobe Illustrator 22.0.1, SVG Export Plug-In . SVG Version: 6.00 Build 0)  -->
<svg version="1.1" id="Layer_1" xmlns="http://www.w3.org/2000/svg" xmlns:xlink="http://www.w3.org/1999/xlink" x="0px" y="0px"
	 viewBox="0 0 1366 768" style="enable-background:new 0 0 1366 768;" xml:space="preserve">
<style type="text/css">
	.st0{fill:#D74810;}
	.st1{fill:#F46060;}
</style>
<g>
	<path class="st0" d="M249.4,165c-45.8,10.3-73.7,55.3-63.6,100.4c20.7,92.2,119,95.3,202.2,172c40-103.6,130-153.2,110.1-242.1
		c-10.1-45.1-55.3-73.7-100.4-63.6c-32.8,7.4-57.2,32.9-63.9,63.9C314.5,170.5,282.2,157.7,249.4,165z"/>
</g>
<g>
	<path class="st1" d="M486.5,149.3c-46.5-6-88.2,26.8-94,72.6c-12,93.8,79.3,130.2,131.3,230.8c72.9-83.8,174.5-99.7,186.1-190
		c5.9-45.8-26.8-88.2-72.6-94c-33.3-4.3-65,11.4-81.9,38.2C545.8,176.7,519.8,153.6,486.5,149.3z"/>
</g>
</svg>
