<?xml version="1.0" encoding="utf-8"?>
<!-- Generator: Adobe Illustrator 22.0.1, SVG Export Plug-In . SVG Version: 6.00 Build 0)  -->
<svg version="1.1" id="Layer_1" xmlns="http://www.w3.org/2000/svg" xmlns:xlink="http://www.w3.org/1999/xlink" x="0px" y="0px"
	 viewBox="0 0 1366 768" style="enable-background:new 0 0 1366 768;" xml:space="preserve">
<style type="text/css">
	.st0{fill:#D74810;}
	.st1{fill:#FFB117;}
</style>
<path class="st0" d="M283,637.8c-3.1,0-5.7-2.5-5.7-5.7V156c0-3.1,2.5-5.7,5.7-5.7c3.1,0,5.7,2.5,5.7,5.7V632
	C288.6,635.2,286.1,637.8,283,637.8z"/>
<path class="st0" d="M283,150.5c3,0,5.5,2.4,5.5,5.5V632c0,3-2.4,5.5-5.5,5.5s-5.5-2.4-5.5-5.5V156
	C277.5,152.9,279.9,150.5,283,150.5"/>
<g>
	<path class="st0" d="M379.5,637.8c-3.1,0-5.7-2.5-5.7-5.7V156c0-3.1,2.5-5.7,5.7-5.7c3.1,0,5.7,2.5,5.7,5.7V632
		C385.2,635.2,382.6,637.8,379.5,637.8z"/>
</g>
<g>
	<path class="st1" d="M291.7,227.9c-3.9,0-7.1-3.2-7.1-7.1c0-3.9,3.2-7.1,7.1-7.1h80.4c3.9,0,7.1,3.2,7.1,7.1c0,3.9-3.2,7.1-7.1,7.1
		H291.7z"/>
</g>
<g>
	<path class="st1" d="M291.7,301.4c-3.9,0-7.1-3.1-7.1-6.8c0-3.7,3.2-6.8,7.1-6.8h80.4c3.9,0,7.1,3.1,7.1,6.8c0,3.7-3.2,6.8-7.1,6.8
		H291.7z"/>
</g>
<g>
	<path class="st1" d="M291.7,376.2c-3.9,0-7.1-3.2-7.1-7.1s3.2-7.1,7.1-7.1h80.4c3.9,0,7.1,3.2,7.1,7.1s-3.2,7.1-7.1,7.1H291.7z"/>
</g>
<g>
	<path class="st1" d="M291.7,450.4c-3.9,0-7.1-3.2-7.1-7.1s3.2-7.1,7.1-7.1h80.4c3.9,0,7.1,3.2,7.1,7.1s-3.2,7.1-7.1,7.1H291.7z"/>
</g>
<g>
	<path class="st1" d="M291.7,524.6c-3.9,0-7.1-3.2-7.1-7.1s3.2-7.1,7.1-7.1h80.4c3.9,0,7.1,3.2,7.1,7.1s-3.2,7.1-7.1,7.1H291.7z"/>
</g>
<g>
	<path class="st1" d="M291.7,598.8c-3.9,0-7.1-3.2-7.1-7.1s3.2-7.1,7.1-7.1h80.4c3.9,0,7.1,3.2,7.1,7.1s-3.2,7.1-7.1,7.1H291.7z"/>
</g>
</svg>
