<?xml version="1.0" encoding="utf-8"?>
<!-- Generator: Adobe Illustrator 22.0.1, SVG Export Plug-In . SVG Version: 6.00 Build 0)  -->
<svg version="1.1" id="Layer_1" xmlns="http://www.w3.org/2000/svg" xmlns:xlink="http://www.w3.org/1999/xlink" x="0px" y="0px"
	 viewBox="0 0 1366 768" style="enable-background:new 0 0 1366 768;" xml:space="preserve">
<style type="text/css">
	.st0{fill:#6F509B;}
	.st1{fill:#013A3E;}
	.st2{fill:#6F509B;stroke:#6F509B;stroke-width:0.5;stroke-miterlimit:10;}
</style>
<g>
	
		<rect x="710.1" y="280.7" transform="matrix(0.9396 -0.3422 0.3422 0.9396 -64.293 289.3722)" class="st0" width="155.7" height="92.4"/>
</g>
<g>
	<polygon class="st1" points="699.7,309.9 844.7,257.1 787.3,325.1 	"/>
</g>
<path class="st2" d="M466,464.6c3.4-6.3,7.1-12.5,11.4-18.2c2.6-3.5,5.4-6.9,9.8-8c5.2-1.3,10.8-1.1,16-1.4c4.8-0.2,10-0.2,14.4-2.1
	c3.6-1.5,5.5-4.8,7.2-8.2c2.4-4.7,4.1-9.7,6.9-14.2c1.2-2,2.6-3.9,4.7-5c2.1-1,4.6-1.4,6.9-1.6c5.5-0.6,11-0.3,16.4-0.5
	c4.3-0.1,9.2-0.2,13.2-2.2c3.5-1.8,5.6-5.7,7.3-9c2.5-4.8,4.6-9.9,7.4-14.5c1.2-2,2.6-4,4.4-5.5c1.9-1.5,4.1-1.9,6.4-2.1
	c5.4-0.4,10.8,0.3,16.1,0.6c4.2,0.2,9.2,0.7,13.1-1.2c3.7-1.8,6.1-6,8.1-9.4c2.9-4.7,5.3-9.7,8.5-14.2c2.7-3.8,5.5-6,10.1-6.9
	c8.5-1.7,17.6-1.5,26.2-1.2c0.7,0,1.3,0,2,0c0.2,0,0.2-0.3,0-0.4c-7.1-0.3-14.3-0.3-21.5,0.3c-3.7,0.3-7.9,0.6-11.2,2.1
	c-3.8,1.8-6.2,6-8.3,9.4c-2.9,4.8-5.3,9.9-8.6,14.4c-1.3,1.9-3,4-5,5.1c-2.1,1.2-4.7,1.4-7.1,1.5c-5.5,0.2-11-0.5-16.5-0.7
	c-3.9-0.1-8.8-0.5-12.2,1.9c-3.5,2.5-5.7,7-7.6,10.7c-2.4,4.7-4.4,9.7-7.4,14.1s-7,5.8-12.1,6.3c-5.6,0.6-11.2,0.3-16.9,0.5
	c-4,0.1-9,0.1-12.7,2.3c-3.6,2.1-5.5,7-7.2,10.6c-2.1,4.6-3.9,10-7.2,13.9c-3.2,3.7-8.9,4.1-13.5,4.4c-5.6,0.4-11.1,0.3-16.7,1
	c-3.7,0.4-6.9,1.2-9.6,3.9c-6.2,5.9-10.6,14-14.7,21.4c-0.3,0.6-0.7,1.2-1,1.9C465.6,464.6,465.9,464.8,466,464.6L466,464.6z"/>
<path class="st2" d="M501.9,525.6c2.1-6.8,4.6-13.6,7.7-20c1.9-3.9,4-7.8,8-9.8c4.8-2.3,10.3-3.2,15.5-4.4c4.6-1.1,9.7-2.1,13.8-4.8
	c3.3-2.1,4.5-5.8,5.5-9.4c1.4-5.1,2.2-10.3,4-15.3c0.8-2.1,1.8-4.3,3.6-5.8c1.9-1.4,4.2-2.2,6.5-2.9c5.3-1.6,10.7-2.4,16-3.6
	c4.2-1,9-2,12.5-4.7c3.1-2.4,4.4-6.6,5.5-10.2c1.6-5.2,2.6-10.6,4.5-15.6c0.8-2.2,1.8-4.4,3.2-6.2c1.5-1.8,3.7-2.7,5.9-3.3
	c5.2-1.5,10.7-1.8,15.9-2.5c4.2-0.6,9.2-1.1,12.7-3.7c3.3-2.4,4.8-7.1,6.2-10.8c1.9-5.2,3.3-10.5,5.6-15.6c1.9-4.3,4.3-6.9,8.6-8.7
	c8-3.3,17-4.8,25.5-6.2c0.7-0.1,1.3-0.2,1.9-0.3c0.2,0,0.2-0.4-0.1-0.4c-7.1,1-14.1,2.5-21,4.4c-3.6,1-7.6,2.1-10.6,4.3
	c-3.4,2.5-5,7-6.3,10.8c-1.9,5.2-3.3,10.7-5.6,15.8c-0.9,2.1-2.1,4.4-3.9,6c-1.8,1.6-4.4,2.3-6.7,2.8c-5.3,1.3-10.9,1.6-16.3,2.5
	c-3.9,0.6-8.7,1.2-11.6,4.2c-3,3.1-4.2,7.9-5.4,11.9c-1.4,5.1-2.5,10.3-4.5,15.2c-2.1,4.9-5.8,7-10.7,8.5c-5.4,1.6-11,2.5-16.4,3.7
	c-3.9,0.9-8.9,1.8-12,4.7c-3.1,2.8-4.1,7.9-5.1,11.8c-1.2,4.9-1.9,10.6-4.4,15c-2.4,4.3-8,5.7-12.4,6.9c-5.4,1.5-10.9,2.4-16.2,4.1
	c-3.5,1.1-6.5,2.5-8.7,5.6c-4.9,7-7.7,15.8-10.3,23.8c-0.2,0.7-0.4,1.3-0.6,2C501.5,525.7,501.8,525.8,501.9,525.6L501.9,525.6z"/>
<path class="st2" d="M556.6,590c0.4-7.1,1.1-14.3,2.6-21.3c0.9-4.3,1.9-8.5,5.4-11.4c4.1-3.4,9.3-5.6,13.9-8.1
	c4.2-2.2,8.9-4.4,12.2-8c2.7-2.9,3-6.7,3-10.5c0.2-5.3-0.4-10.6,0.2-15.8c0.2-2.3,0.7-4.6,2.1-6.5s3.6-3.2,5.6-4.4
	c4.7-2.8,9.8-4.9,14.7-7.4c3.9-2,8.2-4.1,11-7.6c2.4-3.1,2.6-7.5,2.8-11.3c0.2-5.4,0-10.9,0.6-16.3c0.2-2.3,0.6-4.7,1.6-6.8
	c1.1-2.1,2.9-3.5,4.9-4.6c4.7-2.7,9.9-4.3,14.9-6.3c3.9-1.6,8.6-3.3,11.4-6.7c2.6-3.2,3-8,3.4-11.9c0.6-5.5,0.7-11,1.7-16.4
	c0.8-4.6,2.5-7.8,6.3-10.6c7-5.1,15.3-8.8,23.3-12.2c0.6-0.3,1.2-0.5,1.8-0.8c0.2-0.1,0.1-0.4-0.2-0.3c-6.6,2.7-13.1,5.8-19.3,9.4
	c-3.2,1.8-6.9,3.8-9.3,6.7c-2.7,3.2-3.1,8-3.5,12c-0.6,5.5-0.6,11.2-1.6,16.7c-0.4,2.3-1,4.8-2.3,6.8c-1.4,2-3.7,3.2-5.8,4.3
	c-4.9,2.5-10.2,4.2-15.2,6.3c-3.6,1.5-8.2,3.3-10.2,6.9c-2.1,3.7-2.2,8.7-2.3,12.9c-0.2,5.3,0.1,10.6-0.7,15.9s-3.9,8.2-8.3,10.9
	c-4.8,2.9-10,5.1-15,7.6c-3.6,1.8-8.2,3.9-10.5,7.4c-2.4,3.5-2.1,8.6-2.1,12.6c0,5.1,0.7,10.7-0.7,15.7c-1.3,4.7-6.3,7.5-10.3,9.7
	c-4.9,2.8-10,5-14.7,8c-3.1,1.9-5.7,4-7.1,7.6c-3.1,8-3.6,17.2-4.3,25.6c0,0.7-0.1,1.4-0.1,2.1C556.2,590.2,556.6,590.3,556.6,590
	L556.6,590z"/>
</svg>
