<?xml version="1.0" encoding="utf-8"?>
<!-- Generator: Adobe Illustrator 22.0.1, SVG Export Plug-In . SVG Version: 6.00 Build 0)  -->
<svg version="1.1" id="Layer_1" xmlns="http://www.w3.org/2000/svg" xmlns:xlink="http://www.w3.org/1999/xlink" x="0px" y="0px"
	 viewBox="0 0 1366 768" style="enable-background:new 0 0 1366 768;" xml:space="preserve">
<style type="text/css">
	.st0{fill:url(#SVGID_1_);}
	.st1{fill:#C49D94;}
	.st2{fill:#F4DA74;stroke:#FFB600;stroke-width:2;stroke-miterlimit:10;}
</style>
<g>
	<path d="M670.6,491.7c-2.2,9.8-12.8,59-10.7,78.9c0.8,7,3.3,12.2,7.1,14.9c3.9,2.6,8.7,2.2,13.7-1.1c10.2-6.8,16.7-23,15.2-37.8
		C693.9,526.5,674.5,497.4,670.6,491.7"/>
	<path d="M710,492.9c-2.2,9.8-12.8,59-10.7,78.9c0.8,7,3.3,12.2,7.1,14.9c3.9,2.6,8.7,2.2,13.7-1.1c10.2-6.8,16.7-23,15.2-37.8
		C733.4,527.7,713.9,498.5,710,492.9"/>
</g>
<linearGradient id="SVGID_1_" gradientUnits="userSpaceOnUse" x1="624.1816" y1="309.61" x2="783.355" y2="309.61" gradientTransform="matrix(0.9959 9.009346e-02 9.009346e-02 -0.9959 -36.0301 702.8302)">
	<stop  offset="0" style="stop-color:#907AA5"/>
	<stop  offset="2.922702e-02" style="stop-color:#9875A5"/>
	<stop  offset="0.1525" style="stop-color:#B663A5"/>
	<stop  offset="0.2738" style="stop-color:#CC56A5"/>
	<stop  offset="0.3911" style="stop-color:#D94EA5"/>
	<stop  offset="0.5" style="stop-color:#DD4BA5"/>
	<stop  offset="0.6097" style="stop-color:#D94EA5"/>
	<stop  offset="0.7265" style="stop-color:#CC55A5"/>
	<stop  offset="0.8464" style="stop-color:#B762A5"/>
	<stop  offset="0.9678" style="stop-color:#9974A5"/>
	<stop  offset="1" style="stop-color:#907AA5"/>
</linearGradient>
<path class="st0" d="M765.8,518.6h0.2l-0.7-2c-0.3-1.3-0.9-2.5-1.4-3.8L703,350.4l-89.8,148.3c-0.9,1.3-1.7,2.7-2.4,4.1l-1,1.7h0.2
	c-6,14,0,30,18.6,42.8c29.5,20.5,79.8,24.8,112.1,9.6C760.7,547.6,769.1,533.2,765.8,518.6z"/>
<path class="st1" d="M708,387.7l-16.3-1.5c-3.8-0.3-6.6-3.7-6.3-7.5l4.8-52.1c0.3-3.8,3.7-6.6,7.6-6.3l16.3,1.5
	c3.8,0.3,6.6,3.7,6.3,7.5l-4.8,52.1C715.2,385.3,711.9,388.1,708,387.7z"/>
<ellipse class="st1" cx="706.9" cy="284" rx="70.9" ry="70.6"/>
<path class="st2" d="M729.6,180.3c-19.1-1.4-36.8,5.1-49.6,16.5c-4.3-3.5-10-5.4-16.5-4.8c-15.4,1.3-31.1,9.9-41.5,24.5
	c-10.1,14.2-6.8,40.8-4.3,60.2c-8.9,8-17.5,20.4-20,33.9c-2.3,13,4.6,30.5,12.9,45.4c-10.4,7.7-18.6,19.4-21.8,33.9
	c-3.1,13.5,3.9,32.4,11.9,48.2c-10,10-16.2,24.4-16.2,40.6c0,14.6,12.4,32.7,24.4,46.6c-8.6,9.2-14.3,21.7-15.1,36
	c-0.8,13.4,8.6,30.2,18.7,44.3c-4.9,9.3-7.3,20.2-6.4,31.8c2.3,28.4,76.9,55.6,76.9,55.7c0,0-0.6-56-13-87
	c-2.6-6.4-15.4-14.5-20.5-17.4c4.4-19.1,7.4-40,3.9-54.3c-2.1-8.7-7.5-15-14.3-18c4.6-22.1,8.7-50.6,3.2-68.1
	c-1.5-5-4.2-9.2-7.5-12.2c9.2-20.1,18.6-45.4,17.3-63c-0.5-6.7-1.1-12.3-5-16.6c8.5-20.7,15.3-47.5,13.2-65.4
	c-0.9-7.8-4.6-13.9-9.7-18c22.4-2,36.5-15.1,36.5-27c3.1,3.4-4.1,5.1,0.5,7c38.2,15.6,123.1-6.3,123.1-6.3
	C810.3,246.6,764.4,182.9,729.6,180.3z"/>
</svg>
