<?xml version="1.0" encoding="utf-8"?>
<!-- Generator: Adobe Illustrator 22.0.1, SVG Export Plug-In . SVG Version: 6.00 Build 0)  -->
<svg version="1.1" id="Layer_1" xmlns="http://www.w3.org/2000/svg" xmlns:xlink="http://www.w3.org/1999/xlink" x="0px" y="0px"
	 viewBox="0 0 1366 768" style="enable-background:new 0 0 1366 768;" xml:space="preserve">
<style type="text/css">
	.st0{fill:#92BA85;}
	.st1{fill:#DBD4D1;}
</style>
<polygon class="st0" points="941.5,174 134.5,174 134.5,384 941.5,384 "/>
<g>
	<path class="st1" d="M941.5,228.2v101.6h-807V228.2H941.5"/>
</g>
<g>
	<path d="M244.3,273.5v11h-54.9v-11H244.3"/>
</g>
<polygon points="361,272.8 304.7,272.8 304.7,285.2 361,285.2 "/>
<polyline points="476.9,273.5 476.9,284.5 422,284.5 422,273.5 476.9,273.5 "/>
<polyline points="592.9,273.5 592.9,284.5 538,284.5 538,273.5 592.9,273.5 "/>
<polyline points="708.9,273.5 708.9,284.5 654,284.5 654,273.5 708.9,273.5 "/>
<polyline points="824.9,273.5 824.9,284.5 770,284.5 770,273.5 824.9,273.5 "/>
<polyline points="941.9,272.8 941.9,283.8 887,283.8 887,272.8 941.9,272.8 "/>
</svg>
