<?xml version="1.0" encoding="utf-8"?>
<!-- Generator: Adobe Illustrator 22.0.1, SVG Export Plug-In . SVG Version: 6.00 Build 0)  -->
<svg version="1.1" id="Layer_1" xmlns="http://www.w3.org/2000/svg" xmlns:xlink="http://www.w3.org/1999/xlink" x="0px" y="0px"
	 viewBox="0 0 1366 768" style="enable-background:new 0 0 1366 768;" xml:space="preserve">
<style type="text/css">
	.st0{fill:#61A39B;}
	.st1{fill:#C5EFF7;}
	.st2{fill:#4961CB;}
	.st3{fill:#D74810;}
	.st4{fill:#FFF933;}
</style>
<g>
	<path class="st0" d="M875.1,534.5c-2.3,0-4.8,0-7.6-0.1c-2.9,0.1-5.3,0.1-7.6,0.1c-107.9,0-468-140.3-491.5-149.5
		C392,375.8,752,235.5,859.9,235.5c2.3,0,4.8,0,7.6,0.1c2.9-0.1,5.3-0.1,7.6-0.1c57.9,0,130,40.7,180.3,74.9
		c51.6,35.1,91.4,70.6,95.8,74.6c-4.4,4-44.2,39.5-95.8,74.6C1005.1,493.8,933.1,534.5,875.1,534.5z"/>
</g>
<g>
	<ellipse class="st1" cx="913" cy="385" rx="60.5" ry="60.4"/>
</g>
<g>
	<path class="st2" d="M1064.1,453.6c-29.5-41.8-29.7-95.6-0.3-137.5c2.7,1.9,5.5,3.9,8.3,5.9c-23.7,38.9-23.7,87.1-0.1,126.1
		C1069.4,449.9,1066.7,451.8,1064.1,453.6z"/>
</g>
<g>
	<path class="st2" d="M1098.1,428.7c-16.7-27-16.5-60.3,0.4-87.1c29.4,22.5,49.7,40.6,52.7,43.4
		C1148.2,387.8,1127.7,406.1,1098.1,428.7z"/>
</g>
<path class="st2" d="M368.4,385l176.2-65.1c0,0-130.1-79-266.1-24.3C278.5,295.6,364.4,310.4,368.4,385z"/>
<path class="st2" d="M368.4,385l177.1,65.4c0,0-132,77-268,23.1C277.5,473.4,364.4,458.4,368.4,385z"/>
<g>
	<path class="st1" d="M773.5,432.3c-25.9,0-47-21-47-46.9s21.1-46.9,47-46.9s47,21,47,46.9S799.4,432.3,773.5,432.3z"/>
</g>
<g>
	<path class="st1" d="M658.5,420.3c-19.3,0-35-15.7-35-34.9s15.7-34.9,35-34.9s35,15.7,35,34.9S677.8,420.3,658.5,420.3z"/>
</g>
<g>
	<path class="st3" d="M216.3,424.8c-48.6,0-150.2-35.9-162.9-40.4c12.7-4.5,114.2-40,162.9-40c44.5,0,66.2,13.1,66.2,40
		C282.5,411.6,260.9,424.8,216.3,424.8z"/>
</g>
<g>
	<path class="st4" d="M244.8,407.3c-28.2,0-87.1-20.8-94.5-23.4c7.4-2.6,66.2-23.2,94.5-23.2c25.8,0,38.4,7.6,38.4,23.2
		C283.2,399.7,270.7,407.3,244.8,407.3z"/>
</g>
</svg>
