<?xml version="1.0" encoding="utf-8"?>
<!-- Generator: Adobe Illustrator 22.0.1, SVG Export Plug-In . SVG Version: 6.00 Build 0)  -->
<svg version="1.1" id="Layer_1" xmlns="http://www.w3.org/2000/svg" xmlns:xlink="http://www.w3.org/1999/xlink" x="0px" y="0px"
	 viewBox="0 0 1366 768" style="enable-background:new 0 0 1366 768;" xml:space="preserve">
<style type="text/css">
	.st0{fill:#DBD4D1;}
	.st1{fill:#FFFFFF;stroke:#DBD4D1;stroke-width:3;stroke-miterlimit:10;}
	.st2{fill:#59ABE3;}
	.st3{fill:#FFFFFF;}
	.st4{fill:#FF0000;stroke:#FFFFFF;stroke-width:3;stroke-miterlimit:10;}
</style>
<path class="st0" d="M663.1,235.4c6.9,0,12.6,5.9,12.6,13.1v461.4c0,7.2-5.7,13.1-12.6,13.1s-12.6-5.9-12.6-13.1V248.5
	C650.5,241.3,656.2,235.4,663.1,235.4"/>
<path class="st1" d="M751.1,260.2H575.2c-12.2,0-22-9.9-22-22V67c0-12.2,9.9-22,22-22h175.9c12.2,0,22,9.9,22,22v171.1
	C773.1,250.3,763.3,260.2,751.1,260.2z"/>
<path class="st2" d="M742.3,251.6H583.9c-12.2,0-22-9.9-22-22v-154c0-12.2,9.9-22,22-22h158.4c12.2,0,22,9.9,22,22v154
	C764.4,241.7,754.5,251.6,742.3,251.6z"/>
<path class="st3" d="M679,116.3h-30.9V226H679V116.3L679,116.3z"/>
<path class="st4" d="M727.2,88.2v33.7H599.5V88.2H727.2"/>
</svg>
