<?xml version="1.0" encoding="utf-8"?>
<!-- Generator: Adobe Illustrator 22.0.1, SVG Export Plug-In . SVG Version: 6.00 Build 0)  -->
<svg version="1.1" id="Layer_1" xmlns="http://www.w3.org/2000/svg" xmlns:xlink="http://www.w3.org/1999/xlink" x="0px" y="0px"
	 viewBox="0 0 1366 768" style="enable-background:new 0 0 1366 768;" xml:space="preserve">
<style type="text/css">
	.st0{fill:#DBD4D1;}
	.st1{fill:#FFFFFF;stroke:#DBD4D1;stroke-width:3;stroke-miterlimit:10;}
	.st2{fill:#FF0000;}
	.st3{fill:#FFFFFF;}
</style>
<path class="st0" d="M329.1,261.5c7,0,12.7,6,12.7,13.3v468.8c0,7.3-5.7,13.3-12.7,13.3s-12.7-6-12.7-13.3V274.8
	C316.4,267.5,322.2,261.5,329.1,261.5"/>
<path class="st1" d="M328.1,78.9c29.4,0,57,11.4,77.8,32.4c20.8,20.9,32.2,48.6,32.2,78.1s-11.3,57.2-32.2,78.1
	s-48.4,32.4-77.8,32.4s-57-11.4-77.8-32.4s-32.2-48.6-32.2-78.1s11.3-57.2,32.2-78.1S298.7,78.9,328.1,78.9"/>
<path class="st2" d="M328.1,90.1c26.5,0,51.2,10.2,69.9,29.1c18.7,18.8,29,43.7,29,70.2s-10.2,51.4-29,70.2s-43.5,29.1-69.9,29.1
	s-51.2-10.2-69.9-29.1s-29-43.7-29-70.2s10.2-51.4,29-70.2C276.9,100.4,301.7,90.1,328.1,90.1"/>
<rect x="246.8" y="172.9" class="st3" width="162.7" height="33"/>
</svg>
