<?xml version="1.0" encoding="utf-8"?>
<!-- Generator: Adobe Illustrator 22.0.1, SVG Export Plug-In . SVG Version: 6.00 Build 0)  -->
<svg version="1.1" id="Layer_1" xmlns="http://www.w3.org/2000/svg" xmlns:xlink="http://www.w3.org/1999/xlink" x="0px" y="0px"
	 viewBox="0 0 1366 768" style="enable-background:new 0 0 1366 768;" xml:space="preserve">
<style type="text/css">
	.st0{fill:#B3BDE5;}
</style>
<g>
	<path class="st0" d="M787.2,233.3c31.6,0,62.6,11.1,87.3,31.2c25,20.4,42.2,49,48.4,80.7c1.9,9.5,2.7,19.3,2.6,29v0.8l0.8,0.2
		c14.5,3.6,27.6,11.3,38,22c10.7,11,17.9,24.9,20.8,40c4.1,20.9-0.2,42.1-12.1,59.8c-11.9,17.7-29.9,29.6-50.8,33.7
		c-5.1,1-10.2,1.5-15.3,1.5c-7.2,0-14.3-1-21.3-2.9l-0.6-0.2l-0.4,0.5c-15.3,19.6-37.2,33.1-61.6,37.9c-6.6,1.3-13.3,1.9-19.9,1.9
		c-30.5,0-59.3-13.5-79-36.9l-0.5-0.6l-0.7,0.4c-11.7,6.7-24.5,11.4-37.8,14c-8,1.6-16.1,2.4-24.2,2.4c-30.3,0-59.7-11.1-82.6-31.2
		l-0.7-0.6l-0.7,0.6c-9.1,7.8-20.1,13.2-31.9,15.5c-4.4,0.9-8.9,1.3-13.4,1.3c-33.1,0-61.7-23.6-68.1-56.1
		c-7.3-37.6,17.2-74.1,54.8-81.5c4.4-0.9,8.8-1.3,13.3-1.3c2,0,4,0.1,6,0.3l0.9,0.1l0.2-0.8c11.2-48.2,49.7-85.4,98.2-94.9
		c8-1.6,16.1-2.3,24.2-2.3c2.9,0,5.8,0.1,8.6,0.3h0.6l0.3-0.5c10-15.6,22.7-28.9,37.9-39.4c15.7-10.9,33.3-18.3,52.2-22
		C769.3,234.2,778.3,233.3,787.2,233.3"/>
</g>
</svg>
