<?xml version="1.0" encoding="utf-8"?>
<!-- Generator: Adobe Illustrator 22.0.1, SVG Export Plug-In . SVG Version: 6.00 Build 0)  -->
<svg version="1.1" id="Layer_1" xmlns="http://www.w3.org/2000/svg" xmlns:xlink="http://www.w3.org/1999/xlink" x="0px" y="0px"
	 viewBox="0 0 1366 768" style="enable-background:new 0 0 1366 768;" xml:space="preserve">
<style type="text/css">
	.st0{fill:#FFD7ED;}
</style>
<path class="st0" d="M579.8,210.2c-3.7,0-7.4,0.2-11.2,0.7c-21.9,2.6-41.1,12.4-55.6,26.7c-14-8.9-30.5-13.9-48-13.9
	c-3.5,0-7,0.2-10.6,0.6c-49.4,5.8-84.7,50.5-78.9,99.9c1.4,12.3,5.3,23.8,11.1,33.9c-12.7,10-20.1,26.2-18.1,43.4
	c2.9,24.5,23.6,42.4,47.6,42.4c1.9,0,3.8-0.1,5.7-0.3c4.1-0.5,8.1-1.5,11.8-2.9c14.8,34.1,48.8,57.1,87,57.1c3.7,0,7.4-0.2,11.2-0.7
	c40.9-4.8,72.6-34.9,81.4-72.8c4.2,1.2,8.7,1.9,13.3,1.9c1.9,0,3.8-0.1,5.7-0.3c17.4-2,31.4-13.1,38.2-27.9c9,4.1,19,6.4,29.4,6.4
	c2.8,0,5.6-0.2,8.4-0.5c38.9-4.6,66.8-39.9,62.2-78.8c-4.2-36.1-34.9-62.7-70.4-62.7c-2.8,0-5.6,0.2-8.4,0.5
	c-8.5,1-16.4,3.4-23.6,7.1C653.8,234.4,619,210.2,579.8,210.2L579.8,210.2z"/>
</svg>
