<?xml version="1.0" encoding="utf-8"?>
<!-- Generator: Adobe Illustrator 22.0.1, SVG Export Plug-In . SVG Version: 6.00 Build 0)  -->
<svg version="1.1" id="Layer_1" xmlns="http://www.w3.org/2000/svg" xmlns:xlink="http://www.w3.org/1999/xlink" x="0px" y="0px"
	 viewBox="0 0 1366 768" style="enable-background:new 0 0 1366 768;" xml:space="preserve">
<style type="text/css">
	.st0{fill:#CC7939;}
	.st1{fill:#013A3E;}
	.st2{fill:#61A39B;}
</style>
<path class="st0" d="M481.6,408.2v116.6h-48.1V408.2H481.6"/>
<path class="st1" d="M457.5,89.1c22.1,0,43,7.2,58.8,20.3c15.8,13,24.5,30.3,24.5,48.7v207.5c0,18.3-8.7,35.6-24.5,48.7
	c-15.8,13-36.7,20.2-58.8,20.2s-43-7.2-58.8-20.3c-15.8-13-24.5-30.2-24.5-48.6V158.1c0-18.3,8.7-35.6,24.5-48.7
	S435.3,89.1,457.5,89.1"/>
<path class="st2" d="M457.5,89.1c22.1,0,43,7.2,58.8,20.1s24.5,30.3,24.5,48.4v53.6c0,7.4-12.2,48.1-25.5,62.6
	c-11.8,13-23.3,29.4-42,44.2c-39.1,30.8-83.7,52.4-98.8,52.4c0,0-0.2-55.8-0.2-60.1V157.8c0-18.2,8.7-35.4,24.5-48.4
	C414.5,96.3,435.3,89.1,457.5,89.1"/>
</svg>
