<?xml version="1.0" encoding="utf-8"?>
<!-- Generator: Adobe Illustrator 22.0.1, SVG Export Plug-In . SVG Version: 6.00 Build 0)  -->
<svg version="1.1" id="Layer_1" xmlns="http://www.w3.org/2000/svg" xmlns:xlink="http://www.w3.org/1999/xlink" x="0px" y="0px"
	 viewBox="0 0 1366 768" style="enable-background:new 0 0 1366 768;" xml:space="preserve">
<style type="text/css">
	.st0{fill:none;stroke:#000000;stroke-width:0.5;stroke-miterlimit:10;}
</style>
<g>
	<path class="st0" d="M656.1,735.5c-18,0-32.6-14.6-32.6-32.6V364.4c0-41.8,34-75.9,75.9-75.9h7.1v-111H705
		c-6.3,0-11.5-5.2-11.5-11.5v-29c0-6.3,5.2-11.5,11.5-11.5h2.4l-7.8-34h74.7l-7.8,34h2.4c6.3,0,11.5,5.2,11.5,11.5v29
		c0,6.3-5.2,11.5-11.5,11.5h-1.5v111h7.1c41.8,0,75.9,34,75.9,75.9v338.5c0,18-14.6,32.6-32.6,32.6H656.1z"/>
	<path class="st0" d="M773.7,92l-7.5,32.8L766,126h1.3h1.8c6.1,0,11,4.9,11,11v29c0,6.1-4.9,11-11,11h-1h-1v1v110v1h1h6.6
		c20.1,0,39,7.9,53.2,22.1c14.3,14.3,22.1,33.2,22.1,53.2v338.5c0,17.7-14.4,32.1-32.1,32.1H759h-44h-58.9
		c-17.7,0-32.1-14.4-32.1-32.1V364.4c0-20.1,7.9-39,22.1-53.2c14.3-14.3,33.2-22.1,53.2-22.1h6.6h1v-1V178v-1h-1h-1
		c-6.1,0-11-4.9-11-11v-29c0-6.1,4.9-11,11-11h1.8h1.3l-0.3-1.2L700.3,92H715h11h22h11H773.7 M775,91h-16h-11h-22h-11h-16l7.8,34
		H705c-6.6,0-12,5.4-12,12v29c0,6.6,5.4,12,12,12h1v110h-6.6c-42,0-76.4,34.4-76.4,76.4v338.5c0,18.3,14.8,33.1,33.1,33.1H715h44
		h58.9c18.3,0,33.1-14.8,33.1-33.1V364.4c0-42-34.4-76.4-76.4-76.4H768V178h1c6.6,0,12-5.4,12-12v-29c0-6.6-5.4-12-12-12h-1.8
		L775,91L775,91z"/>
</g>
<g>
	<path class="st0" d="M737.5,735.5v-644h36.9l-7.8,34h2.4c6.3,0,11.5,5.2,11.5,11.5v29c0,6.3-5.2,11.5-11.5,11.5h-1.5v111h7.1
		c41.8,0,75.9,34,75.9,75.9v338.5c0,18-14.6,32.6-32.6,32.6H737.5z"/>
	<path class="st0" d="M773.7,92l-7.5,32.8L766,126h1.3h1.8c6.1,0,11,4.9,11,11v29c0,6.1-4.9,11-11,11h-1h-1v1v110v1h1h6.6
		c20.1,0,39,7.9,53.2,22.1c14.3,14.3,22.1,33.2,22.1,53.2v338.5c0,17.7-14.4,32.1-32.1,32.1H759h-21V92h10h11H773.7 M775,91h-16h-11
		h-11v645h22h58.9c18.3,0,33.1-14.8,33.1-33.1V364.4c0-42-34.4-76.4-76.4-76.4H768V178h1c6.6,0,12-5.4,12-12v-29c0-6.6-5.4-12-12-12
		h-1.8L775,91L775,91z"/>
</g>
<g>
	<rect x="656.5" y="417.5" class="st0" width="162" height="246"/>
	<path class="st0" d="M818,418v245H657V418H818 M819,417H656v247h163V417L819,417z"/>
</g>
</svg>
