<?xml version="1.0" encoding="utf-8"?>
<!-- Generator: Adobe Illustrator 22.0.1, SVG Export Plug-In . SVG Version: 6.00 Build 0)  -->
<svg version="1.1" id="Layer_1" xmlns="http://www.w3.org/2000/svg" xmlns:xlink="http://www.w3.org/1999/xlink" x="0px" y="0px"
	 viewBox="0 0 1366 768" style="enable-background:new 0 0 1366 768;" xml:space="preserve">
<style type="text/css">
	.st0{fill:#D6D6D6;}
	.st1{fill:#CCCCCC;}
	.st2{fill:#FAA6A4;}
</style>
<path class="st0" d="M656.1,735.5c-18,0-32.6-14.6-32.6-32.6V364.4c0-41.8,34-75.9,75.9-75.9h7.1v-111H705
	c-6.3,0-11.5-5.2-11.5-11.5v-29c0-6.3,5.2-11.5,11.5-11.5h2.4l-7.8-34h74.7l-7.8,34h2.4c6.3,0,11.5,5.2,11.5,11.5v29
	c0,6.3-5.2,11.5-11.5,11.5h-1.5v111h7.1c41.8,0,75.9,34,75.9,75.9v338.5c0,18-14.6,32.6-32.6,32.6H656.1z"/>
<g>
	<path class="st1" d="M737.5,735.5v-644h36.9l-7.8,34h2.4c6.3,0,11.5,5.2,11.5,11.5v29c0,6.3-5.2,11.5-11.5,11.5h-1.5v111h7.1
		c41.8,0,75.9,34,75.9,75.9v338.5c0,18-14.6,32.6-32.6,32.6H737.5z"/>
</g>
<g>
	<rect x="651.8" y="409" class="st2" width="171.5" height="246"/>
</g>
</svg>
