<?xml version="1.0" encoding="utf-8"?>
<!-- Generator: Adobe Illustrator 22.0.1, SVG Export Plug-In . SVG Version: 6.00 Build 0)  -->
<svg version="1.1" id="Layer_1" xmlns="http://www.w3.org/2000/svg" xmlns:xlink="http://www.w3.org/1999/xlink" x="0px" y="0px"
	 viewBox="0 0 1366 768" style="enable-background:new 0 0 1366 768;" xml:space="preserve">
<style type="text/css">
	.st0{fill:none;stroke:#000000;stroke-miterlimit:10;}
</style>
<path class="st0" d="M29.5,330.1c0,0,35.5-71.1,128.9-50.1l-33,48c0,0-30-10.7-50.5,33.8C74.9,361.8,38.5,361.4,29.5,330.1z"/>
<path class="st0" d="M111.3,324.1c0,0,35.5-71.1,128.9-50.1l-33,48c0,0-30-10.7-50.5,33.8C156.7,355.8,120.3,355.4,111.3,324.1z"/>
<path class="st0" d="M74.9,361.8c0,0,53.5,71.8,139.1,28.1L170,346.4c0,0-26.5,18.2-57.6-24.5C112.3,321.9,75.8,326.5,74.9,361.8z"
	/>
<path class="st0" d="M160.1,349c0,0,53.5,74.3,139.1,30.7l-44.1-43.5c0,0-26.5,18.2-57.6-24.5C197.5,311.6,161,313.6,160.1,349z"/>
<path class="st0" d="M197.3,312.1c0,0,35.5-71.1,128.9-50.1l-33,48c0,0-30-10.7-50.5,33.8C242.7,343.8,206.3,343.4,197.3,312.1z"/>
<path class="st0" d="M279.1,306.1c0,0,35.5-71.1,128.9-50.1l-33,48c0,0-30-10.7-50.5,33.8C324.5,337.8,288.1,337.4,279.1,306.1z"/>
<path class="st0" d="M242.7,343.8c0,0,53.5,71.8,139.1,28.1l-44.1-43.5c0,0-26.5,18.2-57.6-24.5
	C280.2,303.9,243.7,308.5,242.7,343.8z"/>
<path class="st0" d="M327.9,331c0,0,53.5,74.3,139.1,30.7L423,318.1c0,0-26.5,18.2-57.6-24.5C365.4,293.7,328.9,295.6,327.9,331z"/>
<path class="st0" d="M367.4,294.4c0,0,35.5-71.1,128.9-50.1l-33,48c0,0-30-10.7-50.5,33.8C412.8,326.1,376.4,325.7,367.4,294.4z"/>
<path class="st0" d="M449.2,288.4c0,0,35.5-71.1,128.9-50.1l-33,48c0,0-30-10.7-50.5,33.8C494.6,320.1,458.2,319.7,449.2,288.4z"/>
<path class="st0" d="M412.8,326.1c0,0,53.5,71.8,139.1,28.1l-44.1-43.5c0,0-26.5,18.2-57.6-24.5
	C450.2,286.2,413.7,290.8,412.8,326.1z"/>
<path class="st0" d="M498,313.2c0,0,53.5,74.3,139.1,30.7l-44.1-43.5c0,0-26.5,18.2-57.6-24.5C535.4,275.9,498.9,277.9,498,313.2z"
	/>
<path class="st0" d="M535.3,276.4c0,0,35.5-71.1,128.9-50.1l-33,48c0,0-30-10.7-50.5,33.8C580.6,308.1,544.2,307.7,535.3,276.4z"/>
<path class="st0" d="M617,270.4c0,0,35.5-71.1,128.9-50.1l-33,48c0,0-30-10.7-50.5,33.8C662.4,302.1,626,301.7,617,270.4z"/>
<path class="st0" d="M580.6,308.1c0,0,53.5,71.8,139.1,28.1l-44.1-43.5c0,0-26.5,18.2-57.6-24.5
	C618.1,268.2,581.6,272.8,580.6,308.1z"/>
<path class="st0" d="M665.8,295.3c0,0,53.5,74.3,139.1,30.7l-44.1-43.5c0,0-26.5,18.2-57.6-24.5
	C703.3,257.9,666.8,259.9,665.8,295.3z"/>
<path class="st0" d="M704.5,259.1c0,0,35.5-71.1,128.9-50.1l-33,48c0,0-30-10.7-50.5,33.8C749.9,290.8,713.5,290.4,704.5,259.1z"/>
<path class="st0" d="M786.3,253.1c0,0,35.5-71.1,128.9-50.1l-33,48c0,0-30-10.7-50.5,33.8C831.7,284.8,795.3,284.4,786.3,253.1z"/>
<path class="st0" d="M749.9,290.8c0,0,53.5,71.8,139.1,28.1L845,275.4c0,0-26.5,18.2-57.6-24.5C787.3,250.9,750.8,255.5,749.9,290.8
	z"/>
<path class="st0" d="M835.1,278c0,0,53.5,74.3,139.1,30.7l-44.1-43.5c0,0-26.5,18.2-57.6-24.5C872.5,240.6,836,242.6,835.1,278z"/>
<path class="st0" d="M872.3,241.1c0,0,35.5-71.1,128.9-50.1l-33,48c0,0-30-10.7-50.5,33.8C917.7,272.8,881.3,272.4,872.3,241.1z"/>
<path class="st0" d="M954.1,235.1c0,0,35.5-71.1,128.9-50.1l-33,48c0,0-30-10.7-50.5,33.8C999.5,266.8,963.1,266.4,954.1,235.1z"/>
<path class="st0" d="M917.7,272.8c0,0,53.5,71.8,139.1,28.1l-44.1-43.5c0,0-26.5,18.2-57.6-24.5
	C955.2,232.9,918.7,237.5,917.7,272.8z"/>
<path class="st0" d="M1002.9,260c0,0,53.5,74.3,139.1,30.7l-44.1-43.5c0,0-26.5,18.2-57.6-24.5
	C1040.4,222.7,1003.9,224.6,1002.9,260z"/>
<path class="st0" d="M1042.4,223.4c0,0,35.5-71.1,128.9-50.1l-33,48c0,0-30-10.7-50.5,33.8C1087.8,255.1,1051.4,254.7,1042.4,223.4z
	"/>
<path class="st0" d="M1087.8,255.1c0,0,53.5,71.8,139.1,28.1l-44.1-43.5c0,0-26.5,18.2-57.6-24.5
	C1125.2,215.2,1088.7,219.8,1087.8,255.1z"/>
</svg>
