<?xml version="1.0" encoding="utf-8"?>
<!-- Generator: Adobe Illustrator 22.0.1, SVG Export Plug-In . SVG Version: 6.00 Build 0)  -->
<svg version="1.1" id="Layer_1" xmlns="http://www.w3.org/2000/svg" xmlns:xlink="http://www.w3.org/1999/xlink" x="0px" y="0px"
	 viewBox="0 0 1366 768" style="enable-background:new 0 0 1366 768;" xml:space="preserve">
<style type="text/css">
	.st0{fill:none;stroke:#000000;stroke-width:0.5;stroke-miterlimit:10;}
</style>
<polygon class="st0" points="613.2,586.7 655.4,620.5 621.6,662.8 "/>
<polygon class="st0" points="695.8,654.6 653.5,620.8 687.4,578.5 "/>
<circle class="st0" cx="745" cy="138" r="21.1"/>
<circle class="st0" cx="717.7" cy="156.1" r="11.5"/>
<circle class="st0" cx="701.2" cy="184.3" r="21.1"/>
<circle class="st0" cx="687.2" cy="213.2" r="11.5"/>
<circle class="st0" cx="679.8" cy="245.6" r="21.1"/>
<circle class="st0" cx="649.4" cy="547.3" r="18"/>
<circle class="st0" cx="652.2" cy="578.5" r="13.1"/>
<circle class="st0" cx="652.8" cy="602.9" r="10.7"/>
<path class="st0" d="M654.6,648.7c35.4-2.1,1,61.3,1,61.3S631.3,650.1,654.6,648.7z"/>
<circle class="st0" cx="656" cy="637.8" r="10.7"/>
<circle class="st0" cx="670.4" cy="277.3" r="11.5"/>
<circle class="st0" cx="666.3" cy="310.3" r="21.1"/>
<circle class="st0" cx="660.7" cy="343.4" r="11.5"/>
<circle class="st0" cx="659.6" cy="376.7" r="21.1"/>
<circle class="st0" cx="654.9" cy="409.9" r="11.5"/>
<circle class="st0" cx="651.9" cy="442.9" r="21.1"/>
<circle class="st0" cx="649.7" cy="476.1" r="11.5"/>
<circle class="st0" cx="648.6" cy="508.2" r="21.1"/>
</svg>
