<?xml version="1.0" encoding="utf-8"?>
<!-- Generator: Adobe Illustrator 22.0.1, SVG Export Plug-In . SVG Version: 6.00 Build 0)  -->
<svg version="1.1" id="Layer_1" xmlns="http://www.w3.org/2000/svg" xmlns:xlink="http://www.w3.org/1999/xlink" x="0px" y="0px"
	 viewBox="0 0 1366 768" style="enable-background:new 0 0 1366 768;" xml:space="preserve">
<g>
	<path d="M717.5,279.5c60.2,0,109.1,71.5,109.5,159.5H608C608.4,351,657.3,279.5,717.5,279.5 M717.5,278.5
		c-61,0-110.5,72.3-110.5,161.5h221C828,350.8,778.5,278.5,717.5,278.5L717.5,278.5z"/>
</g>
<g>
	<path d="M716.6,279.5c0.4,8.4,0.4,78.6,0.4,159.5H608C608.4,351.4,656.9,280.2,716.6,279.5 M717.5,278.5
		c-61,0-110.5,72.3-110.5,161.5h111C718,350.8,718,278.5,717.5,278.5L717.5,278.5z"/>
</g>
</svg>
