<?xml version="1.0" encoding="utf-8"?>
<!-- Generator: Adobe Illustrator 22.0.1, SVG Export Plug-In . SVG Version: 6.00 Build 0)  -->
<svg version="1.1" id="Layer_1" xmlns="http://www.w3.org/2000/svg" xmlns:xlink="http://www.w3.org/1999/xlink" x="0px" y="0px"
	 viewBox="0 0 1366 768" style="enable-background:new 0 0 1366 768;" xml:space="preserve">
<g>
	<path d="M665.8,354c31.7,0,57.5,37.6,57.8,84H608C608.4,391.6,634.2,354,665.8,354 M665.8,353c-32.5,0-58.8,38.5-58.8,86h117.7
		C724.7,391.5,698.3,353,665.8,353L665.8,353z"/>
</g>
<g>
	<path d="M664.9,354c0.2,6,0.2,42.3,0.2,84H608C608.4,392,633.7,354.7,664.9,354 M665.8,353c-32.5,0-58.8,38.5-58.8,86h59.1
		C666.1,391.5,666.1,353,665.8,353L665.8,353z"/>
</g>
</svg>
