<?xml version="1.0" encoding="utf-8"?>
<!-- Generator: Adobe Illustrator 22.0.1, SVG Export Plug-In . SVG Version: 6.00 Build 0)  -->
<svg version="1.1" id="Layer_1" xmlns="http://www.w3.org/2000/svg" xmlns:xlink="http://www.w3.org/1999/xlink" x="0px" y="0px"
	 viewBox="0 0 1366 768" style="enable-background:new 0 0 1366 768;" xml:space="preserve">
<g>
	<path d="M696.8,399.1c25.6,0,46.5,30.4,46.8,67.9H650C650.4,429.5,671.2,399.1,696.8,399.1 M696.8,398.1
		c-26.4,0-47.8,31.3-47.8,69.9h95.7C744.7,429.4,723.3,398.1,696.8,398.1L696.8,398.1z"/>
</g>
<g>
	<path d="M695.9,399.1c0.2,5.4,0.2,34.4,0.2,67.9H650C650.4,429.9,670.7,399.8,695.9,399.1 M696.8,398.1
		c-26.4,0-47.8,31.3-47.8,69.9h48.1C697.1,429.4,697.1,398.1,696.8,398.1L696.8,398.1z"/>
</g>
<g>
	<path d="M770.6,363c39.9,0,72.5,46.6,72.9,104H697.7C698.1,409.6,730.6,363,770.6,363 M770.6,362c-40.8,0-73.9,47.5-73.9,106h147.7
		C844.4,409.5,811.3,362,770.6,362L770.6,362z"/>
</g>
<g>
	<path d="M769.6,363c0.2,6.7,0.3,51.9,0.3,104h-72.2C698.1,410,730.1,363.7,769.6,363 M770.6,362c-40.8,0-73.9,47.5-73.9,106h74.2
		C770.9,409.5,770.9,362,770.6,362L770.6,362z"/>
</g>
<g>
	<path d="M877.3,375c35.9,0,65.1,41.2,65.5,92h-131C812.2,416.2,841.4,375,877.3,375 M877.3,374c-36.7,0-66.5,42.1-66.5,94h133.1
		C943.8,416.1,914.1,374,877.3,374L877.3,374z"/>
</g>
<g>
	<path d="M876.4,375c0.2,6.3,0.2,46.1,0.2,92h-64.8C812.2,416.6,840.9,375.7,876.4,375 M877.3,374c-36.7,0-66.5,42.1-66.5,94h66.8
		C877.6,416.1,877.6,374,877.3,374L877.3,374z"/>
</g>
</svg>
