<?xml version="1.0" encoding="utf-8"?>
<!-- Generator: Adobe Illustrator 22.0.1, SVG Export Plug-In . SVG Version: 6.00 Build 0)  -->
<svg version="1.1" id="Layer_1" xmlns="http://www.w3.org/2000/svg" xmlns:xlink="http://www.w3.org/1999/xlink" x="0px" y="0px"
	 viewBox="0 0 1366 768" style="enable-background:new 0 0 1366 768;" xml:space="preserve">
<g>
	<path d="M588.5,380.6c32.6,0,59.1,38.7,59.5,86.4H529C529.4,419.3,555.9,380.6,588.5,380.6 M588.5,379.6
		c-33.4,0-60.5,39.6-60.5,88.4h121C649,419.2,621.9,379.6,588.5,379.6L588.5,379.6z"/>
</g>
<g>
	<path d="M587.6,380.6c0.2,6.1,0.2,43.4,0.2,86.4H529C529.4,419.7,555.4,381.3,587.6,380.6 M588.5,379.6
		c-33.4,0-60.5,39.6-60.5,88.4h60.8C588.8,419.2,588.8,379.6,588.5,379.6L588.5,379.6z"/>
</g>
<g>
	<path d="M681.7,335c50.7,0,92,59.1,92.4,132H589.3C589.7,394.1,631,335,681.7,335 M681.7,334c-51.6,0-93.4,60-93.4,134H775
		C775,394,733.2,334,681.7,334L681.7,334z"/>
</g>
<g>
	<path d="M680.8,335c0.3,7.6,0.3,65.4,0.3,132h-91.8C589.7,394.6,630.5,335.7,680.8,335 M681.7,334c-51.6,0-93.4,60-93.4,134h93.8
		C682.1,394,682.1,334,681.7,334L681.7,334z"/>
</g>
</svg>
