<?xml version="1.0" encoding="utf-8"?>
<!-- Generator: Adobe Illustrator 22.0.1, SVG Export Plug-In . SVG Version: 6.00 Build 0)  -->
<svg version="1.1" id="Layer_1" xmlns="http://www.w3.org/2000/svg" xmlns:xlink="http://www.w3.org/1999/xlink" x="0px" y="0px"
	 viewBox="0 0 1366 768" style="enable-background:new 0 0 1366 768;" xml:space="preserve">
<style type="text/css">
	.st0{fill:#61A39B;}
	.st1{fill:#92BA85;}
</style>
<path class="st0" d="M769,363c39.9,0,72.5,46.6,72.9,104H696.1C696.5,409.6,729,363,769,363"/>
<path class="st1" d="M767.6,363c0.2,6.7,0.3,51.9,0.3,104h-72.2C696.1,410,728.1,363.7,767.6,363"/>
<path class="st0" d="M876.6,375c35.9,0,65.1,41.2,65.5,92h-131C811.5,416.2,840.7,375,876.6,375"/>
<path class="st1" d="M875.4,375c0.2,6.3,0.2,46.1,0.2,92h-64.8C811.2,416.6,839.9,375.7,875.4,375"/>
<path class="st0" d="M695.8,399.1c25.6,0,46.5,30.4,46.8,67.9H649C649.4,429.5,670.2,399.1,695.8,399.1"/>
<path class="st1" d="M694.9,399.1c0.2,5.4,0.2,34.4,0.2,67.9H649C649.4,429.9,669.7,399.8,694.9,399.1"/>
</svg>
