<?xml version="1.0" encoding="utf-8"?>
<!-- Generator: Adobe Illustrator 22.0.1, SVG Export Plug-In . SVG Version: 6.00 Build 0)  -->
<svg version="1.1" id="Layer_1" xmlns="http://www.w3.org/2000/svg" xmlns:xlink="http://www.w3.org/1999/xlink" x="0px" y="0px"
	 viewBox="0 0 1366 768" style="enable-background:new 0 0 1366 768;" xml:space="preserve">
<style type="text/css">
	.st0{fill:#FFFFFF;}
	.st1{fill:#FFFFFF;stroke:#000000;stroke-width:0.5;stroke-miterlimit:10;}
	.st2{fill:#FFFFFF;stroke:#000000;stroke-width:0.75;stroke-miterlimit:10;}
</style>
<g>
	<polygon class="st0" points="424.5,419.6 513.1,381.5 604.8,421.3 513.3,460.7 	"/>
	<path d="M513.1,381.8l91.1,39.5l-90.9,39.1l-88.3-40.9L513.1,381.8 M513.1,381.3l-89.3,38.3l89.5,41.5l92.2-39.7L513.1,381.3
		L513.1,381.3z"/>
</g>
<polygon class="st1" points="418.5,57.5 404.3,102.5 390,147.5 375.8,192.5 361.5,237.5 378.5,290.5 419.5,317.5 459.5,291.5 
	475.5,239.5 466.1,208.8 456.7,178 437.6,117.8 "/>
<polygon class="st1" points="418.5,57.5 390,147.5 361.5,237.5 372.5,290.5 418.5,298.5 418.5,178 "/>
<g>
	<polygon class="st0" points="420.1,325.9 511.7,286.2 511.8,717.8 419.3,759.6 	"/>
	<path d="M511.5,286.6l0,431.1l-92,41.5l0.8-433.2L511.5,286.6 M512,285.9l-92.1,39.9L419,760l93-42L512,285.9L512,285.9z"/>
</g>
<g>
	<polygon class="st0" points="512.3,461.2 603.8,421.4 604.1,679.2 512.4,718.9 	"/>
	<path d="M603.5,421.8l0.3,257.3l-91.1,39.4l-0.2-257.2L603.5,421.8 M604,421l-92,40l0.2,258.3l92.1-39.9L604,421L604,421z"/>
</g>
<g>
	<polygon class="st0" points="236.5,599.3 328.2,559.5 416.9,597.6 328,638.7 	"/>
	<path d="M328.2,559.8l88.1,37.8L328,638.5l-90.9-39.1L328.2,559.8 M328.2,559.3l-92.3,40.1L328,639l89.5-41.5L328.2,559.3
		L328.2,559.3z"/>
</g>
<g>
	<polygon class="st0" points="236.8,679.1 236.8,598.6 328.5,638.9 328.5,718.8 	"/>
	<path d="M237.1,599l91.1,40.1v79.3l-91.1-39.4V599 M236.6,598.2v81.1l92.1,39.9v-80.4L236.6,598.2L236.6,598.2z"/>
</g>
<g>
	<polygon class="st0" points="328.3,718.8 328,286.2 419.6,325.9 418.8,759.6 	"/>
	<path d="M328.2,286.6l91.1,39.4l-0.8,433.2l-90-40.6L328.2,286.6 M327.7,285.9L328,719l91,41l0.8-434.3L327.7,285.9L327.7,285.9z"
		/>
</g>
<g>
	<polygon class="st0" points="326.3,225.5 351.2,215.1 374.4,225 349.5,235.7 	"/>
	<path d="M351.2,215.3l22.5,9.6l-24.2,10.4l-22.5-9.9L351.2,215.3 M351.3,214.8l-25.5,10.6l23.8,10.5L375,225L351.3,214.8
		L351.3,214.8z"/>
</g>
<g>
	<polygon class="st0" points="464.3,226.8 487.5,217.1 511.3,227.7 488.1,237.7 	"/>
	<path d="M487.5,217.3l23.2,10.3l-22.6,9.7L465,226.8L487.5,217.3 M487.5,216.8l-23.8,10l24.4,11.2l23.9-10.3L487.5,216.8
		L487.5,216.8z"/>
</g>
<g>
	<polygon class="st0" points="464.8,250.2 464.8,226.6 489.8,238.4 489.8,261.8 	"/>
	<path d="M465.1,227l24.4,11.6v22.8L465.1,250V227 M464.6,226.2v24.1l25.4,11.9v-23.9L464.6,226.2L464.6,226.2z"/>
</g>
<g>
	<polygon class="st0" points="429.3,242.8 452.5,233.1 476.3,243.7 453.1,253.7 	"/>
	<path d="M452.5,233.3l23.2,10.3l-22.6,9.7L430,242.8L452.5,233.3 M452.5,232.8l-23.8,10l24.4,11.2l23.9-10.3L452.5,232.8
		L452.5,232.8z"/>
</g>
<g>
	<polygon class="st0" points="429.8,266.2 429.8,242.6 454.8,254.4 454.8,277.8 	"/>
	<path d="M430.1,243l24.4,11.6v22.8L430.1,266V243 M429.6,242.2v24.1l25.4,11.9v-23.9L429.6,242.2L429.6,242.2z"/>
</g>
<g>
	<polygon class="st0" points="349.6,234.9 372.7,224.7 371.8,253.8 349.3,264.6 	"/>
	<path d="M372.5,225.1l-0.9,28.6l-22,10.5l0.3-29.1L372.5,225.1 M373,224.3l-23.6,10.4L349,265l23-11L373,224.3L373,224.3z"/>
</g>
<g>
	<polygon class="st0" points="385.6,249.9 408.7,239.7 407.8,268.8 385.3,279.6 	"/>
	<path d="M408.5,240.1l-0.9,28.6l-22,10.5l0.3-29.1L408.5,240.1 M409,239.3l-23.6,10.4L385,280l23-11L409,239.3L409,239.3z"/>
</g>
<g>
	<polygon class="st0" points="327.3,286.8 327.3,225.4 349.8,235.2 349.8,265 363.3,271 363.3,240.4 385.8,250.2 385.8,281 
		398.3,286.6 398.3,256.4 421,266.3 443.8,256.4 443.8,285.6 454.3,280.9 454.3,253.2 476.8,243.4 476.8,270.9 489.3,265.3 
		489.3,237.2 511.8,227.4 511.8,287 420.1,326.6 420.1,324.1 419.6,324.1 419.6,326.6 	"/>
	<path d="M327.5,225.8l22,9.6v29.5v0.3l0.3,0.1l13,5.8l0.7,0.3v-0.8v-29.8l22,9.6v30.5v0.3l0.3,0.1l12,5.3l0.7,0.3v-0.8v-29.4
		l22.3,9.7l0.2,0.1l0.2-0.1l22.3-9.7v28.4v0.8l0.7-0.3l10-4.5l0.3-0.1v-0.3v-27.4l22-9.6v26.7v0.8l0.7-0.3l12-5.3l0.3-0.1v-0.3
		v-27.8l22-9.6v58.7h0l0,0.3l-34.7,15l-1.7,0.7l-54.8,23.7l0-2.1l-1,0l0,2.1l-91.8-39.6V225.8 M327,225v62l92.8,40l0-2.9l0,2.9
		l55.5-24l1.7-0.7l35-15.1l0-0.1h0v-60l-23,10v28.1l-12,5.3V243l-23,10v27.7l-10,4.5V256l-23,10l-23-10v30.2l-12-5.3V250l-23-10
		v30.6l-13-5.8V235L327,225L327,225z"/>
</g>
<g>
	<polygon class="st0" points="362.3,240.5 386.3,230.1 409.4,240 385.5,250.6 	"/>
	<path d="M386.3,230.4l22.5,9.6l-23.2,10.4l-22.5-9.9L386.3,230.4 M386.3,229.8l-24.5,10.6l23.8,10.5L410,240L386.3,229.8
		L386.3,229.8z"/>
</g>
<g>
	<polygon class="st0" points="397.6,257 419.5,246.1 443.4,256.5 420.2,266.7 	"/>
	<path d="M419.5,246.4l23.3,10.1l-22.6,9.9l-22-9.4L419.5,246.4 M419.5,245.8L397,257l23.2,9.9l23.8-10.5L419.5,245.8L419.5,245.8z"
		/>
</g>
<polygon class="st2" points="373.8,336.8 360.5,356.5 360.5,356.5 360.5,429.5 382.5,439.5 382.5,365.5 "/>
<polygon class="st2" points="463.2,409.8 476.5,429.5 476.5,429.5 476.5,500.5 454.5,510.5 454.5,438.5 "/>
<polygon class="st2" points="556.2,513.8 569.5,533.5 569.5,533.5 569.5,581.5 547.5,591.5 547.5,542.5 "/>
<g>
	<polygon class="st0" points="360.6,430 382.2,420.8 382.1,439.1 	"/>
	<path d="M382,421.2l-0.1,17.5l-20.6-8.7L382,421.2 M382.5,420.4L360,430l22.4,9.5L382.5,420.4L382.5,420.4z"/>
</g>
<g>
	<polygon class="st0" points="454.5,491.7 476.4,500.4 454.3,510 	"/>
	<path d="M454.7,492.1l21,8.3l-21.2,9.2L454.7,492.1 M454.2,491.4l-0.2,19l23-10L454.2,491.4L454.2,491.4z"/>
</g>
<g>
	<polygon class="st0" points="547.2,572.7 569.1,581.4 547.1,591 	"/>
	<path d="M547.5,573.1l21,8.3l-21.2,9.2L547.5,573.1 M547,572.4l-0.2,19l23-10L547,572.4L547,572.4z"/>
</g>
</svg>
