<?xml version="1.0" encoding="utf-8"?>
<!-- Generator: Adobe Illustrator 22.0.1, SVG Export Plug-In . SVG Version: 6.00 Build 0)  -->
<svg version="1.1" id="Layer_1" xmlns="http://www.w3.org/2000/svg" xmlns:xlink="http://www.w3.org/1999/xlink" x="0px" y="0px"
	 viewBox="0 0 1366 768" style="enable-background:new 0 0 1366 768;" xml:space="preserve">
<style type="text/css">
	.st0{fill:#C6C6AD;}
	.st1{fill:#D74810;}
	.st2{fill:#CC7939;}
	.st3{fill:#A5A26F;}
	.st4{fill:#DBD4D1;}
	.st5{fill:#F46060;}
</style>
<g>
	<polygon class="st0" points="422.5,418.6 511.1,380.5 602.8,420.3 511.3,459.7 	"/>
	<path class="st0" d="M511.1,380.8l91.1,39.5l-90.9,39.1L423,418.5L511.1,380.8 M511.1,380.3l-89.3,38.3l89.5,41.5l92.2-39.7
		L511.1,380.3L511.1,380.3z"/>
</g>
<polygon class="st1" points="417.5,29.6 402.5,77.2 387.4,124.8 372.4,172.3 357.2,219.9 375.2,276 418.6,304.5 460.8,277 
	477.8,222 467.8,189.6 457.9,157 437.7,93.4 "/>
<polygon class="st2" points="417.5,29.6 387.4,124.8 357.2,219.9 368.9,276 417.5,284.4 417.5,157 "/>
<g>
	<polygon class="st1" points="420.1,325.9 511.7,286.2 511.8,717.8 419.3,759.6 	"/>
	<path class="st1" d="M511.5,286.6v431.1l-92,41.5l0.8-433.2L511.5,286.6 M512,285.9l-92.1,39.9L419,760l93-42V285.9L512,285.9z"/>
</g>
<g>
	<polygon class="st1" points="511.3,460.2 602.8,420.4 603.1,678.2 511.4,717.9 	"/>
	<path class="st1" d="M602.5,420.8l0.3,257.3l-91.1,39.4l-0.2-257.2L602.5,420.8 M603,420l-92,40l0.2,258.3l92.1-39.9L603,420
		L603,420z"/>
</g>
<g>
	<polygon class="st3" points="236.5,599.3 328.2,559.5 416.9,597.6 328,638.7 	"/>
	<path class="st3" d="M328.2,559.8l88.1,37.8L328,638.5l-90.9-39.1L328.2,559.8 M328.2,559.3l-92.3,40.1L328,639l89.5-41.5
		L328.2,559.3L328.2,559.3z"/>
</g>
<g>
	<polygon class="st2" points="236.8,679.1 236.8,598.6 328.5,638.9 328.5,718.8 	"/>
	<path class="st2" d="M237.1,599l91.1,40.1v79.3L237.1,679V599 M236.6,598.2v81.1l92.1,39.9v-80.4L236.6,598.2L236.6,598.2z"/>
</g>
<g>
	<polygon class="st2" points="328.3,718.8 328,286.2 419.6,325.9 418.8,759.6 	"/>
	<path class="st2" d="M328.2,286.6l91.1,39.4l-0.8,433.2l-90-40.6L328.2,286.6 M327.7,285.9L328,719l91,41l0.8-434.3L327.7,285.9
		L327.7,285.9z"/>
</g>
<g>
	<polygon class="st3" points="465.5,226 488.7,216.3 512.5,226.9 489.3,236.9 	"/>
</g>
<g>
	<polygon class="st4" points="464.8,252.2 465.8,225.6 489.3,236.4 489.3,264.8 	"/>
</g>
<g>
	<polygon class="st3" points="429.3,242.8 452.5,233.1 477.3,243.7 453.1,253.7 	"/>
</g>
<g>
	<polygon class="st4" points="429.8,268.2 429.8,242.6 454.8,254.4 454.8,280.8 	"/>
</g>
<g>
	<polygon class="st4" points="349.6,234.9 372.7,224.7 371.8,253.8 349.3,264.6 	"/>
	<path class="st4" d="M375.5,224.1l0.1,29.6l-26,10.5l0.3-29.1L375.5,224.1"/>
</g>
<g>
	<polygon class="st4" points="385.6,249.9 409.7,239.7 409.8,268.8 385.3,281.6 	"/>
</g>
<polygon class="st0" points="363,240.3 387,229.9 410.1,239.8 386.2,249.4 "/>
<polygon class="st3" points="398,255.9 419.9,246 443.8,256.4 420.6,266.6 "/>
<polygon class="st4" points="373.8,336.8 360.5,356.5 360.5,356.5 360.5,429.5 382.5,439.5 382.5,365.5 "/>
<polygon class="st4" points="463.2,409.8 476.5,429.5 476.5,429.5 476.5,500.5 454.5,510.5 454.5,438.5 "/>
<polygon class="st4" points="556.2,513.8 569.5,533.5 569.5,533.5 569.5,581.5 547.5,591.5 547.5,542.5 "/>
<g>
	<polygon class="st3" points="360.6,430 382.2,420.8 382.1,439.1 	"/>
	<path class="st3" d="M382,421.2l-0.1,17.5l-20.6-8.7L382,421.2 M382.5,420.4L360,430l22.4,9.5L382.5,420.4L382.5,420.4z"/>
</g>
<g>
	<polygon class="st0" points="547.2,572.7 569.1,581.4 547.1,591 	"/>
	<path class="st0" d="M547.5,573.1l21,8.3l-21.2,9.2L547.5,573.1 M547,572.4l-0.2,19l23-10L547,572.4L547,572.4z"/>
</g>
<g>
	<polygon class="st0" points="454.5,491.7 476.4,500.4 454.3,510 	"/>
	<path class="st0" d="M454.7,492.1l21,8.3l-21.2,9.2L454.7,492.1 M454.2,491.4l-0.2,19l23-10L454.2,491.4L454.2,491.4z"/>
</g>
<polygon class="st3" points="363.4,270.8 349.6,264.8 363.6,257 "/>
<path class="st0" d="M351.8,214.1l-25.5,10.6l23.8,10.5l25.4-10.9L351.8,214.1L351.8,214.1z"/>
<polygon class="st0" points="490,264.5 476.3,271.5 476.3,257.8 "/>
<polygon class="st3" points="398.9,286.9 386.1,280.9 399.1,274.1 "/>
<polygon class="st0" points="454.8,280.9 444,285.9 440,273.1 "/>
<g>
	<polygon class="st5" points="327.3,287.1 327.3,225.7 349.8,235.5 349.8,265.3 363.3,271.3 363.3,240.7 385.8,250.5 385.8,281.3 
		398.3,286.9 398.3,256.7 421,266.6 443.8,256.7 443.8,285.9 454.3,281.2 454.3,254.5 476.8,244.7 476.8,271.2 489.3,265.6 
		489.3,237.5 511.8,227.7 511.8,287.3 420.1,326.9 419.6,326.9 	"/>
</g>
</svg>
