<?xml version="1.0" encoding="utf-8"?>
<!-- Generator: Adobe Illustrator 22.0.1, SVG Export Plug-In . SVG Version: 6.00 Build 0)  -->
<svg version="1.1" id="Layer_1" xmlns="http://www.w3.org/2000/svg" xmlns:xlink="http://www.w3.org/1999/xlink" x="0px" y="0px"
	 viewBox="0 0 1366 768" style="enable-background:new 0 0 1366 768;" xml:space="preserve">
<style type="text/css">
	.st0{fill:none;stroke:#000000;stroke-width:0.75;stroke-miterlimit:10;}
</style>
<path class="st0" d="M739.9,612.1c14.6-36.9,24.1-96.4,24.1-163.5c0-112-26.4-202.7-59-202.7c-32.6,0-59,90.8-59,202.7
	c0,106.6,24,194,54.4,202.1c9.4,4.5,22.8,7.3,37.7,7.3c28.5,0,51.7-10.3,51.7-22.9C789.8,622.7,767.6,612.6,739.9,612.1z"/>
<path class="st0" d="M669.4,273.3c1.7-8.6-3.9-17-12.4-18.7l-24.7-5c-8.6-1.7-17,3.9-18.7,12.4l-35.3,174c-1.7,8.6,3.9,17,12.4,18.7
	l24.7,5c6.4,1.3,12.6-1.5,16.2-6.5l24.9-116.2L669.4,273.3z"/>
<path class="st0" d="M666,291.2L648.6,381c2.6,0.5,5.3,0.7,8,0.7c25.2,0,45.7-20.5,45.7-45.7C702.4,314,686.8,295.6,666,291.2z"/>
<circle class="st0" cx="709" cy="181.6" r="63.6"/>
<path class="st0" d="M709.6,182.1c-20.4,59.1-48.7,40.9-48.7,40.9c-22.6-26.9-19.1-67,7.8-89.6c26.9-22.6,67-19.1,89.6,7.8
	C758.3,141.2,721,148.9,709.6,182.1z"/>
<circle class="st0" cx="755.7" cy="176" r="3.3"/>
</svg>
