<?xml version="1.0" encoding="utf-8"?>
<!-- Generator: Adobe Illustrator 22.0.1, SVG Export Plug-In . SVG Version: 6.00 Build 0)  -->
<svg version="1.1" id="Layer_1" xmlns="http://www.w3.org/2000/svg" xmlns:xlink="http://www.w3.org/1999/xlink" x="0px" y="0px"
	 viewBox="0 0 1366 768" style="enable-background:new 0 0 1366 768;" xml:space="preserve">
<g>
	<path d="M783.5,304c17.5,0,34,5.6,47.9,16.1c13.4,10.2,23.5,24.6,28.3,40.7l0.6,1.9l1.2-1.6c7.2-9.6,18.1-15.1,30.1-15.1
		c20.7,0,37.5,16.8,37.5,37.5c0,0.1,0,0.2,0,0.3c0,0.1,0,0.2,0,0.3l0,1l1,0c23.7,0.5,43,20.2,43,44c0,24.3-19.7,44-44,44H705
		c-24.3,0-44-19.7-44-44c0-11.4,4.4-22.2,12.3-30.4c7.9-8.2,18.5-13,29.8-13.5l1,0l0-1c0-0.1,0-0.2,0-0.3c0-0.1,0-0.2,0-0.3
		C704,339.7,739.7,304,783.5,304 M783.5,303c-44.5,0-80.5,36-80.5,80.5c0,0.2,0,0.4,0,0.6c-23.8,1-43,20.9-43,44.9v0
		c0,24.8,20.3,45,45,45h224c24.7,0,45-20.3,45-45v0c0-24.4-19.7-44.4-44-45c0-0.2,0-0.3,0-0.5c0-21.3-17.2-38.5-38.5-38.5
		c-12.6,0-23.8,6.1-30.9,15.5C850.7,327.2,820,303,783.5,303L783.5,303z"/>
</g>
</svg>
