<?xml version="1.0" encoding="utf-8"?>
<!-- Generator: Adobe Illustrator 22.0.1, SVG Export Plug-In . SVG Version: 6.00 Build 0)  -->
<svg version="1.1" id="Layer_1" xmlns="http://www.w3.org/2000/svg" xmlns:xlink="http://www.w3.org/1999/xlink" x="0px" y="0px"
	 viewBox="0 0 1366 768" style="enable-background:new 0 0 1366 768;" xml:space="preserve">
<style type="text/css">
	.st0{fill:#C5EFF7;}
</style>
<path class="st0" d="M783.5,304c17.5,0,34,5.6,47.9,16.1c13.4,10.2,23.5,24.6,28.3,40.7l0.6,1.9l1.2-1.6
	c7.2-9.6,18.1-15.1,30.1-15.1c20.7,0,37.5,16.8,37.5,37.5c0,0.1,0,0.2,0,0.3c0,0.1,0,0.2,0,0.3v1h1c23.7,0.5,43,20.2,43,44
	c0,24.3-19.7,44-44,44H705c-24.3,0-44-19.7-44-44c0-11.4,4.4-22.2,12.3-30.4c7.9-8.2,18.5-13,29.8-13.5h1v-1c0-0.1,0-0.2,0-0.3
	c0-0.1,0-0.2,0-0.3C704,339.7,739.7,304,783.5,304"/>
</svg>
