<?xml version="1.0" encoding="utf-8"?>
<!-- Generator: Adobe Illustrator 22.0.1, SVG Export Plug-In . SVG Version: 6.00 Build 0)  -->
<svg version="1.1" id="Layer_1" xmlns="http://www.w3.org/2000/svg" xmlns:xlink="http://www.w3.org/1999/xlink" x="0px" y="0px"
	 viewBox="0 0 1366 768" style="enable-background:new 0 0 1366 768;" xml:space="preserve">
<g>
	<path d="M307,54.3c37.3,0,72.4,14.5,98.8,40.9c26.4,26.4,40.9,61.4,41,98.7l0,0.2l0.2,0l0.3,0.1l0.2,0l0.1,0l0.1,0
		c8.6-4,17.8-6,27.4-6c17.4,0,33.8,6.7,46.2,18.9c12.4,12.2,19.3,28.5,19.6,45.8l0,0.2h0.2h1c34,0,61.7,27.7,61.7,61.8
		c0,34-27.7,61.7-61.7,61.7H428.5H327H174.5c-24.5,0-47.7-9.6-65.2-27.1c-17.5-17.5-27.1-40.6-27.1-65.2c0-23.2,8.8-45.5,24.7-62.6
		c15.8-17.1,37.2-27.5,60.1-29.3l0.2,0l0-0.2c0.4-37,15.2-71.7,41.5-97.7C235.1,68.6,270,54.3,307,54.3 M307,54
		c-76.8,0-139.1,61.8-140,138.3c-47.4,3.8-85,43.8-85,92.2v0c0,50.9,41.6,92.5,92.5,92.5H327h101.5H542c34.1,0,62-27.9,62-62v0
		c0-34.1-27.9-62-62-62h-1c-0.5-36-29.9-65-66-65c-9.8,0-19.1,2.2-27.5,6c-0.2,0-0.4-0.1-0.5-0.1C446.9,116.6,384.3,54,307,54
		L307,54z"/>
</g>
</svg>
