<?xml version="1.0" encoding="utf-8"?>
<!-- Generator: Adobe Illustrator 22.0.1, SVG Export Plug-In . SVG Version: 6.00 Build 0)  -->
<svg version="1.1" id="Layer_1" xmlns="http://www.w3.org/2000/svg" xmlns:xlink="http://www.w3.org/1999/xlink" x="0px" y="0px"
	 viewBox="0 0 1366 768" style="enable-background:new 0 0 1366 768;" xml:space="preserve">
<style type="text/css">
	.st0{fill:#C5EFF7;}
</style>
<path class="st0" d="M435.5,251.1c25.2,0,49,9.8,66.8,27.7c17.9,17.9,27.7,41.5,27.7,66.7v0.1h0.1l0.2,0.1h0.1h0.1h0.1
	c5.8-2.7,12-4.1,18.5-4.1c11.8,0,22.9,4.5,31.2,12.8c8.4,8.2,13,19.3,13.3,31v0.1h0.1h0.7c23,0,41.7,18.7,41.7,41.8
	c0,23-18.7,41.7-41.7,41.7h-76.8H449H345.9c-16.6,0-32.3-6.5-44.1-18.3c-11.8-11.8-18.3-27.5-18.3-44.1c0-15.7,6-30.8,16.7-42.3
	c10.7-11.6,25.2-18.6,40.6-19.8h0.1v-0.1c0.3-25,10.3-48.5,28.1-66.1C386.9,260.7,410.5,251.1,435.5,251.1"/>
</svg>
