<?xml version="1.0" encoding="utf-8"?>
<!-- Generator: Adobe Illustrator 22.0.1, SVG Export Plug-In . SVG Version: 6.00 Build 0)  -->
<svg version="1.1" id="Layer_1" xmlns="http://www.w3.org/2000/svg" xmlns:xlink="http://www.w3.org/1999/xlink" x="0px" y="0px"
	 viewBox="0 0 1366 768" style="enable-background:new 0 0 1366 768;" xml:space="preserve">
<g>
	<path d="M649.2,308.3c26.2,0,51,8.2,71.8,23.8c20.1,15.1,35.1,36.5,42.1,60.3l0,0.2l0.2,0c39.1,5.5,68.5,38.9,68.5,77.7
		c0,20.9-8.3,40.6-23.4,55.4c-15.1,14.9-35.1,23.1-56.3,23.1H522.7c-2.1,0-4.1-0.1-6.2-0.2c-1.9,0.2-3.7,0.2-5.3,0.2h-104
		c-34.7,0-62.9-27.8-62.9-61.9c0-34.1,28.2-61.9,62.9-61.9h16.5h0.2l0-0.2c4.1-36.1,35.1-63.4,72-63.4c16.5,0,32,5.3,44.9,15.4
		l0.2,0.2l0.1-0.3c9.3-20.1,24.2-37.2,43-49.4C603.5,314.9,626,308.3,649.2,308.3 M649.2,308c-48.1,0-89.5,28.1-108.2,68.6
		c-12.4-9.7-28.1-15.5-45.1-15.5c-37.4,0-68.2,27.8-72.3,63.6h-16.5c-34.7,0-63.1,28-63.1,62.1v0c0,34.2,28.4,62.1,63.1,62.1h104
		c1.8,0,3.6-0.1,5.3-0.2c2.1,0.2,4.1,0.2,6.2,0.2H752c44,0,80-35.4,80-78.8v0c0-39.6-30-72.5-68.7-78
		C748.9,343.6,703.3,308,649.2,308L649.2,308z"/>
</g>
</svg>
