<?xml version="1.0" encoding="utf-8"?>
<!-- Generator: Adobe Illustrator 22.0.1, SVG Export Plug-In . SVG Version: 6.00 Build 0)  -->
<svg version="1.1" id="Layer_1" xmlns="http://www.w3.org/2000/svg" xmlns:xlink="http://www.w3.org/1999/xlink" x="0px" y="0px"
	 viewBox="0 0 1366 768" style="enable-background:new 0 0 1366 768;" xml:space="preserve">
<g>
	<g>
		<path d="M366.4,152c47.5,47.1,119.9,59.7,180.6,31.9c17-7.8,32.4-18.8,45.6-31.9c11-10.9-6-27.9-17-17
			c-20.5,20.3-45.6,33.2-74.1,38.1c-11.5,2-27.3,2.2-39.6,0.7c-12.2-1.5-27.5-5.9-38.5-11c-15.3-7.1-28.4-16.2-40.2-27.9
			C372.3,124.1,355.4,141.1,366.4,152L366.4,152z"/>
	</g>
</g>
<g>
	<g>
		<path d="M467,187c0,15.7,0,31.3,0,47c0,15.4,24,15.5,24,0c0-15.7,0-31.3,0-47C491,171.6,467,171.5,467,187L467,187z"/>
	</g>
</g>
<g>
	<g>
		<path d="M537.7,177.7c9.3,12.6,18.7,25.2,28,37.8c3.9,5.2,10.4,7.8,16.4,4.3c5.1-3,8.2-11.2,4.3-16.4c-9.3-12.6-18.7-25.2-28-37.8
			c-3.9-5.2-10.4-7.8-16.4-4.3C536.8,164.3,533.8,172.4,537.7,177.7L537.7,177.7z"/>
	</g>
</g>
<g>
	<g>
		<path d="M403.6,165.6c-9.3,12.6-18.7,25.2-28,37.8c-3.9,5.2-0.9,13.4,4.3,16.4c6.1,3.6,12.5,0.9,16.4-4.3
			c9.3-12.6,18.7-25.2,28-37.8c3.9-5.2,0.9-13.4-4.3-16.4C413.9,157.7,407.5,160.3,403.6,165.6L403.6,165.6z"/>
	</g>
</g>
<g>
	<g>
		<path d="M673.4,151c47.5,47.1,119.9,59.7,180.6,31.9c17-7.8,32.4-18.8,45.6-31.9c11-10.9-6-27.9-17-17
			c-20.5,20.3-45.6,33.2-74.1,38.1c-11.5,2-27.3,2.2-39.6,0.7c-12.2-1.5-27.5-5.9-38.5-11c-15.3-7.1-28.4-16.2-40.2-27.9
			C679.3,123.1,662.4,140.1,673.4,151L673.4,151z"/>
	</g>
</g>
<g>
	<g>
		<path d="M774,186c0,15.7,0,31.3,0,47c0,15.4,24,15.5,24,0c0-15.7,0-31.3,0-47C798,170.6,774,170.5,774,186L774,186z"/>
	</g>
</g>
<g>
	<g>
		<path d="M844.7,176.7c9.3,12.6,18.7,25.2,28,37.8c3.9,5.2,10.4,7.8,16.4,4.3c5.1-3,8.2-11.2,4.3-16.4c-9.3-12.6-18.7-25.2-28-37.8
			c-3.9-5.2-10.4-7.8-16.4-4.3C843.8,163.3,840.8,171.4,844.7,176.7L844.7,176.7z"/>
	</g>
</g>
<g>
	<g>
		<path d="M710.6,164.6c-9.3,12.6-18.7,25.2-28,37.8c-3.9,5.2-0.9,13.4,4.3,16.4c6.1,3.6,12.5,0.9,16.4-4.3
			c9.3-12.6,18.7-25.2,28-37.8c3.9-5.2,0.9-13.4-4.3-16.4C720.9,156.7,714.5,159.3,710.6,164.6L710.6,164.6z"/>
	</g>
</g>
<g>
	<path d="M786.2,410.5c-16.7,0-29.5-13.1-29.7-30.6c-0.3-24,26-72.2,29.7-78.9c3.7,6.7,29.7,54.9,29.7,78.9
		C815.9,397.4,803.1,410.5,786.2,410.5z"/>
	<path d="M786.2,302.1c4.9,9.1,29.2,54.8,29.2,77.9c0,8.2-3,15.7-8.3,21.3c-5.4,5.6-12.8,8.7-20.9,8.7c-16.5,0-29-12.9-29.2-30.1
		C756.7,356.8,781.2,311.1,786.2,302.1 M786.2,300c0,0-30.5,53.8-30.2,79.9c0.2,17.3,12.9,31.1,30.2,31.1
		c17.3,0,30.2-13.7,30.2-31.1C816.4,353.8,786.2,300,786.2,300L786.2,300z"/>
</g>
<g>
	<path d="M479.2,502.5c-16.7,0-29.5-13.1-29.7-30.6c-0.3-24,26-72.2,29.7-78.9c3.7,6.7,29.7,54.9,29.7,78.9
		C508.9,489.4,496.1,502.5,479.2,502.5z"/>
	<path d="M479.2,394.1c4.9,9.1,29.2,54.8,29.2,77.9c0,8.2-3,15.7-8.3,21.3c-5.4,5.6-12.8,8.7-20.9,8.7c-16.5,0-29-12.9-29.2-30.1
		C449.7,448.8,474.2,403.1,479.2,394.1 M479.2,392c0,0-30.5,53.8-30.2,79.9c0.2,17.3,12.9,31.1,30.2,31.1
		c17.3,0,30.2-13.7,30.2-31.1C509.4,445.8,479.2,392,479.2,392L479.2,392z"/>
</g>
<g>
	<path d="M786.2,708.5c-16.7,0-29.5-13.1-29.7-30.6c-0.3-24,26-72.2,29.7-78.9c3.7,6.7,29.7,54.9,29.7,78.9
		C815.9,695.4,803.1,708.5,786.2,708.5z"/>
	<path d="M786.2,600.1c4.9,9.1,29.2,54.8,29.2,77.9c0,8.2-3,15.7-8.3,21.3c-5.4,5.6-12.8,8.7-20.9,8.7c-16.5,0-29-12.9-29.2-30.1
		C756.7,654.8,781.2,609.1,786.2,600.1 M786.2,598c0,0-30.5,53.8-30.2,79.9c0.2,17.3,12.9,31.1,30.2,31.1
		c17.3,0,30.2-13.7,30.2-31.1C816.4,651.8,786.2,598,786.2,598L786.2,598z"/>
</g>
</svg>
