<?xml version="1.0" encoding="utf-8"?>
<!-- Generator: Adobe Illustrator 22.0.1, SVG Export Plug-In . SVG Version: 6.00 Build 0)  -->
<svg version="1.1" id="Layer_1" xmlns="http://www.w3.org/2000/svg" xmlns:xlink="http://www.w3.org/1999/xlink" x="0px" y="0px"
	 viewBox="0 0 1366 768" style="enable-background:new 0 0 1366 768;" xml:space="preserve">
<style type="text/css">
	.st0{fill:#E74C3C;}
	.st1{fill:#E67E22;}
	.st2{fill:#F1C40F;}
	.st3{fill:#1ABC9C;}
	.st4{fill:#4BAAE0;}
	.st5{fill:#2980B9;}
	.st6{fill:#9B59B6;}
	.st7{fill:#FFFFFF;}
</style>
<g>
	<path d="M786,284.3c2.6,0,4.8,2.1,4.8,4.8v190c0,2.6-2.1,4.8-4.8,4.8s-4.8-2.1-4.8-4.8V289C781.3,286.4,783.4,284.3,786,284.3
		 M786,284c-2.8,0-5,2.3-5,5v190c0,2.8,2.3,5,5,5s5-2.3,5-5V289C791,286.3,788.8,284,786,284L786,284z"/>
</g>
<g>
	<rect x="770" y="241.3" class="st0" width="114.9" height="14.1"/>
</g>
<g>
	<rect x="770" y="255.4" class="st1" width="114.9" height="14.1"/>
</g>
<g>
	<rect x="770" y="269.4" class="st2" width="114.9" height="14.1"/>
</g>
<g>
	<rect x="770" y="283.5" class="st3" width="114.9" height="14.1"/>
</g>
<g>
	<rect x="770" y="297.6" class="st4" width="114.9" height="14.1"/>
</g>
<g>
	<rect x="770" y="311.6" class="st5" width="114.9" height="14.1"/>
</g>
<g>
	<rect x="770" y="325.7" class="st6" width="114.9" height="14.1"/>
</g>
<polygon class="st7" points="885.6,241 885.6,340 837.4,290.5 "/>
<rect x="387.7" y="286" class="st0" width="218.3" height="28.9"/>
<rect x="387.7" y="314.9" class="st1" width="218.3" height="28.9"/>
<rect x="387.7" y="343.8" class="st2" width="218.3" height="28.9"/>
<rect x="387.7" y="372.7" class="st4" width="218.3" height="28.9"/>
<rect x="387.7" y="401.6" class="st6" width="218.3" height="28.9"/>
<polygon class="st7" points="606,286.9 606,430.2 536.2,358.6 "/>
</svg>
