<?xml version="1.0" encoding="utf-8"?>
<!-- Generator: Adobe Illustrator 22.0.1, SVG Export Plug-In . SVG Version: 6.00 Build 0)  -->
<svg version="1.1" id="Layer_1" xmlns="http://www.w3.org/2000/svg" xmlns:xlink="http://www.w3.org/1999/xlink" x="0px" y="0px"
	 viewBox="0 0 1366 768" style="enable-background:new 0 0 1366 768;" xml:space="preserve">
<style type="text/css">
	.st0{fill:url(#SVGID_1_);}
	.st1{fill:url(#SVGID_2_);}
	.st2{fill:url(#SVGID_3_);}
	.st3{fill:#472220;}
</style>
<linearGradient id="SVGID_1_" gradientUnits="userSpaceOnUse" x1="617.337" y1="442.0179" x2="754" y2="442.0179">
	<stop  offset="0" style="stop-color:#FF55B3"/>
	<stop  offset="1" style="stop-color:#FF5F2A"/>
</linearGradient>
<path class="st0" d="M618,494.1h-0.2l0.6-1.7c0.3-1.1,0.8-2.2,1.2-3.3L672,348.9L749.3,477c0.8,1.1,1.5,2.3,2.1,3.5l0.9,1.5h-0.2
	c5.2,12.1,0,25.9-16,37c-25.4,17.7-68.7,21.4-96.5,8.3C622.4,519.2,615.1,506.7,618,494.1z"/>
<linearGradient id="SVGID_2_" gradientUnits="userSpaceOnUse" x1="657.0309" y1="352" x2="687.0816" y2="352">
	<stop  offset="0" style="stop-color:#FFCFA5"/>
	<stop  offset="1" style="stop-color:#FFA418"/>
</linearGradient>
<path class="st1" d="M667.7,381.1l14-1.3c3.3-0.3,5.7-3.2,5.4-6.5l-4.1-45c-0.3-3.3-3.2-5.7-6.5-5.4l-14,1.3
	c-3.3,0.3-5.7,3.2-5.4,6.5l4.1,45C661.5,379,664.4,381.4,667.7,381.1z"/>
<linearGradient id="SVGID_3_" gradientUnits="userSpaceOnUse" x1="614.178" y1="291.5" x2="736.178" y2="291.5">
	<stop  offset="0" style="stop-color:#FFCFA5"/>
	<stop  offset="1" style="stop-color:#FFA418"/>
</linearGradient>
<circle class="st2" cx="668.7" cy="291.5" r="61"/>
<path class="st3" d="M727.6,260.4c8.7,15.4,20,45.5,25.3,71.8c5.3,26.3,4.6,48.7-10.9,48.7c-19.8,0-79.1,13.3-82-63
	c-33-27-43.5-68.5-26.3-78.2s36.4-12.3,53.4-8.5S719,245,727.6,260.4z"/>
</svg>
