<?xml version="1.0" encoding="utf-8"?>
<!-- Generator: Adobe Illustrator 22.0.1, SVG Export Plug-In . SVG Version: 6.00 Build 0)  -->
<svg version="1.1" id="Layer_1" xmlns="http://www.w3.org/2000/svg" xmlns:xlink="http://www.w3.org/1999/xlink" x="0px" y="0px"
	 viewBox="0 0 1366 768" style="enable-background:new 0 0 1366 768;" xml:space="preserve">
<style type="text/css">
	.st0{fill:url(#SVGID_1_);}
	.st1{fill:url(#SVGID_2_);}
	.st2{fill:url(#SVGID_3_);}
	.st3{fill:#472220;}
</style>
<linearGradient id="SVGID_1_" gradientUnits="userSpaceOnUse" x1="626.7001" y1="466.0479" x2="749" y2="466.0479">
	<stop  offset="0" style="stop-color:#006A24"/>
	<stop  offset="1" style="stop-color:#00486A"/>
</linearGradient>
<path class="st0" d="M633,495c2.2-11.3-1.3-38.6,4-65.1c1.9-9.8,18.2-37.2,18.2-37.2l18.2-37.2c0,0,8.2,13,22.5,26.5
	c7.9,7.4,22,18,31.3,41.4c4.4,11.2,4.8,55.4,8.9,66.7c3.3,9.1,9.8,31.4,9.8,31.4l0.3,0.4h-0.1h-0.1h-0.1H746
	c1.8,3.2,2.7,6.5,2.7,9.9c0,3.4,2.8,28.3-9.7,36.8c-8.8,4.7-24.1,5.6-36.3,6.4c-12.2,0.8-19,2.4-30.6,1.1c-11.7-1.3-17.3,1-27.1-2.1
	c-7-2.2-16-11-17-22C624.2,510.2,629.6,512.5,633,495z"/>
<linearGradient id="SVGID_2_" gradientUnits="userSpaceOnUse" x1="660.0309" y1="355" x2="690.0816" y2="355">
	<stop  offset="1.801692e-03" style="stop-color:#7F5C00"/>
	<stop  offset="1" style="stop-color:#6A4A00"/>
</linearGradient>
<path class="st1" d="M670.7,384.1l14-1.3c3.3-0.3,5.7-3.2,5.4-6.5l-4.1-45c-0.3-3.3-3.2-5.7-6.5-5.4l-14,1.3
	c-3.3,0.3-5.7,3.2-5.4,6.5l4.1,45C664.5,382,667.4,384.4,670.7,384.1z"/>
<linearGradient id="SVGID_3_" gradientUnits="userSpaceOnUse" x1="610.6563" y1="294.5" x2="732.6563" y2="294.5">
	<stop  offset="0" style="stop-color:#945F00"/>
	<stop  offset="0.2398" style="stop-color:#8B5900"/>
	<stop  offset="0.6369" style="stop-color:#714800"/>
	<stop  offset="0.9944" style="stop-color:#553600"/>
</linearGradient>
<circle class="st2" cx="671.7" cy="294.5" r="61"/>
<path class="st3" d="M672.9,218.3c14.9,2.3,28.8,9.5,49.2,19.8C768,270,742,319,675.7,294c-35.5,7.8-68.8-7-66.2-23.7
	s11-30.9,22.5-40.3C643.5,220.7,658,216,672.9,218.3z"/>
</svg>
