<?xml version="1.0" encoding="utf-8"?>
<!-- Generator: Adobe Illustrator 22.0.1, SVG Export Plug-In . SVG Version: 6.00 Build 0)  -->
<svg version="1.1" id="Layer_1" xmlns="http://www.w3.org/2000/svg" xmlns:xlink="http://www.w3.org/1999/xlink" x="0px" y="0px"
	 viewBox="0 0 1366 768" style="enable-background:new 0 0 1366 768;" xml:space="preserve">
<style type="text/css">
	.st0{fill:url(#SVGID_1_);}
	.st1{fill:url(#SVGID_2_);}
	.st2{fill:url(#SVGID_3_);}
	.st3{fill:#9B4D45;}
</style>
<linearGradient id="SVGID_1_" gradientUnits="userSpaceOnUse" x1="629.7001" y1="466.0479" x2="752" y2="466.0479">
	<stop  offset="0" style="stop-color:#57007F"/>
	<stop  offset="1" style="stop-color:#28002B"/>
</linearGradient>
<path class="st0" d="M636,495c2.2-11.3-1.3-38.6,4-65.1c1.9-9.8,18.2-37.2,18.2-37.2l18.2-37.2c0,0,8.2,13,22.5,26.5
	c7.9,7.4,22,18,31.3,41.4c4.4,11.2,4.8,55.4,8.9,66.7c3.3,9.1,9.8,31.4,9.8,31.4l0.3,0.4h-0.1h-0.1h-0.1H749
	c1.8,3.2,2.7,6.5,2.7,9.9c0,3.4,2.8,28.3-9.7,36.8c-8.8,4.7-24.1,5.6-36.3,6.4c-12.2,0.8-19,2.4-30.6,1.1c-11.7-1.3-17.3,1-27.1-2.1
	c-7-2.2-16-11-17-22C627.2,510.2,632.6,512.5,636,495z"/>
<linearGradient id="SVGID_2_" gradientUnits="userSpaceOnUse" x1="660.0309" y1="355" x2="690.0816" y2="355">
	<stop  offset="0" style="stop-color:#FFCFA5"/>
	<stop  offset="1" style="stop-color:#FFA418"/>
</linearGradient>
<path class="st1" d="M670.7,384.1l14-1.3c3.3-0.3,5.7-3.2,5.4-6.5l-4.1-45c-0.3-3.3-3.2-5.7-6.5-5.4l-14,1.3
	c-3.3,0.3-5.7,3.2-5.4,6.5l4.1,45C664.5,382,667.4,384.4,670.7,384.1z"/>
<linearGradient id="SVGID_3_" gradientUnits="userSpaceOnUse" x1="617.178" y1="294.5" x2="739.178" y2="294.5">
	<stop  offset="0" style="stop-color:#FFCFA5"/>
	<stop  offset="1" style="stop-color:#FFA418"/>
</linearGradient>
<circle class="st2" cx="671.7" cy="294.5" r="61"/>
<path class="st3" d="M692.9,198.7c-6.3,0.7-28-7.9-35.9-4.6c-7.9,3.3-2.2,18.5-9.7,23.8c-7.6,5.2-34.1-6.5-39.3,0
	c-5.2,6.5,11,31.3,10.1,38.4c-1.1,10.1,6.6,18.5,18.8,24.8c12.2,6.3,28.9,10.5,45.5,12.1c16.7,1.6,33.3,0.7,45.5-3.2
	c12.2-3.9,9.5-14,8.4-24.4s23.7-20.4,20.4-29.1c-3.3-8.7-24.3-13-29.1-19.4c-4.9-6.3-0.8-30.4-6.7-33.6
	C715.1,180.3,699.2,198,692.9,198.7z"/>
</svg>
