<?xml version="1.0" encoding="utf-8"?>
<!-- Generator: Adobe Illustrator 22.0.1, SVG Export Plug-In . SVG Version: 6.00 Build 0)  -->
<svg version="1.1" id="Layer_1" xmlns="http://www.w3.org/2000/svg" xmlns:xlink="http://www.w3.org/1999/xlink" x="0px" y="0px"
	 viewBox="0 0 1366 768" style="enable-background:new 0 0 1366 768;" xml:space="preserve">
<style type="text/css">
	.st0{fill:url(#SVGID_1_);}
	.st1{fill:url(#SVGID_2_);}
	.st2{fill:url(#SVGID_3_);}
	.st3{fill:#9B4D45;}
</style>
<linearGradient id="SVGID_1_" gradientUnits="userSpaceOnUse" x1="620.337" y1="445.0179" x2="757" y2="445.0179">
	<stop  offset="0" style="stop-color:#3FB6FF"/>
	<stop  offset="1" style="stop-color:#2800BF"/>
</linearGradient>
<path class="st0" d="M621,497.1h-0.2l0.6-1.7c0.3-1.1,0.8-2.2,1.2-3.3L675,351.9L752.3,480c0.8,1.1,1.5,2.3,2.1,3.5l0.9,1.5h-0.2
	c5.2,12.1,0,25.9-16,37c-25.4,17.7-68.7,21.4-96.5,8.3C625.4,522.2,618.1,509.7,621,497.1z"/>
<linearGradient id="SVGID_2_" gradientUnits="userSpaceOnUse" x1="660.0309" y1="355" x2="690.0816" y2="355">
	<stop  offset="0" style="stop-color:#FFCFA5"/>
	<stop  offset="1" style="stop-color:#FFA418"/>
</linearGradient>
<path class="st1" d="M670.7,384.1l14-1.3c3.3-0.3,5.7-3.2,5.4-6.5l-4.1-45c-0.3-3.3-3.2-5.7-6.5-5.4l-14,1.3
	c-3.3,0.3-5.7,3.2-5.4,6.5l4.1,45C664.5,382,667.4,384.4,670.7,384.1z"/>
<linearGradient id="SVGID_3_" gradientUnits="userSpaceOnUse" x1="617.178" y1="294.5" x2="739.178" y2="294.5">
	<stop  offset="0" style="stop-color:#FFCFA5"/>
	<stop  offset="1" style="stop-color:#FFA418"/>
</linearGradient>
<circle class="st2" cx="671.7" cy="294.5" r="61"/>
<path class="st3" d="M730.6,263.4C748,294.3,763.8,363.4,745,384c-26.7,29.3-142.8-121.7-108.3-141.2
	C671.3,223.4,713.3,232.6,730.6,263.4z"/>
</svg>
