<?xml version="1.0" encoding="utf-8"?>
<!-- Generator: Adobe Illustrator 22.0.1, SVG Export Plug-In . SVG Version: 6.00 Build 0)  -->
<svg version="1.1" id="Layer_1" xmlns="http://www.w3.org/2000/svg" xmlns:xlink="http://www.w3.org/1999/xlink" x="0px" y="0px"
	 viewBox="0 0 1366 768" style="enable-background:new 0 0 1366 768;" xml:space="preserve">
<style type="text/css">
	.st0{fill:url(#SVGID_1_);}
	.st1{fill:url(#SVGID_2_);}
	.st2{fill:url(#SVGID_3_);}
</style>
<linearGradient id="SVGID_1_" gradientUnits="userSpaceOnUse" x1="600.337" y1="444.0179" x2="737" y2="444.0179">
	<stop  offset="0" style="stop-color:#FFF64E"/>
	<stop  offset="1" style="stop-color:#28FFFF"/>
</linearGradient>
<path class="st0" d="M601,496.1h-0.2l0.6-1.7c0.3-1.1,0.8-2.2,1.2-3.3L655,350.9L732.3,479c0.8,1.1,1.5,2.3,2.1,3.5l0.9,1.5h-0.2
	c5.2,12.1,0,25.9-16,37c-25.4,17.7-68.7,21.4-96.5,8.3C605.4,521.2,598.1,508.7,601,496.1z"/>
<linearGradient id="SVGID_2_" gradientUnits="userSpaceOnUse" x1="640.0309" y1="354" x2="670.0816" y2="354">
	<stop  offset="0" style="stop-color:#945300"/>
	<stop  offset="1" style="stop-color:#945300"/>
</linearGradient>
<path class="st1" d="M650.7,383.1l14-1.3c3.3-0.3,5.7-3.2,5.4-6.5l-4.1-45c-0.3-3.3-3.2-5.7-6.5-5.4l-14,1.3
	c-3.3,0.3-5.7,3.2-5.4,6.5l4.1,45C644.5,381,647.4,383.4,650.7,383.1z"/>
<linearGradient id="SVGID_3_" gradientUnits="userSpaceOnUse" x1="597.178" y1="293.5" x2="719.178" y2="293.5">
	<stop  offset="0" style="stop-color:#945300"/>
	<stop  offset="1" style="stop-color:#947000"/>
</linearGradient>
<path class="st2" d="M590.7,293.5c0,33.7,27.3,61,61,61s61-27.3,61-61s-27.3-61-61-61S590.7,259.8,590.7,293.5"/>
<path d="M707.1,258.3c21.9,15.7,10.8,18.3,16.3,30.7c19.6,27,10,37.1,13.6,50s38,21,22,51c-11,23-38.3,12.4-46,13
	c-9.9,0.7-9,27-38,14c-18.1-4.9-26-53-23-95c-17.5-12.2-29-15-23-47c-5.7-14.6-33-7-17.1-30.2c11.1-11.8,17.1-9.2,26-11.3
	c10.1-7.5,18-2.5,26.6-1.2c15.5-2.3,16.8,4,24.1,8.4C701,241,702.2,250.9,707.1,258.3z"/>
</svg>
