<?xml version="1.0" encoding="utf-8"?>
<!-- Generator: Adobe Illustrator 22.0.1, SVG Export Plug-In . SVG Version: 6.00 Build 0)  -->
<svg version="1.1" id="Layer_1" xmlns="http://www.w3.org/2000/svg" xmlns:xlink="http://www.w3.org/1999/xlink" x="0px" y="0px"
	 viewBox="0 0 1366 768" style="enable-background:new 0 0 1366 768;" xml:space="preserve">
<style type="text/css">
	.st0{fill:url(#SVGID_1_);}
	.st1{fill:url(#SVGID_2_);}
	.st2{fill:url(#SVGID_3_);}
</style>
<g>
	<path d="M714.3,524.3c2.2,10.2,13.3,61.5,11.1,82.1c-0.8,7.3-3.5,12.7-7.4,15.5c-4,2.7-9.1,2.3-14.2-1.2
		c-10.6-7.1-17.3-24-15.8-39.4C690,560.6,710.2,530.2,714.3,524.3"/>
	<path d="M673.4,525.5c2.2,10.2,13.3,61.5,11.1,82.1c-0.8,7.3-3.5,12.7-7.4,15.5c-4,2.7-9.1,2.3-14.2-1.2
		c-10.6-7.1-17.3-24-15.8-39.4C649.1,561.8,669.3,531.4,673.4,525.5"/>
</g>
<linearGradient id="SVGID_1_" gradientUnits="userSpaceOnUse" x1="603.4654" y1="279.7581" x2="765.8899" y2="279.7581" gradientTransform="matrix(1 0 0 -1 0 768)">
	<stop  offset="0" style="stop-color:#FFF64E"/>
	<stop  offset="1" style="stop-color:#28FFFF"/>
</linearGradient>
<path class="st0" d="M604.2,551.1H604l0.7-2.1c0.4-1.3,1-2.7,1.4-4l62.3-169.1l91.9,154.5c1,1.3,1.8,2.8,2.5,4.2l1.1,1.8h-0.2
	c6.2,14.6,0,31.2-19,44.6c-30.2,21.3-81.7,25.8-114.7,10C609.4,581.3,600.8,566.3,604.2,551.1z"/>
<linearGradient id="SVGID_2_" gradientUnits="userSpaceOnUse" x1="650.5897" y1="388.3304" x2="686.3051" y2="388.3304" gradientTransform="matrix(1 0 0 -1 0 768)">
	<stop  offset="0" style="stop-color:#945300"/>
	<stop  offset="1" style="stop-color:#945300"/>
</linearGradient>
<path class="st1" d="M663.3,414.8l16.6-1.6c3.9-0.4,6.8-3.9,6.4-7.8l-4.9-54.3c-0.4-4-3.8-6.9-7.7-6.5l-16.6,1.6
	c-3.9,0.4-6.8,3.9-6.4,7.8l4.9,54.3C655.9,412.2,659.3,415.1,663.3,414.8z"/>
<linearGradient id="SVGID_3_" gradientUnits="userSpaceOnUse" x1="599.6589" y1="461.3006" x2="744.6564" y2="461.3006" gradientTransform="matrix(1 0 0 -1 0 768)">
	<stop  offset="0" style="stop-color:#945300"/>
	<stop  offset="1" style="stop-color:#947000"/>
</linearGradient>
<path class="st2" d="M592,306.7c0,40.6,32.4,73.6,72.5,73.6c40.1,0,72.5-32.9,72.5-73.6s-32.4-73.6-72.5-73.6
	C624.4,233.1,592,266.1,592,306.7"/>
<path d="M730.3,264.2c26,18.9,12.8,22.1,19.4,37c23.3,32.6,11.9,44.7,16.2,60.3c4.3,15.6,45.2,25.3,26.1,61.5
	c-13.1,27.7-45.5,15-54.7,15.7c-11.8,0.8-10.7,32.6-45.2,16.9c-21.5-5.9-30.9-63.9-27.3-114.6c-20.8-14.7-34.5-18.1-27.3-56.7
	c-6.8-17.6-39.2-8.4-20.3-36.4c13.2-14.2,20.3-11.1,30.9-13.6c12-9,21.4-3,31.6-1.4c18.4-2.8,20,4.8,28.6,10.1
	C723.1,243.4,724.5,255.3,730.3,264.2z"/>
</svg>
