<?xml version="1.0" encoding="utf-8"?>
<!-- Generator: Adobe Illustrator 22.0.1, SVG Export Plug-In . SVG Version: 6.00 Build 0)  -->
<svg version="1.1" id="Layer_1" xmlns="http://www.w3.org/2000/svg" xmlns:xlink="http://www.w3.org/1999/xlink" x="0px" y="0px"
	 viewBox="0 0 1366 768" style="enable-background:new 0 0 1366 768;" xml:space="preserve">
<style type="text/css">
	.st0{fill:url(#SVGID_1_);}
	.st1{fill:url(#SVGID_2_);}
	.st2{fill:url(#SVGID_3_);}
	.st3{fill:#9B4D45;}
	.st4{fill:url(#SVGID_4_);}
	.st5{fill:url(#SVGID_5_);}
	.st6{fill:url(#SVGID_6_);}
	.st7{fill:#472220;}
	.st8{fill:url(#SVGID_7_);}
	.st9{fill:url(#SVGID_8_);}
	.st10{fill:url(#SVGID_9_);}
</style>
<linearGradient id="SVGID_1_" gradientUnits="userSpaceOnUse" x1="387.337" y1="430.0179" x2="524" y2="430.0179">
	<stop  offset="0" style="stop-color:#3FB6FF"/>
	<stop  offset="1" style="stop-color:#2800BF"/>
</linearGradient>
<path class="st0" d="M388,482.1h-0.2l0.6-1.7c0.3-1.1,0.8-2.2,1.2-3.3L442,336.9L519.3,465c0.8,1.1,1.5,2.3,2.1,3.5l0.9,1.5h-0.2
	c5.2,12.1,0,25.9-16,37c-25.4,17.7-68.7,21.4-96.5,8.3C392.4,507.2,385.1,494.7,388,482.1z"/>
<linearGradient id="SVGID_2_" gradientUnits="userSpaceOnUse" x1="427.0309" y1="340" x2="457.0816" y2="340">
	<stop  offset="0" style="stop-color:#FFCFA5"/>
	<stop  offset="1" style="stop-color:#FFA418"/>
</linearGradient>
<path class="st1" d="M437.7,369.1l14-1.3c3.3-0.3,5.7-3.2,5.4-6.5l-4.1-45c-0.3-3.3-3.2-5.7-6.5-5.4l-14,1.3
	c-3.3,0.3-5.7,3.2-5.4,6.5l4.1,45C431.5,367,434.4,369.4,437.7,369.1z"/>
<linearGradient id="SVGID_3_" gradientUnits="userSpaceOnUse" x1="384.178" y1="279.5" x2="506.178" y2="279.5">
	<stop  offset="0" style="stop-color:#FFCFA5"/>
	<stop  offset="1" style="stop-color:#FFA418"/>
</linearGradient>
<circle class="st2" cx="438.7" cy="279.5" r="61"/>
<path class="st3" d="M497.6,248.4C515,279.3,530.8,348.4,512,369c-26.7,29.3-142.8-121.7-108.3-141.2S480.3,217.6,497.6,248.4z"/>
<linearGradient id="SVGID_4_" gradientUnits="userSpaceOnUse" x1="620.337" y1="445.0179" x2="757" y2="445.0179">
	<stop  offset="0" style="stop-color:#FF55B3"/>
	<stop  offset="1" style="stop-color:#FF5F2A"/>
</linearGradient>
<path class="st4" d="M621,497.1h-0.2l0.6-1.7c0.3-1.1,0.8-2.2,1.2-3.3L675,351.9L752.3,480c0.8,1.1,1.5,2.3,2.1,3.5l0.9,1.5h-0.2
	c5.2,12.1,0,25.9-16,37c-25.4,17.7-68.7,21.4-96.5,8.3C625.4,522.2,618.1,509.7,621,497.1z"/>
<linearGradient id="SVGID_5_" gradientUnits="userSpaceOnUse" x1="660.0309" y1="355" x2="690.0816" y2="355">
	<stop  offset="0" style="stop-color:#FFCFA5"/>
	<stop  offset="1" style="stop-color:#FFA418"/>
</linearGradient>
<path class="st5" d="M670.7,384.1l14-1.3c3.3-0.3,5.7-3.2,5.4-6.5l-4.1-45c-0.3-3.3-3.2-5.7-6.5-5.4l-14,1.3
	c-3.3,0.3-5.7,3.2-5.4,6.5l4.1,45C664.5,382,667.4,384.4,670.7,384.1z"/>
<linearGradient id="SVGID_6_" gradientUnits="userSpaceOnUse" x1="617.178" y1="294.5" x2="739.178" y2="294.5">
	<stop  offset="0" style="stop-color:#FFCFA5"/>
	<stop  offset="1" style="stop-color:#FFA418"/>
</linearGradient>
<circle class="st6" cx="671.7" cy="294.5" r="61"/>
<path class="st7" d="M730.6,263.4c8.7,15.4,20,45.5,25.3,71.8c5.3,26.3,4.6,48.7-10.9,48.7c-19.8,0-79.1,13.3-82-63
	c-33-27-43.5-68.5-26.3-78.2s36.4-12.3,53.4-8.5S722,248,730.6,263.4z"/>
<linearGradient id="SVGID_7_" gradientUnits="userSpaceOnUse" x1="842.337" y1="415.0179" x2="979" y2="415.0179">
	<stop  offset="0" style="stop-color:#FFF64E"/>
	<stop  offset="1" style="stop-color:#28FFFF"/>
</linearGradient>
<path class="st8" d="M843,467.1h-0.2l0.6-1.7c0.3-1.1,0.8-2.2,1.2-3.3L897,321.9L974.3,450c0.8,1.1,1.5,2.3,2.1,3.5l0.9,1.5h-0.2
	c5.2,12.1,0,25.9-16,37c-25.4,17.7-68.7,21.4-96.5,8.3C847.4,492.2,840.1,479.7,843,467.1z"/>
<linearGradient id="SVGID_8_" gradientUnits="userSpaceOnUse" x1="882.0309" y1="325" x2="912.0816" y2="325">
	<stop  offset="0" style="stop-color:#945300"/>
	<stop  offset="1" style="stop-color:#945300"/>
</linearGradient>
<path class="st9" d="M892.7,354.1l14-1.3c3.3-0.3,5.7-3.2,5.4-6.5l-4.1-45c-0.3-3.3-3.2-5.7-6.5-5.4l-14,1.3
	c-3.3,0.3-5.7,3.2-5.4,6.5l4.1,45C886.5,352,889.4,354.4,892.7,354.1z"/>
<linearGradient id="SVGID_9_" gradientUnits="userSpaceOnUse" x1="839.178" y1="264.5" x2="961.178" y2="264.5">
	<stop  offset="0" style="stop-color:#945300"/>
	<stop  offset="1" style="stop-color:#947000"/>
</linearGradient>
<circle class="st10" cx="893.7" cy="264.5" r="61"/>
<path d="M949.1,229.3c21.9,15.7,10.8,18.3,16.3,30.7c19.6,27,10,37.1,13.6,50s38,21,22,51c-11,23-38.3,12.4-46,13
	c-9.9,0.7-9,27-38,14c-18.1-4.9-26-53-23-95c-17.5-12.2-29-15-23-47c-5.7-14.6-33-7-17.1-30.2c11.1-11.8,17.1-9.2,26-11.3
	c10.1-7.5,18-2.5,26.6-1.2c15.5-2.3,16.8,4,24.1,8.4C943,212,944.2,221.9,949.1,229.3z"/>
</svg>
