<?xml version="1.0" encoding="utf-8"?>
<!-- Generator: Adobe Illustrator 22.0.1, SVG Export Plug-In . SVG Version: 6.00 Build 0)  -->
<svg version="1.1" id="Layer_1" xmlns="http://www.w3.org/2000/svg" xmlns:xlink="http://www.w3.org/1999/xlink" x="0px" y="0px"
	 viewBox="0 0 300 115" style="enable-background:new 0 0 300 115;" xml:space="preserve">
<style type="text/css">
	.st0{fill:#252525;}
	.st1{fill:#D34139;}
</style>
<g transform="translate(0.000000,115.000000) scale(0.100000,-0.100000)">
	<path id="node1" class="st0" d="M1189.8,1001.5c-69.7-12.9-75.6-15.8-151.4-80.3c-63.9-53.2-107.2-67.1-312.3-100.6
		c-79-13.1-426.6-72.6-439.2-77.8c-20.7-8.4,254.4,35.6,296.2,34.7c65.1-1.5,194.1,20.8,280.7,48.6c40.3,13.6,74.7,24.2,76.2,24.4
		c0.8,0.1-1.7-12.6-6.2-28.5c-15.4-51.1-1.8-55.8,16.8-5.2c17,43.5,21.1,48.6,51.6,59.6c18.6,6.6,58.3,33.3,88,58.9l53.7,46.7
		l117.4,7.9c154.3,9.5,205.8-2,278.8-62.9c26.4-22.7,48.2-38.9,47.9-35.8c-0.2,2.3-12.2,20.3-26.7,39.7l-26.2,35.1l37.1-6.9
		c30.8-6,52.3-4.5,141.5,13.6c90.8,18.2,119.1,21.2,202,19.3c120-1.9,137-9.3,146.3-67c8.3-48.6-1.6-72-41.3-97.9
		c-52.1-33.4-85.3-40.8-208.6-43.9c-126.4-3.5-119.2-5.8-177.9,52.1c-11.2,10.4-22,17.7-24,15.2c-5.4-7.5,16.8-34.5,62.9-75.2
		c23.9-21.4,53.3-50.7,65-65.7l20.7-27.2l-18.9-25.2c-10.2-13.5-22.8-24.9-28.2-25.4c-4.6-0.5-12.5-6-16.4-12.6
		c-10.1-14.2-42.9-25.4-50-16.2c-3.5,4.3-20.7,12.5-39,18.2l-32.9,11.2l61,7.3l61,7.3l-43.2,6.2c-69,9.6-195.3,40.9-234.3,59.2
		c-19.5,8.7-46.1,26.8-59.1,40c-12.2,13.4-24.9,23.6-27.1,22.6c-3-1.1-40.8,5.7-84.2,14.2c-42.7,9.3-88.9,14.5-101.9,13.1
		c-19-2.8-17.3-4.2,12.4-7.2c64.9-7,120.3-26.5,193.5-68.2c39.5-22.1,99.8-51.9,132.9-64.6c33.1-13.5,58.4-26.2,56.4-28.7
		c-2.1-1.8,18.4-12.7,45.6-22.2c41.9-16.4,49.5-21.8,51.4-40.1c1.2-11.5-3.6-31.3-10.6-45.2c-7.1-13.1-12.3-29.1-11.7-35.3
		c1.8-16.8,33.2,22.1,44.4,55c16.1,45,41.8,57,138.7,62c103.8,4.9,117.4,0.2,82.5-26.7c-30.6-24.1-45-56.6-40.4-91.6l3.5-25.1
		l7.9,34.1c13.8,58.7,64.4,91.9,176.8,117.1c34,7.5,59,19.4,86.9,40.2c21.4,17,54.1,35.9,71.9,43.2c25.2,10.4,45.6,28.8,81.6,75.2
		c47.7,60,95.5,96.8,130.6,101.3c9.9,1.1,29.3-6.9,42.9-18.6l25.3-19.7l52.2,39.6c58.6,44.9,90.1,53.7,117.1,31.8
		c10.1-8.2,18-23.6,19.4-37.3c2.2-20.6-6.3-35.4-51.5-89c-29.4-35.6-58.4-75-64.9-87.3c-6.3-13-31.3-39.7-54.7-59.2
		c-24.1-20.4-58.4-53.4-76.4-73.1c-17.9-20.5-45-41.9-60.5-49c-14.8-6.2-42.1-25.4-60.4-42s-53.6-40.5-79.2-54.1
		c-25.6-13.6-57.7-30.9-71.5-39.3s-64.6-24.7-112.2-35.2c-79.2-18.5-93.2-24.6-159-67.2c-89.7-57.5-114.7-61.7-212.9-32.8
		c-122,35.6-252.5,55.7-345.7,52.7c-93.9-3.9-134.4-0.5-198.9,17.4c-57.2,14.7-153.3,9.9-284.4-14.2
		c-92.4-17.6-169.3-52.8-179.5-56.3c-39.1-13.5-304-96.2-294.2-108.3c21-23.3,331.2,58.9,434.9,93.2c26.9,8.3,88.7,23.4,137.9,33.3
		c87,17,92.5,16.8,219.7,4.9c71.8-6.2,159.6-10.8,195.8-10c70.1,2.1,138.6-9.9,281-48c117.8-32.2,156.1-28.9,222.2,17.6
		c25.1,18.1,55,42.2,66.2,53.4c10.4,11.2,27.1,21.4,37,22.5c31.3,3.3,190.2,56.7,216.4,71.8c13.8,8.4,44.7,22.6,69.2,32.1
		c24.4,10.3,81.3,35,125.4,55.9c133.1,62.9,175.2,81.3,206.4,93.2c84.8,30.7,106,42.2,137.9,76.6c19.4,20.6,58,50.3,85.6,67.1
		c48.7,28.4,51.5,31.8,51.1,57.2c-1.2,54.7-42.5,79.7-115.9,71.8c-35.1-4.5-49.1-10.7-77.5-33.8l-34.1-28.4l32.8,39.8
		c37.6,45.8,42.2,67.9,22.8,97.5c-28.7,44.1-82.5,41.4-158.4-7.7l-40.5-26l-18,16.6c-39.4,36-101,5.4-186.4-92.6l-54.3-63l-117-11.7
		c-63.5-6-145.7-10.9-181.3-10.1c-35.6,0.8-79.4-1.5-97.4-6.6c-29.4-7-33.4-5.9-54.3,16.6c-12.2,12.6-22.8,25.4-23.1,27.7
		s52.6,7.2,117,11.7c142.7,9.8,171.1,19.1,211.9,70.6c28.7,34.8,29.3,37.1,23.9,86.8c-4.7,44.3-7.9,52.5-28.5,71.1
		c-13.6,11.7-38.1,23.7-55.4,26.5c-18.1,2.7-117.9-3.3-234.1-15c-216.4-21.6-214.9-21.4-333.6,12.2
		C1378.1,1025.5,1302.7,1022.8,1189.8,1001.5z M2795.2,796.8c32.2-33.7,27.8-50.4-23.8-81.4c-25.4-15.1-66-47.2-90.4-72.3
		c-24.5-24.3-49.3-44.7-54.7-45.3c-12.2-1.3-248.3-106.1-284-126.2c-15.3-8.6-27.9-13.8-28.1-12.3c-0.2,1.5,28.9,26.3,65.2,54.9
		c35.6,28.5,71.5,61,78.9,71.8c8.1,10.9,32,33.6,54.1,50.6c26.5,19.8,49.2,46.2,64.5,75.7c13.6,24.6,29.1,45.6,34.5,46.2
		c4.6,0.5,26.6,11.3,48.4,24.5c25.4,15.1,52.2,24.9,78.2,27.7C2771.6,814.3,2780.4,812.2,2795.2,796.8z M1899.3,690.2
		c46.6-2,57.7-4.7,78.3-24.1c19.9-19.5,23-20,21.6-7c-0.9,8.4-5.9,18.7-11.8,23.5c-7.6,6.1,10.5,10.4,80.8,17.9l91.7,9.8l-38-27.3
		c-22.3-15.5-55.5-29.9-81.2-35.7c-23.4-5.6-60.1-16.5-81.6-25c-35.5-14.6-39.4-15-65.4-2.4c-21.9,10-39.8,11.2-94.8,5.3
		c-77.2-8.3-80.2-1.6-14.4,41C1826.4,692.4,1824.9,692.2,1899.3,690.2z"/>
	<path id="node2" class="st0" d="M1101.2,890.7c0.4-3.8,6.9-7,14.6-6.2c26.1,2,78.7-20.9,145.9-64c79.7-51.8,90-46.8,14.7,7
		C1199.4,882.7,1098.2,919,1101.2,890.7z"/>
	<path id="node3" class="st0" d="M1781.5,931.8c4.6-14.2,11.6-50.5,15.5-80.3c5.7-53.5,11.6-65.2,21-44.9
		c11.4,23.6-16.9,136.5-37.2,145.9C1774.3,955.8,1774.1,950.3,1781.5,931.8z"/>
	<path id="node4" class="st1" d="M637.9,344.3c5-8.7-21.3,127-30.9,203.2c-8.7,74.8,8.7,197.4,3.8,199.9
		C600.9,752.3,626,365.2,637.9,344.3z"/>
	<path id="node6" class="st0" d="M2417.3,781.9c-21.4-23.9-43.4-56.4-48.8-70.9c-13.1-36.2-56.2-88.7-93.8-112.8
		c-17.4-11.1-53.2-44.3-80.9-74.3c-35.4-37.8-58.9-56.5-78.3-62.5c-15.7-4.8-36.5-13.2-46.6-19.7s-56.6-26.9-103.3-45.8
		c-46.7-18.9-114.3-50.9-150.1-70.9c-74.3-42-87.2-44.9-150.8-34.7c-35.4,6.3-54.7,5.7-77.1-2.1L1557,278l43.5-9.3
		c25.3-5.8,78.8-7,126.4-4.3l83,4.2l36.8,31.8c44.6,38,59.2,45.7,125.3,64.4c28.5,8.5,70.8,24.6,92.6,37
		c22.7,11.7,56.4,29.2,75.4,39c19.1,9,54.1,35.9,78.6,60.2c24.5,23.5,65.2,62.6,90.5,86.2c38.7,35.8,50.7,53.3,66.8,97.6
		c11.4,30.6,26.7,60.8,34.5,67.8c33.1,29.8,68.3,76.9,57.6,75.7C2461.9,827.6,2438.6,806.6,2417.3,781.9z"/>
	<path id="node4_1_" class="st1" d="M714.1,609.7c-4.8,8.8-3.4-32.8,4.7-109.2c71.2-143.2,50-161.6,20.6-127.6
		C732.1,381.2,725.6,588.5,714.1,609.7z"/>
</g>
<g transform="translate(0.000000,115.000000) scale(0.100000,-0.100000)">
</g>
</svg>
