<?xml version="1.0" encoding="utf-8"?>
<!-- Generator: Adobe Illustrator 22.0.1, SVG Export Plug-In . SVG Version: 6.00 Build 0)  -->
<svg version="1.1" id="Layer_1" xmlns="http://www.w3.org/2000/svg" xmlns:xlink="http://www.w3.org/1999/xlink" x="0px" y="0px"
	 viewBox="0 0 1366 768" style="enable-background:new 0 0 1366 768;" xml:space="preserve">
<style type="text/css">
	.st0{fill:none;stroke:#000000;}
</style>
<g>
	<path class="st0" d="M329.7,216.1c-30,6.7-48.2,36.2-41.6,65.7c13.6,60.4,77.9,62.4,132.4,112.6c26.1-67.9,85-100.3,72-158.5
		c-6.6-29.5-36.2-48.2-65.7-41.6c-21.5,4.8-37.4,21.6-41.8,41.8C372.3,219.7,351.1,211.3,329.7,216.1z"/>
</g>
<g>
	<path class="st0" d="M521.7,164.7c-35.9-4.6-68.1,20.7-72.6,56.1c-9.3,72.4,61.2,100.5,101.4,178.2c56.3-64.7,134.7-77,143.6-146.7
		c4.5-35.4-20.7-68.1-56.1-72.6c-25.7-3.3-50.2,8.8-63.2,29.5C567.5,185.8,547.4,168,521.7,164.7z"/>
</g>
<g>
	<path class="st0" d="M662,251.6c-30.1,2.7-51.8,29-49.2,58.7c5.3,60.7,67.8,71,114.4,127.1c34.3-62.8,96-86.8,90.9-145.2
		c-2.6-29.7-29-51.8-58.7-49.2c-21.6,1.9-39.3,16.1-46.2,35.3C703.1,260.7,683.6,249.7,662,251.6z"/>
</g>
<g>
	<path class="st0" d="M270.5,282.1c-30.7-1.8-56.4,21.4-58.2,51.6c-3.7,61.8,57.6,81.5,96.1,144.8c43.8-58,109.5-72.9,113-132.4
		c1.8-30.2-21.4-56.4-51.6-58.2c-22-1.3-41.9,10.4-51.7,28.6C310.5,297.3,292.5,283.4,270.5,282.1z"/>
</g>
</svg>
