<?xml version="1.0" encoding="utf-8"?>
<!-- Generator: Adobe Illustrator 22.0.1, SVG Export Plug-In . SVG Version: 6.00 Build 0)  -->
<svg version="1.1" id="Layer_1" xmlns="http://www.w3.org/2000/svg" xmlns:xlink="http://www.w3.org/1999/xlink" x="0px" y="0px"
	 viewBox="0 0 1366 768" style="enable-background:new 0 0 1366 768;" xml:space="preserve">
<style type="text/css">
	.st0{fill:#FFFFFF;}
</style>
<g>
	<path class="st0" d="M284.1,649.8c-3.2,0-5.8-2.6-5.8-5.8V156.1c0-3.2,2.6-5.8,5.8-5.8s5.8,2.6,5.8,5.8v487.8
		C289.9,647.1,287.3,649.8,284.1,649.8z"/>
	<path d="M284.1,150.5c3.1,0,5.6,2.5,5.6,5.6v487.8c0,3.1-2.5,5.6-5.6,5.6c-3.1,0-5.6-2.5-5.6-5.6V156.1
		C278.5,153,281,150.5,284.1,150.5 M284.1,150c-3.3,0-6.1,2.7-6.1,6.1v487.8c0,3.3,2.7,6.1,6.1,6.1s6.1-2.7,6.1-6.1V156.1
		C290.2,152.7,287.4,150,284.1,150L284.1,150z"/>
</g>
<g>
	<path class="st0" d="M379.9,649.8c-3.2,0-5.8-2.6-5.8-5.8V156.1c0-3.2,2.6-5.8,5.8-5.8s5.8,2.6,5.8,5.8v487.8
		C385.8,647.1,383.1,649.8,379.9,649.8z"/>
	<path d="M379.9,150.5c3.1,0,5.6,2.5,5.6,5.6v487.8c0,3.1-2.5,5.6-5.6,5.6c-3.1,0-5.6-2.5-5.6-5.6V156.1
		C374.3,153,376.8,150.5,379.9,150.5 M379.9,150c-3.3,0-6.1,2.7-6.1,6.1v487.8c0,3.3,2.7,6.1,6.1,6.1s6.1-2.7,6.1-6.1V156.1
		C386,152.7,383.3,150,379.9,150L379.9,150z"/>
</g>
<g>
	<path class="st0" d="M292,229.8c-4,0-7.3-3.3-7.3-7.3s3.3-7.3,7.3-7.3h82.4c4,0,7.3,3.3,7.3,7.3s-3.3,7.3-7.3,7.3H292z"/>
	<path d="M374.4,215.5c3.9,0,7,3.1,7,7s-3.1,7-7,7H292c-3.9,0-7-3.1-7-7s3.1-7,7-7H374.4 M374.4,215H292c-4.1,0-7.5,3.4-7.5,7.5
		s3.4,7.5,7.5,7.5h82.4c4.1,0,7.5-3.4,7.5-7.5S378.6,215,374.4,215L374.4,215z"/>
</g>
<g>
	<path class="st0" d="M292,305.8c-4,0-7.3-3.3-7.3-7.3s3.3-7.3,7.3-7.3h82.4c4,0,7.3,3.3,7.3,7.3s-3.3,7.3-7.3,7.3H292z"/>
	<path d="M374.4,291.5c3.9,0,7,3.1,7,7s-3.1,7-7,7H292c-3.9,0-7-3.1-7-7s3.1-7,7-7H374.4 M374.4,291H292c-4.1,0-7.5,3.4-7.5,7.5
		s3.4,7.5,7.5,7.5h82.4c4.1,0,7.5-3.4,7.5-7.5S378.6,291,374.4,291L374.4,291z"/>
</g>
<g>
	<path class="st0" d="M292,381.8c-4,0-7.3-3.3-7.3-7.3s3.3-7.3,7.3-7.3h82.4c4,0,7.3,3.3,7.3,7.3s-3.3,7.3-7.3,7.3H292z"/>
	<path d="M374.4,367.5c3.9,0,7,3.1,7,7s-3.1,7-7,7H292c-3.9,0-7-3.1-7-7s3.1-7,7-7H374.4 M374.4,367H292c-4.1,0-7.5,3.4-7.5,7.5
		s3.4,7.5,7.5,7.5h82.4c4.1,0,7.5-3.4,7.5-7.5S378.6,367,374.4,367L374.4,367z"/>
</g>
<g>
	<path class="st0" d="M292,457.8c-4,0-7.3-3.3-7.3-7.3s3.3-7.3,7.3-7.3h82.4c4,0,7.3,3.3,7.3,7.3s-3.3,7.3-7.3,7.3H292z"/>
	<path d="M374.4,443.5c3.9,0,7,3.1,7,7s-3.1,7-7,7H292c-3.9,0-7-3.1-7-7s3.1-7,7-7H374.4 M374.4,443H292c-4.1,0-7.5,3.4-7.5,7.5
		s3.4,7.5,7.5,7.5h82.4c4.1,0,7.5-3.4,7.5-7.5S378.6,443,374.4,443L374.4,443z"/>
</g>
<g>
	<path class="st0" d="M292,533.8c-4,0-7.3-3.3-7.3-7.3s3.3-7.3,7.3-7.3h82.4c4,0,7.3,3.3,7.3,7.3s-3.3,7.3-7.3,7.3H292z"/>
	<path d="M374.4,519.5c3.9,0,7,3.1,7,7s-3.1,7-7,7H292c-3.9,0-7-3.1-7-7s3.1-7,7-7H374.4 M374.4,519H292c-4.1,0-7.5,3.4-7.5,7.5
		s3.4,7.5,7.5,7.5h82.4c4.1,0,7.5-3.4,7.5-7.5S378.6,519,374.4,519L374.4,519z"/>
</g>
<g>
	<path class="st0" d="M292,609.8c-4,0-7.3-3.3-7.3-7.3s3.3-7.3,7.3-7.3h82.4c4,0,7.3,3.3,7.3,7.3s-3.3,7.3-7.3,7.3H292z"/>
	<path d="M374.4,595.5c3.9,0,7,3.1,7,7s-3.1,7-7,7H292c-3.9,0-7-3.1-7-7s3.1-7,7-7H374.4 M374.4,595H292c-4.1,0-7.5,3.4-7.5,7.5
		s3.4,7.5,7.5,7.5h82.4c4.1,0,7.5-3.4,7.5-7.5S378.6,595,374.4,595L374.4,595z"/>
</g>
</svg>
