<?xml version="1.0" encoding="utf-8"?>
<!-- Generator: Adobe Illustrator 22.0.1, SVG Export Plug-In . SVG Version: 6.00 Build 0)  -->
<svg version="1.1" id="Layer_1" xmlns="http://www.w3.org/2000/svg" xmlns:xlink="http://www.w3.org/1999/xlink" x="0px" y="0px"
	 viewBox="0 0 1366 768" style="enable-background:new 0 0 1366 768;" xml:space="preserve">
<style type="text/css">
	.st0{fill:#FFFFFF;}
	.st1{fill:none;stroke:#000000;stroke-miterlimit:10;}
</style>
<g>
	
		<rect x="515.5" y="81.5" transform="matrix(0.9396 -0.3422 0.3422 0.9396 -20.0929 243.0936)" class="st0" width="327" height="194"/>
	<path d="M799.1,32.1l66,181.4L558.9,324.9l-66-181.4L799.1,32.1 M799.7,30.8L491.5,143l66.7,183.2L866.5,214L799.7,30.8L799.7,30.8
		z"/>
</g>
<g>
	<polygon class="st0" points="493.5,142.8 798.1,31.9 677.6,174.7 	"/>
	<path d="M796.6,33L677.4,174.1l-182-31.5L796.6,33 M799.7,30.8L491.5,143l186.3,32.2L799.7,30.8L799.7,30.8z"/>
</g>
<g>
	<path class="st1" d="M113.5,584.5c0,0,7.5-46.1,19-55c30-23,74.3,3.6,88-14c12.1-15.5-6-66.6,10-78c15.1-10.7,60.6,12.8,74,0
		c11.1-10.7,5.8-47,14-60c19-30,66-4.6,81-19c23-22-4.5-61.5,7-77c11.4-15.4,89-24,89-24"/>
</g>
<g>
	<g>
		<path d="M32.4,462.2C39.5,449,47.3,436,56.3,424c5.5-7.3,11.3-14.5,20.5-16.9c10.9-2.8,22.6-2.4,33.7-2.9
			c10-0.4,20.9-0.5,30.3-4.4c7.6-3.1,11.6-10.1,15.1-17.2c5-9.9,8.7-20.4,14.4-29.9c2.5-4.1,5.4-8.2,9.8-10.4
			c4.4-2.2,9.6-2.9,14.5-3.4c11.5-1.2,23-0.7,34.5-1c9.1-0.3,19.3-0.5,27.7-4.6c7.4-3.7,11.7-11.9,15.4-18.9
			c5.3-10.1,9.7-20.7,15.6-30.4c2.5-4.2,5.4-8.4,9.2-11.5c3.9-3.1,8.6-4,13.5-4.4c11.3-0.9,22.7,0.6,33.9,1.2
			c8.8,0.5,19.4,1.4,27.6-2.5c7.8-3.7,12.8-12.6,17.1-19.7c6-9.9,11.1-20.4,17.8-29.8c5.7-8,11.6-12.6,21.3-14.5
			c17.9-3.5,36.9-3.1,55.1-2.5c1.4,0,2.8,0.1,4.1,0.1c0.5,0,0.5-0.7,0-0.8c-15-0.7-30.1-0.6-45.1,0.6c-7.8,0.6-16.5,1.2-23.6,4.5
			c-7.9,3.7-13.1,12.5-17.4,19.7c-6.1,10-11.2,20.7-18,30.3c-2.8,4-6.2,8.3-10.5,10.8c-4.4,2.5-9.9,2.9-14.9,3.1
			c-11.5,0.5-23.1-1.1-34.6-1.5c-8.2-0.3-18.5-1.1-25.6,3.9c-7.4,5.2-11.9,14.6-15.9,22.4c-5,9.9-9.3,20.3-15.5,29.6
			c-6.3,9.3-14.7,12.1-25.5,13.3c-11.7,1.2-23.6,0.7-35.4,1.1c-8.5,0.3-19,0.2-26.6,4.8c-7.6,4.5-11.6,14.6-15.2,22.2
			c-4.5,9.7-8.2,21-15.2,29.2c-6.7,7.8-18.7,8.6-28.3,9.3c-11.7,0.9-23.4,0.6-35.1,2c-7.7,0.9-14.5,2.6-20.2,8.1
			c-13,12.4-22.2,29.4-30.9,44.9c-0.7,1.3-1.4,2.6-2.1,3.9C31.5,462.3,32.2,462.7,32.4,462.2L32.4,462.2z"/>
	</g>
</g>
<path class="st1" d="M263.7,646.1c0,0,32.1-48.7,35.1-58c4.9-15.2,7.4-47.5,16.1-61.5c9.6-15.4,75-25.5,84.7-40.9
	c9.6-15.4-1.4-42.5,9.7-56.8c9.7-12.4,42.8-14.3,50.2-28.2c6.1-11.7,0.9-35.3,1.6-47.1c2.2-40.5,56-43.1,56-43.1"/>
</svg>
