<?xml version="1.0" encoding="utf-8"?>
<!-- Generator: Adobe Illustrator 22.0.1, SVG Export Plug-In . SVG Version: 6.00 Build 0)  -->
<svg version="1.1" id="Layer_1" xmlns="http://www.w3.org/2000/svg" xmlns:xlink="http://www.w3.org/1999/xlink" x="0px" y="0px"
	 viewBox="0 0 1366 768" style="enable-background:new 0 0 1366 768;" xml:space="preserve">
<style type="text/css">
	.st0{fill:#DCDEE2;}
	.st1{fill:#013A3E;}
	.st2{fill:#BDC3C7;}
	.st3{fill:#FFF933;}
</style>
<circle class="st0" cx="683" cy="384" r="153.5"/>
<circle class="st1" cx="668.8" cy="482.3" r="17.3"/>
<circle class="st1" cx="614.8" cy="332.3" r="23.3"/>
<circle class="st1" cx="744.5" cy="339.5" r="30"/>
<circle class="st2" cx="747.5" cy="340.5" r="27"/>
<circle class="st1" cx="774.5" cy="456.5" r="8"/>
<circle class="st2" cx="670.5" cy="482.8" r="15.5"/>
<circle class="st2" cx="617.1" cy="333" r="20.9"/>
<circle class="st1" cx="666.5" cy="391.5" r="8"/>
<polygon class="st3" points="483,139.8 474.6,134.1 465.2,137.7 468,128 461.6,120.2 471.8,119.9 477.3,111.4 480.7,120.9 
	490.4,123.5 482.4,129.7 "/>
<polygon class="st3" points="396,355.1 381,350.9 369.1,360.9 368.4,345.4 355.2,337.1 369.8,331.7 373.5,316.6 383.2,328.8 
	398.7,327.7 390.1,340.7 "/>
<polygon class="st3" points="512.5,640.8 503.2,641.5 498.4,649.5 495,640.8 485.9,638.8 493,632.8 492.1,623.6 500,628.5 
	508.6,624.8 506.3,633.8 "/>
<polygon class="st3" points="888.3,608.9 876.6,625.5 883.6,644.5 864.3,638.5 848.4,651 848.1,630.8 831.3,619.5 850.4,613 
	855.9,593.5 868.1,609.7 "/>
<polygon class="st3" points="1028.9,301.3 993.6,292.6 966.4,316.8 963.8,280.5 932.4,262.1 966,248.4 973.8,212.8 997.3,240.6 
	1033.5,237 1014.3,267.9 "/>
<polygon class="st3" points="834.4,125.4 818.4,116 801.5,123.9 805.5,105.7 792.7,92.1 811.3,90.3 820.3,74 827.8,91 846,94.6 
	832.1,106.9 "/>
<polygon class="st3" points="270.8,533.7 260.3,527.2 249.1,532.1 252,520.2 243.9,511 256.1,510.1 262.3,499.6 267,510.9 
	279,513.6 269.6,521.5 "/>
</svg>
