<?xml version="1.0" encoding="utf-8"?>
<!-- Generator: Adobe Illustrator 22.0.1, SVG Export Plug-In . SVG Version: 6.00 Build 0)  -->
<svg version="1.1" id="Layer_1" xmlns="http://www.w3.org/2000/svg" xmlns:xlink="http://www.w3.org/1999/xlink" x="0px" y="0px"
	 viewBox="0 0 1366 768" style="enable-background:new 0 0 1366 768;" xml:space="preserve">
<style type="text/css">
	.st0{fill:#FFFFFF;stroke:#000000;stroke-width:0.75;stroke-miterlimit:10;}
	.st1{stroke:#000000;stroke-width:0.5;stroke-miterlimit:10;}
</style>
<circle class="st0" cx="507" cy="345" r="102.5"/>
<circle class="st1" cx="485" cy="344.5" r="6"/>
<circle class="st1" cx="528.5" cy="344.5" r="6"/>
<g>
	<g>
		<path d="M480.2,318.8c4.3,3.7,8.7,7.3,13,11c0.4,0.3,0.9-0.2,0.5-0.5c-4.3-3.7-8.7-7.3-13-11C480.4,317.9,479.9,318.5,480.2,318.8
			L480.2,318.8z"/>
	</g>
</g>
<g>
	<g>
		<path d="M528.2,318.2c-4.3,3.7-8.7,7.3-13,11c-0.4,0.3,0.2,0.8,0.5,0.5c4.3-3.7,8.7-7.3,13-11
			C529.1,318.5,528.6,317.9,528.2,318.2L528.2,318.2z"/>
	</g>
</g>
<path class="st0" d="M418.8,428.1c0,0-64.9-188.4,66.8-218c0,0,150.6-18.5,144.9,188.8c0,0-86.1-31.9-151.4-131
	c0,0-93,65-39.3,212.8L418.8,428.1z"/>
<g>
	<g>
		<path d="M470.2,406.3c9.8-7.2,18.9-2,29,1.1c7.9,2.5,15.6,3.1,23-1.1c0.4-0.2,0-0.9-0.4-0.6c-10.7,6.2-21.6,1.4-32.1-2.5
			c-6.9-2.5-13.9-1.9-19.9,2.5C469.4,406,469.8,406.6,470.2,406.3L470.2,406.3z"/>
	</g>
</g>
</svg>
