<?xml version="1.0" encoding="utf-8"?>
<!-- Generator: Adobe Illustrator 22.0.1, SVG Export Plug-In . SVG Version: 6.00 Build 0)  -->
<svg version="1.1" id="Layer_1" xmlns="http://www.w3.org/2000/svg" xmlns:xlink="http://www.w3.org/1999/xlink" x="0px" y="0px"
	 viewBox="0 0 1366 768" style="enable-background:new 0 0 1366 768;" xml:space="preserve">
<style type="text/css">
	.st0{fill:#E74C3C;stroke:#E74C3C;stroke-miterlimit:10;}
	.st1{fill:#E67E22;}
	.st2{fill:#F1C40F;}
	.st3{fill:#1ABC9C;}
	.st4{fill:#4BAAE0;}
	.st5{fill:#2980B9;}
	.st6{fill:#9B59B6;}
</style>
<path class="st0" d="M641,229c-102.6,0-186,83.4-186,186h12.5c0-95.7,77.8-173.5,173.5-173.5c95.7,0,173.5,77.8,173.5,173.5H827
	C827,312.4,743.6,229,641,229z"/>
<path class="st1" d="M641,237.7c-97.7,0-177.3,79.5-177.3,177.3h12.5c0-90.9,73.9-164.8,164.8-164.8S805.8,324.1,805.8,415h12.5
	C818.3,317.3,738.7,237.7,641,237.7z"/>
<path class="st2" d="M641,247.1c-92.6,0-167.9,75.3-167.9,167.9h12.5c0-85.7,69.7-155.4,155.4-155.4c85.7,0,155.4,69.7,155.4,155.4
	h12.5C808.9,322.4,733.6,247.1,641,247.1z"/>
<path class="st3" d="M641,257.1c-87.1,0-157.9,70.8-157.9,157.9h12.5c0-80.2,65.2-145.4,145.4-145.4S786.4,334.8,786.4,415h12.5
	C798.9,327.9,728.1,257.1,641,257.1z"/>
<path class="st4" d="M641,267.7c-81.2,0-147.3,66.1-147.3,147.3h12.5c0-74.3,60.5-134.8,134.8-134.8c74.3,0,134.8,60.5,134.8,134.8
	h12.5C788.3,333.8,722.2,267.7,641,267.7z"/>
<path class="st5" d="M641,278.9c-75,0-136.1,61-136.1,136.1h12.5c0-68.1,55.4-123.6,123.6-123.6S764.6,346.9,764.6,415h12.5
	C777.1,340,716,278.9,641,278.9z"/>
<path class="st6" d="M728.8,327.2c-11.4-11.4-24.7-20.4-39.5-26.6c-15.3-6.5-31.6-9.8-48.4-9.8s-33,3.3-48.4,9.8
	c-14.8,6.3-28.1,15.2-39.5,26.6c-11.4,11.4-20.4,24.7-26.6,39.5c-6.5,15.3-9.8,31.6-9.8,48.4h12.5c0-61.7,50-111.7,111.7-111.7
	s111.7,50,111.7,111.7h12.5c0-16.8-3.3-33-9.8-48.4C749.2,351.9,740.2,338.6,728.8,327.2z"/>
</svg>
