<?xml version="1.0" encoding="utf-8"?>
<!-- Generator: Adobe Illustrator 22.0.1, SVG Export Plug-In . SVG Version: 6.00 Build 0)  -->
<svg version="1.1" id="Layer_1" xmlns="http://www.w3.org/2000/svg" xmlns:xlink="http://www.w3.org/1999/xlink" x="0px" y="0px"
	 viewBox="0 0 1366 768" style="enable-background:new 0 0 1366 768;" xml:space="preserve">
<style type="text/css">
	.st0{fill:url(#SVGID_1_);}
	.st1{fill:#C49D94;}
	.st2{fill:url(#SVGID_2_);}
	.st3{fill:#E8DA89;stroke:#FFB600;stroke-miterlimit:10;}
</style>
<linearGradient id="SVGID_1_" gradientUnits="userSpaceOnUse" x1="616.9688" y1="421.6768" x2="753.9694" y2="421.6768" gradientTransform="matrix(0.9959 9.009346e-02 -9.009346e-02 0.9959 33.1617 -62.021)">
	<stop  offset="0" style="stop-color:#6E607F"/>
	<stop  offset="0.5" style="stop-color:#907AA5"/>
	<stop  offset="1" style="stop-color:#6E607F"/>
</linearGradient>
<path class="st0" d="M740.7,472.1l0.2,0l-0.6-1.7c-0.3-1.1-0.8-2.2-1.2-3.3l-52.4-140.2L609.4,455c-0.8,1.1-1.5,2.3-2.1,3.5
	l-0.9,1.5l0.2,0c-5.2,12.1,0,25.9,16,37c25.4,17.7,68.7,21.4,96.5,8.3C736.3,497.2,743.6,484.7,740.7,472.1z"/>
<path class="st1" d="M691,359.1l-14-1.3c-3.3-0.3-5.7-3.2-5.4-6.5l4.1-45c0.3-3.3,3.2-5.7,6.5-5.4l14,1.3c3.3,0.3,5.7,3.2,5.4,6.5
	l-4.1,45C697.2,357,694.3,359.4,691,359.1z"/>
<linearGradient id="SVGID_2_" gradientUnits="userSpaceOnUse" x1="622" y1="270" x2="744" y2="270" gradientTransform="matrix(0.9959 9.022169e-02 -9.022169e-02 0.9959 34.1028 -61.0635)">
	<stop  offset="0" style="stop-color:#6E607F"/>
	<stop  offset="0.5" style="stop-color:#907AA5"/>
	<stop  offset="1" style="stop-color:#6E607F"/>
</linearGradient>
<circle class="st2" cx="690" cy="269.5" r="61"/>
<path class="st3" d="M709.6,180.3c-16.5-1.2-31.7,4.5-42.8,14.4c-3.7-3-8.6-4.7-14.2-4.2c-13.3,1.1-26.8,8.6-35.8,21.4
	c-8.7,12.4-7.6,36.5-5.4,53.5c-7.7,7-13.4,17-15.5,28.7c-2,11.4,4,26.6,11.1,39.7c-9,6.7-16,17-18.8,29.6
	c-2.7,11.8,3.4,28.3,10.3,42.1c-8.6,8.7-14,21.3-14,35.4c0,12.8,10.7,28.5,21,40.7c-7.4,8-12.3,19-13,31.5
	c-0.7,11.7,7.4,26.4,16.1,38.7c-4.2,8.1-6.3,17.7-5.5,27.8c2,24.8,44.7,57.3,44.7,57.4c0,0,13.7-60.7,3-87.8
	c-2.2-5.6-5.9-9.7-10.3-12.2c3.8-16.6,6.4-34.9,3.4-47.4c-1.8-7.6-6.5-13.1-12.3-15.7c4-19.3,7.5-44.2,2.8-59.5
	c-1.3-4.4-3.6-8-6.5-10.7c7.9-17.6,16-39.7,14.9-55c-0.4-5.9-2.7-10.8-6-14.5c7.3-18.1,14.9-41.5,13.1-57.2
	c-0.8-6.8-4-12.2-8.4-15.7c7.6-7.4,15.5-15.9,21.7-24.4c2.7,2.9,6.2,5.3,10.2,6.9c32.9,13.6,106.1-5.5,106.1-5.5
	C779.2,238.2,739.6,182.5,709.6,180.3z"/>
</svg>
