<?xml version="1.0" encoding="utf-8"?>
<!-- Generator: Adobe Illustrator 22.0.1, SVG Export Plug-In . SVG Version: 6.00 Build 0)  -->
<svg version="1.1" id="Layer_1" xmlns="http://www.w3.org/2000/svg" xmlns:xlink="http://www.w3.org/1999/xlink" x="0px" y="0px"
	 viewBox="0 0 1366 768" style="enable-background:new 0 0 1366 768;" xml:space="preserve">
<style type="text/css">
	.st0{fill:#FF0000;}
</style>
<g>
	<path d="M1133.8,254.3v160.5H182.3V254.3H1133.8 M1134,254H182v161h952V254L1134,254z"/>
</g>
<g>
	<path d="M280.8,329.4v11.2h-65.5v-11.2H280.8 M281,329.1h-66v11.7h66V329.1L281,329.1z"/>
</g>
<g>
	<path class="st0" d="M328,313.3c12,0,21.7,9.8,21.7,21.8c0,12-9.8,21.7-21.7,21.7h-25c-12,0-21.7-9.8-21.7-21.8
		c0-12,9.8-21.7,21.7-21.7H328 M328,313h-25c-12.2,0-22,9.8-22,22v0c0,12.2,9.8,22,22,22h25c12.2,0,22-9.8,22-22v0
		C350,322.8,340.2,313,328,313L328,313z"/>
</g>
<g>
	<path d="M415.8,329.4v11.2h-65.5v-11.2H415.8 M416,329.1h-66v11.7h66V329.1L416,329.1z"/>
</g>
</svg>
