<?xml version="1.0" encoding="utf-8"?>
<!-- Generator: Adobe Illustrator 22.0.1, SVG Export Plug-In . SVG Version: 6.00 Build 0)  -->
<svg version="1.1" id="Layer_1" xmlns="http://www.w3.org/2000/svg" xmlns:xlink="http://www.w3.org/1999/xlink" x="0px" y="0px"
	 viewBox="0 0 1366 768" style="enable-background:new 0 0 1366 768;" xml:space="preserve">
<style type="text/css">
	.st0{fill:#FF0000;}
</style>
<g>
	<path d="M478.8,378.4v11.2h-65.5v-11.2H478.8 M479,378.1h-66v11.7h66V378.1L479,378.1z"/>
</g>
<g>
	<path class="st0" d="M526,362.3c12,0,21.8,9.8,21.8,21.8c0,12-9.8,21.7-21.8,21.7h-25c-12,0-21.7-9.8-21.7-21.8
		c0-12,9.8-21.7,21.7-21.7H526 M526,362h-25c-12.2,0-22,9.8-22,22v0c0,12.2,9.8,22,22,22h25c12.2,0,22-9.8,22-22v0
		C548,371.8,538.2,362,526,362L526,362z"/>
</g>
<g>
	<path d="M613.8,378.4v11.2h-65.5v-11.2H613.8 M614,378.1h-66v11.7h66V378.1L614,378.1z"/>
</g>
<g>
	<path class="st0" d="M661,362.3c12,0,21.8,9.8,21.8,21.8c0,12-9.8,21.7-21.8,21.7h-25c-12,0-21.8-9.8-21.8-21.8
		c0-12,9.8-21.7,21.8-21.7H661 M661,362h-25c-12.2,0-22,9.8-22,22v0c0,12.2,9.8,22,22,22h25c12.2,0,22-9.8,22-22v0
		C683,371.8,673.2,362,661,362L661,362z"/>
</g>
<g>
	<path d="M748.8,378.4v11.2h-65.5v-11.2H748.8 M749,378.1h-66v11.7h66V378.1L749,378.1z"/>
</g>
<g>
	<path class="st0" d="M796,362.3c12,0,21.8,9.8,21.8,21.8c0,12-9.8,21.7-21.8,21.7h-25c-12,0-21.8-9.8-21.8-21.8
		c0-12,9.8-21.7,21.8-21.7H796 M796,362h-25c-12.2,0-22,9.8-22,22v0c0,12.2,9.8,22,22,22h25c12.2,0,22-9.8,22-22v0
		C818,371.8,808.2,362,796,362L796,362z"/>
</g>
<g>
	<path d="M883.8,378.4v11.2h-65.5v-11.2H883.8 M884,378.1h-66v11.7h66V378.1L884,378.1z"/>
</g>
<g>
	<path class="st0" d="M931,362.3c12,0,21.8,9.8,21.8,21.8c0,12-9.8,21.7-21.8,21.7h-25c-12,0-21.8-9.8-21.8-21.8
		c0-12,9.8-21.7,21.8-21.7H931 M931,362h-25c-12.2,0-22,9.8-22,22v0c0,12.2,9.8,22,22,22h25c12.2,0,22-9.8,22-22v0
		C953,371.8,943.2,362,931,362L931,362z"/>
</g>
<g>
	<path d="M1018.8,378.4v11.2h-65.5v-11.2H1018.8 M1019,378.1h-66v11.7h66V378.1L1019,378.1z"/>
</g>
</svg>
