<?xml version="1.0" encoding="utf-8"?>
<!-- Generator: Adobe Illustrator 22.0.1, SVG Export Plug-In . SVG Version: 6.00 Build 0)  -->
<svg version="1.1" id="Layer_1" xmlns="http://www.w3.org/2000/svg" xmlns:xlink="http://www.w3.org/1999/xlink" x="0px" y="0px"
	 viewBox="0 0 1366 768" style="enable-background:new 0 0 1366 768;" xml:space="preserve">
<g>
</g>
<polyline points="798.8,379.4 798.8,390.6 733.3,390.6 733.3,379.4 798.8,379.4 "/>
<g>
	<path d="M663.8,379.5v11.2h-65.5v-11.2H663.8"/>
</g>
<polyline points="636.6,379.6 636.6,417.2 625.4,417.2 625.4,379.6 636.6,379.6 "/>
<g>
</g>
<g>
</g>
<polygon points="934,379.2 868,379.2 868,391 934,391 934,379.2 "/>
<polyline points="906.6,379.6 906.6,416.9 895.4,416.9 895.4,379.6 906.6,379.6 "/>
<g>
</g>
<g>
</g>
<polyline points="1041.8,379.5 1041.8,390.8 1003.3,390.8 1003.3,379.5 1041.8,379.5 "/>
<polyline points="1041.8,379.6 1041.8,417.6 1030.5,417.6 1030.5,379.6 1041.8,379.6 "/>
<g>
</g>
<g>
</g>
<polyline points="1149.8,379.5 1149.8,390.8 1111.3,390.8 1111.3,379.5 1149.8,379.5 "/>
<polyline points="1122.6,379.6 1122.6,416.6 1111.3,416.6 1111.3,379.6 1122.6,379.6 "/>
<g>
</g>
<g>
</g>
</svg>
