<?xml version="1.0" encoding="utf-8"?>
<!-- Generator: Adobe Illustrator 22.0.1, SVG Export Plug-In . SVG Version: 6.00 Build 0)  -->
<svg version="1.1" id="Layer_1" xmlns="http://www.w3.org/2000/svg" xmlns:xlink="http://www.w3.org/1999/xlink" x="0px" y="0px"
	 viewBox="0 0 1366 768" style="enable-background:new 0 0 1366 768;" xml:space="preserve">
<style type="text/css">
	.st0{fill:#DBD4D1;}
	.st1{fill:#FFFFFF;stroke:#DBD4D1;stroke-width:3;stroke-miterlimit:10;}
	.st2{fill:#59ABE3;}
	.st3{fill:#FFFFFF;}
	.st4{fill:#FF0000;}
	.st5{fill:#FF0000;stroke:#FFFFFF;stroke-width:3;stroke-miterlimit:10;}
</style>
<path class="st0" d="M324.7,240.6c6.9,0,12.6,5.8,12.6,12.9V708c0,7.1-5.7,12.9-12.6,12.9s-12.6-5.8-12.6-12.9V253.5
	C312.1,246.4,317.8,240.6,324.7,240.6"/>
<path class="st1" d="M324.7,42.9c29.4,0,57,11,77.8,31.4c20.8,20.2,32.2,47.1,32.2,75.7s-11.3,55.4-32.2,75.7S354,257,324.7,257
	s-57-11-77.8-31.4s-32.2-47.1-32.2-75.7s11.3-55.4,32.2-75.7C267.7,54.1,295.2,42.9,324.7,42.9"/>
<path class="st2" d="M324.7,53.7c26.5,0,51.2,9.9,69.9,28.2c18.7,18.2,29,42.4,29,68s-10.2,49.8-29,68s-43.5,28.2-69.9,28.2
	s-51.2-9.9-69.9-28.2s-29-42.4-29-68s10.2-49.8,29-68C273.5,63.7,298.2,53.7,324.7,53.7"/>
<path class="st3" d="M258,140.6l62.6-41.7v28.8h38.8c7.5,0,13.7,6,13.7,13.3c0,1.1-0.1,2.1-0.4,3.1v47.5c0,7.3-6.2,13.3-13.7,13.3
	s-13.7-6-13.7-13.3v-37.5h-24.6v27.7L258,140.6z"/>
<path class="st0" d="M574.5,240.2c6.9,0,12.6,5.8,12.6,13V710c0,7.1-5.7,13-12.6,13c-6.9,0-12.6-5.8-12.6-13V253.1
	C562,246,567.6,240.2,574.5,240.2"/>
<path class="st1" d="M573.6,45c29.4,0,57,11.3,77.8,32.1c20.8,20.7,32.2,48.1,32.2,77.3s-11.3,56.6-32.2,77.3s-48.4,32.1-77.8,32.1
	s-57-11.3-77.8-32.1s-32.2-48.1-32.2-77.3s11.3-56.6,32.2-77.3C516.6,56.4,544.1,45,573.6,45"/>
<path class="st2" d="M573.6,56c26.5,0,51.2,10.1,69.9,28.8c18.7,18.6,29,43.3,29,69.5s-10.2,50.9-29,69.5s-43.5,28.8-69.9,28.8
	s-51.2-10.1-69.9-28.8c-18.7-18.7-29-43.3-29-69.5s10.2-50.9,29-69.5C522.3,66.3,547.1,56,573.6,56"/>
<path class="st3" d="M641.9,144.8l-62.6-42.6v29.4h-38.8c-7.5,0-13.7,6.1-13.7,13.6c0,1.2,0.1,2.2,0.4,3.2v48.5
	c0,7.4,6.2,13.6,13.7,13.6s13.7-6.1,13.7-13.6v-38.3h24.6v28.3L641.9,144.8z"/>
<path class="st0" d="M856.8,225.5c7,0,12.7,6,12.7,13.3v468.8c0,7.3-5.7,13.3-12.7,13.3s-12.7-6-12.7-13.3V238.8
	C844.1,231.4,849.8,225.5,856.8,225.5"/>
<path class="st1" d="M855.8,42.9c29.4,0,57,11.4,77.8,32.4c20.8,20.9,32.2,48.6,32.2,78.1s-11.3,57.2-32.2,78.1
	s-48.4,32.4-77.8,32.4s-57-11.4-77.8-32.4s-32.2-48.6-32.2-78.1s11.3-57.2,32.2-78.1C798.8,54.4,826.3,42.9,855.8,42.9"/>
<path class="st4" d="M855.8,54c26.5,0,51.2,10.2,69.9,29.1c18.7,18.8,29,43.7,29,70.2s-10.2,51.4-29,70.2s-43.5,29.1-69.9,29.1
	s-51.2-10.2-69.9-29.1s-29-43.7-29-70.2s10.2-51.4,29-70.2C804.6,64.4,829.3,54,855.8,54"/>
<rect x="774.4" y="136.9" class="st3" width="162.7" height="33"/>
<path class="st0" d="M1130.6,233.3c6.9,0,12.6,5.9,12.6,13.1v461.4c0,7.2-5.7,13.1-12.6,13.1s-12.6-5.9-12.6-13.1V246.4
	C1118,239.2,1123.7,233.3,1130.6,233.3"/>
<path class="st1" d="M1218.6,258.1h-175.9c-12.2,0-22-9.9-22-22V64.9c0-12.2,9.9-22,22-22h175.9c12.2,0,22,9.9,22,22V236
	C1240.6,248.2,1230.8,258.1,1218.6,258.1z"/>
<path class="st2" d="M1209.8,249.5h-158.4c-12.2,0-22-9.9-22-22v-154c0-12.2,9.9-22,22-22h158.4c12.2,0,22,9.9,22,22v154
	C1231.9,239.6,1222,249.5,1209.8,249.5z"/>
<path class="st3" d="M1146.5,114.2h-30.9v109.7h30.9V114.2L1146.5,114.2z"/>
<path class="st5" d="M1194.7,86.1v33.7H1067V86.1H1194.7"/>
</svg>
