<?xml version="1.0" encoding="utf-8"?>
<!-- Generator: Adobe Illustrator 22.0.1, SVG Export Plug-In . SVG Version: 6.00 Build 0)  -->
<svg version="1.1" id="Layer_1" xmlns="http://www.w3.org/2000/svg" xmlns:xlink="http://www.w3.org/1999/xlink" x="0px" y="0px"
	 viewBox="0 0 1366 768" style="enable-background:new 0 0 1366 768;" xml:space="preserve">
<style type="text/css">
	.st0{fill:none;stroke:#000000;stroke-width:0.5;stroke-miterlimit:10;}
</style>
<polygon class="st0" points="941.5,174 129,174 129,384 941.5,384 941.5,174 "/>
<g>
	<path class="st0" d="M941.5,228.2v101.6H129V228.2H941.5"/>
</g>
<g>
	<path class="st0" d="M244.3,273.5v11h-54.9v-11H244.3"/>
</g>
<polyline class="st0" points="360.3,273.5 360.3,284.5 305.4,284.5 305.4,273.5 360.3,273.5 "/>
<polygon class="st0" points="361,272.8 304.7,272.8 304.7,285.2 361,285.2 361,272.8 "/>
<polyline class="st0" points="476.9,273.5 476.9,284.5 422,284.5 422,273.5 476.9,273.5 "/>
<polygon class="st0" points="477.6,272.8 421.4,272.8 421.4,285.2 477.6,285.2 477.6,272.8 "/>
<polyline class="st0" points="592.9,273.5 592.9,284.5 538,284.5 538,273.5 592.9,273.5 "/>
<polygon class="st0" points="593.6,272.8 537.3,272.8 537.3,285.2 593.6,285.2 593.6,272.8 "/>
<polyline class="st0" points="708.9,273.5 708.9,284.5 654,284.5 654,273.5 708.9,273.5 "/>
<polygon class="st0" points="709.6,272.8 653.3,272.8 653.3,285.2 709.6,285.2 709.6,272.8 "/>
<polyline class="st0" points="824.9,273.5 824.9,284.5 770,284.5 770,273.5 824.9,273.5 "/>
<polygon class="st0" points="825.6,272.8 769.3,272.8 769.3,285.2 825.6,285.2 825.6,272.8 "/>
<polyline class="st0" points="940.9,272.8 940.9,283.8 886,283.8 886,272.8 940.9,272.8 "/>
<polygon class="st0" points="941.5,272.1 885.3,272.1 885.3,284.5 941.5,284.5 941.5,272.1 "/>
</svg>
