<?xml version="1.0" encoding="utf-8"?>
<!-- Generator: Adobe Illustrator 22.0.1, SVG Export Plug-In . SVG Version: 6.00 Build 0)  -->
<svg version="1.1" id="Layer_1" xmlns="http://www.w3.org/2000/svg" xmlns:xlink="http://www.w3.org/1999/xlink" x="0px" y="0px"
	 viewBox="0 0 1366 768" style="enable-background:new 0 0 1366 768;" xml:space="preserve">
<style type="text/css">
	.st0{fill:#FF0000;}
</style>
<g>
	<path d="M528.8,379.4v11.2h-65.5v-11.2H528.8 M529,379.1h-66v11.7h66V379.1L529,379.1z"/>
</g>
<g>
	<path class="st0" d="M576,363.3c12,0,21.8,9.8,21.8,21.8c0,12-9.8,21.7-21.8,21.7h-25c-12,0-21.8-9.8-21.8-21.8
		c0-12,9.8-21.7,21.8-21.7H576 M576,363h-25c-12.2,0-22,9.8-22,22v0c0,12.2,9.8,22,22,22h25c12.2,0,22-9.8,22-22v0
		C598,372.8,588.2,363,576,363L576,363z"/>
</g>
<g>
	<path d="M798.8,379.4v11.2h-65.5v-11.2H798.8 M799,379.1h-66v11.7h66V379.1L799,379.1z"/>
</g>
<g>
	<path d="M663.8,379.5v11.2h-65.5v-11.2H663.8 M664,379.2h-66V391h66V379.2L664,379.2z"/>
</g>
<g>
	<path d="M636.6,379.6v37.9h-11.2v-37.9H636.6 M636.9,379.4h-11.7v38.4h11.7V379.4L636.9,379.4z"/>
</g>
<g>
	<path class="st0" d="M650.4,391.3c7.3,0,13.2,5.9,13.2,13.2s-5.9,13.2-13.2,13.2s-13.2-5.9-13.2-13.2S643.1,391.3,650.4,391.3
		 M650.4,391.1c-7.5,0-13.5,6-13.5,13.5v0c0,7.5,6,13.5,13.5,13.5c7.5,0,13.5-6,13.5-13.5v0C663.9,397.1,657.8,391.1,650.4,391.1
		L650.4,391.1z"/>
</g>
<g>
	<path class="st0" d="M711,363.3c12,0,21.8,9.8,21.8,21.8c0,12-9.8,21.7-21.8,21.7h-25c-12,0-21.8-9.8-21.8-21.8
		c0-12,9.8-21.7,21.8-21.7H711 M711,363h-25c-12.2,0-22,9.8-22,22v0c0,12.2,9.8,22,22,22h25c12.2,0,22-9.8,22-22v0
		C733,372.8,723.2,363,711,363L711,363z"/>
</g>
<g>
	<path d="M933.8,379.5v11.2h-65.5v-11.2H933.8 M934,379.2h-66V391h66V379.2L934,379.2z"/>
</g>
<g>
	<path d="M906.6,379.6v37.9h-11.2v-37.9H906.6 M906.9,379.4h-11.7v38.4h11.7V379.4L906.9,379.4z"/>
</g>
<g>
	<path class="st0" d="M920.4,391.3c7.3,0,13.2,5.9,13.2,13.2s-5.9,13.2-13.2,13.2s-13.2-5.9-13.2-13.2S913.1,391.3,920.4,391.3
		 M920.4,391.1c-7.5,0-13.5,6-13.5,13.5v0c0,7.5,6,13.5,13.5,13.5c7.5,0,13.5-6,13.5-13.5v0C933.9,397.1,927.8,391.1,920.4,391.1
		L920.4,391.1z"/>
</g>
<g>
	<path class="st0" d="M846,363.3c12,0,21.8,9.8,21.8,21.8c0,12-9.8,21.7-21.8,21.7h-25c-12,0-21.8-9.8-21.8-21.8
		c0-12,9.8-21.7,21.8-21.7H846 M846,363h-25c-12.2,0-22,9.8-22,22v0c0,12.2,9.8,22,22,22h25c12.2,0,22-9.8,22-22v0
		C868,372.8,858.2,363,846,363L846,363z"/>
</g>
<g>
	<path d="M1041.8,379.5v11.3h-38.5v-11.3H1041.8 M1042,379.2h-39V391h39V379.2L1042,379.2z"/>
</g>
<g>
	<path d="M1041.8,379.6v38h-11.3v-38H1041.8 M1042,379.4h-11.8v38.5h11.8V379.4L1042,379.4z"/>
</g>
<g>
	<path class="st0" d="M1016.9,391.2c7.1,0,12.9,5.8,12.9,12.9v0.7c0,7.1-5.8,12.9-12.9,12.9h-0.7c-7.1,0-12.9-5.8-12.9-12.9v-0.7
		c0-7.1,5.8-12.9,12.9-12.9H1016.9 M1016.9,390.9h-0.7c-7.3,0-13.2,5.9-13.2,13.2v0.7c0,7.3,5.9,13.2,13.2,13.2h0.7
		c7.3,0,13.2-5.9,13.2-13.2v-0.7C1030.1,396.8,1024.2,390.9,1016.9,390.9L1016.9,390.9z"/>
</g>
<g>
	<path class="st0" d="M981,363.3c12,0,21.8,9.8,21.8,21.8c0,12-9.8,21.7-21.8,21.7h-25c-12,0-21.8-9.8-21.8-21.8
		c0-12,9.8-21.7,21.8-21.7H981 M981,363h-25c-12.2,0-22,9.8-22,22v0c0,12.2,9.8,22,22,22h25c12.2,0,22-9.8,22-22v0
		C1003,372.8,993.2,363,981,363L981,363z"/>
</g>
<g>
	<path d="M1149.8,379.5v11.3h-38.5v-11.3H1149.8 M1150,379.2h-39V391h39V379.2L1150,379.2z"/>
</g>
<g>
	<path d="M1122.6,379.6v38h-11.3v-38H1122.6 M1122.8,379.4H1111v38.5h11.8V379.4L1122.8,379.4z"/>
</g>
<g>
	<path class="st0" d="M1136.8,391.2c7.1,0,12.9,5.8,12.9,12.9v0.7c0,7.1-5.8,12.9-12.9,12.9h-0.7c-7.1,0-12.9-5.8-12.9-12.9v-0.7
		c0-7.1,5.8-12.9,12.9-12.9H1136.8 M1136.8,390.9h-0.7c-7.3,0-13.2,5.9-13.2,13.2v0.7c0,7.3,5.9,13.2,13.2,13.2h0.7
		c7.3,0,13.2-5.9,13.2-13.2v-0.7C1150,396.8,1144.1,390.9,1136.8,390.9L1136.8,390.9z"/>
</g>
<g>
	<path class="st0" d="M1089,363.3c12,0,21.8,9.8,21.8,21.8c0,12-9.8,21.7-21.8,21.7h-25c-12,0-21.8-9.8-21.8-21.8
		c0-12,9.8-21.7,21.8-21.7H1089 M1089,363h-25c-12.2,0-22,9.8-22,22v0c0,12.2,9.8,22,22,22h25c12.2,0,22-9.8,22-22v0
		C1111,372.8,1101.2,363,1089,363L1089,363z"/>
</g>
</svg>
