<?xml version="1.0" encoding="utf-8"?>
<!-- Generator: Adobe Illustrator 22.0.1, SVG Export Plug-In . SVG Version: 6.00 Build 0)  -->
<svg version="1.1" id="Layer_1" xmlns="http://www.w3.org/2000/svg" xmlns:xlink="http://www.w3.org/1999/xlink" x="0px" y="0px"
	 viewBox="0 0 1366 768" style="enable-background:new 0 0 1366 768;" xml:space="preserve">
<style type="text/css">
	.st0{fill:#FF0000;}
</style>
<g>
	<path d="M1312,175v304H130V175H1312 M1313,174H129v306h1184V174L1313,174z"/>
</g>
<g>
	<path d="M1312,253v148H130V253H1312 M1313,252H129v150h1184V252L1313,252z"/>
</g>
<g>
	<path class="st0" d="M581,175v76h-76v-76H581 M582,174h-78v78h78V174L582,174z"/>
</g>
<g>
	<path d="M297,319v16h-80v-16H297 M298,318h-82v18h82V318L298,318z"/>
</g>
<g>
	<path class="st0" d="M215,284v85h-85v-85H215 M216,283h-87v87h87V283L216,283z"/>
</g>
<g>
	<path class="st0" d="M384,284v85h-85v-85H384 M385,283h-87v87h87V283L385,283z"/>
</g>
<g>
	<path class="st0" d="M553,284v85h-85v-85H553 M554,283h-87v87h87V283L554,283z"/>
</g>
<g>
	<path d="M466,319v16h-80v-16H466 M467,318h-82v18h82V318L467,318z"/>
</g>
<g>
	<path class="st0" d="M723,284v85h-85v-85H723 M724,283h-87v87h87V283L724,283z"/>
</g>
<g>
	<path d="M636,319v16h-80v-16H636 M637,318h-82v18h82V318L637,318z"/>
</g>
<g>
	<path class="st0" d="M892,284v85h-85v-85H892 M893,283h-87v87h87V283L893,283z"/>
</g>
<g>
	<path d="M805,319v16h-80v-16H805 M806,318h-82v18h82V318L806,318z"/>
</g>
<g>
	<path class="st0" d="M1061,284v85h-85v-85H1061 M1062,283h-87v87h87V283L1062,283z"/>
</g>
<g>
	<path d="M974,319v16h-80v-16H974 M975,318h-82v18h82V318L975,318z"/>
</g>
<g>
	<path class="st0" d="M1230,284v85h-85v-85H1230 M1231,283h-87v87h87V283L1231,283z"/>
</g>
<g>
	<path d="M1143,319v16h-80v-16H1143 M1144,318h-82v18h82V318L1144,318z"/>
</g>
<g>
	<path d="M1312,318v16h-80v-16H1312 M1313,317h-82v18h82V317L1313,317z"/>
</g>
<g>
	<path class="st0" d="M600,403v76h-76v-76H600 M601,402h-78v78h78V402L601,402z"/>
</g>
</svg>
