<?xml version="1.0" encoding="utf-8"?>
<!-- Generator: Adobe Illustrator 22.0.1, SVG Export Plug-In . SVG Version: 6.00 Build 0)  -->
<svg version="1.1" id="Layer_1" xmlns="http://www.w3.org/2000/svg" xmlns:xlink="http://www.w3.org/1999/xlink" x="0px" y="0px"
	 viewBox="0 0 1366 768" style="enable-background:new 0 0 1366 768;" xml:space="preserve">
<style type="text/css">
	.st0{fill:#FFFFFF;}
	.st1{fill:#FFFFFF;stroke:#000000;stroke-miterlimit:10;}
</style>
<g>
	<path class="st0" d="M875.1,534.5c-2.3,0-4.8,0-7.6-0.1c-2.9,0.1-5.3,0.1-7.6,0.1C752,534.5,391.9,394.2,368.4,385
		c23.6-9.2,383.6-149.5,491.5-149.5c2.3,0,4.8,0,7.6,0.1c2.9-0.1,5.3-0.1,7.6-0.1c57.9,0,130,40.7,180.3,74.9
		c51.6,35.1,91.4,70.6,95.8,74.6c-4.4,4-44.2,39.5-95.8,74.6C1005.1,493.8,933.1,534.5,875.1,534.5z"/>
	<path d="M875.1,236c25.5,0,55.9,7.9,90.3,23.3c27.6,12.4,57.8,29.7,89.8,51.5c50.3,34.2,89.3,68.7,95.4,74.2
		c-6.1,5.4-45.1,40-95.4,74.2c-32,21.7-62.2,39.1-89.8,51.5C931,526.1,900.6,534,875.1,534c-2.3,0-4.7,0-7.6-0.1l0,0l0,0
		c-2.8,0.1-5.3,0.1-7.6,0.1c-25.6,0-67.3-7.9-124.2-23.4c-45.5-12.4-100.7-29.8-164.1-51.5c-98.4-33.8-186.5-68-201.9-74.1
		c15.4-6,103.4-40.2,201.9-74.1c63.4-21.8,118.6-39.1,164.1-51.5c56.8-15.5,98.6-23.4,124.2-23.4c2.3,0,4.7,0,7.6,0.1l0,0l0,0
		C870.4,236,872.8,236,875.1,236 M875.1,235c-2.6,0-5.1,0-7.6,0.1c-2.5-0.1-5-0.1-7.6-0.1C747.5,235,367,385,367,385
		s380.5,150,492.9,150c2.6,0,5.1,0,7.6-0.1c2.5,0.1,5,0.1,7.6,0.1c112.4,0,276.9-150,276.9-150S987.5,235,875.1,235L875.1,235z"/>
</g>
<g>
	<ellipse class="st0" cx="913" cy="385" rx="60.5" ry="54.3"/>
	<path d="M913,331.2c33.1,0,60,24.1,60,53.8s-26.9,53.8-60,53.8s-60-24.1-60-53.8S879.9,331.2,913,331.2 M913,330.2
		c-33.7,0-61,24.5-61,54.8c0,30.3,27.3,54.8,61,54.8s61-24.5,61-54.8C974,354.7,946.7,330.2,913,330.2L913,330.2z"/>
</g>
<g>
	<path class="st0" d="M1064.1,453.6c-29.5-41.8-29.7-95.6-0.3-137.5c2.7,1.9,5.5,3.9,8.3,5.9c-23.7,38.9-23.7,87.1-0.1,126.1
		C1069.4,449.9,1066.7,451.8,1064.1,453.6z"/>
	<path d="M1063.9,316.8c2.5,1.7,5,3.5,7.5,5.3c-23.4,38.9-23.5,86.9-0.1,125.8c-2.4,1.7-4.8,3.4-7.1,5
		C1035.1,411.6,1035,358.3,1063.9,316.8 M1063.6,315.4c-29.9,42.3-29.8,96.7,0.3,138.9c2.9-2.1,5.8-4.1,8.7-6.1
		c-24-39.2-23.9-87.1,0.1-126.3C1069.8,319.7,1066.7,317.6,1063.6,315.4L1063.6,315.4z"/>
</g>
<g>
	<path class="st0" d="M1098.1,428.7c-16.7-27-16.5-60.3,0.4-87.1c29.4,22.5,49.7,40.6,52.7,43.4
		C1148.2,387.8,1127.7,406.1,1098.1,428.7z"/>
	<path d="M1098.6,342.3c28,21.5,47.7,39,51.9,42.7c-4.2,3.8-24,21.4-52.2,43C1082.1,401.4,1082.2,368.8,1098.6,342.3 M1098.4,340.8
		c-17.5,27.4-17.6,61.2-0.4,88.6c32.6-24.9,54-44.4,54-44.4S1130.8,365.6,1098.4,340.8L1098.4,340.8z"/>
</g>
<path class="st1" d="M367.5,384.6l178-64.7c0,0-131-79-267-24.3C278.5,295.6,363.5,310,367.5,384.6z"/>
<path class="st1" d="M367.5,385.9l178,64.7c0,0-131,79-267,24.3C278.5,474.8,363.5,460.4,367.5,385.9z"/>
<g>
	<path class="st0" d="M773.5,427.6c-25.9,0-47-18.9-47-42.2c0-23.3,21.1-42.2,47-42.2s47,18.9,47,42.2
		C820.5,408.7,799.4,427.6,773.5,427.6z"/>
	<path d="M773.5,343.8c25.6,0,46.5,18.7,46.5,41.7s-20.9,41.7-46.5,41.7S727,408.4,727,385.4S747.9,343.8,773.5,343.8 M773.5,342.8
		c-26.2,0-47.5,19.1-47.5,42.7c0,23.6,21.3,42.7,47.5,42.7S821,409,821,385.4C821,361.9,799.7,342.8,773.5,342.8L773.5,342.8z"/>
</g>
<g>
	<path class="st0" d="M658.5,416.8c-19.3,0-35-14.1-35-31.4s15.7-31.4,35-31.4s35,14.1,35,31.4S677.8,416.8,658.5,416.8z"/>
	<path d="M658.5,354.6c19,0,34.5,13.9,34.5,30.9s-15.5,30.9-34.5,30.9S624,402.5,624,385.4S639.5,354.6,658.5,354.6 M658.5,353.6
		c-19.6,0-35.5,14.3-35.5,31.9s15.9,31.9,35.5,31.9s35.5-14.3,35.5-31.9S678.1,353.6,658.5,353.6L658.5,353.6z"/>
</g>
<g>
	<path class="st0" d="M216.3,424.8c-48.6,0-150.2-35.9-162.9-40.4c12.7-4.5,114.2-40,162.9-40c44.5,0,66.2,13.1,66.2,40
		C282.5,411.6,260.9,424.8,216.3,424.8z"/>
	<path d="M216.3,344.8c24.1,0,41.7,3.9,52.4,11.6c8.9,6.5,13.3,15.6,13.3,27.9c0,12.3-4.3,21.5-13.3,28.1
		c-10.7,7.9-28.3,11.8-52.4,11.8c-47.1,0-144.2-33.8-161.4-39.9C72.2,378.3,169.2,344.8,216.3,344.8 M216.3,343.8
		C164,343.8,52,384.4,52,384.4s112,40.9,164.3,40.9s66.7-18.4,66.7-40.9C283,361.9,268.7,343.8,216.3,343.8L216.3,343.8z"/>
</g>
</svg>
