<?xml version="1.0" encoding="utf-8"?>
<!-- Generator: Adobe Illustrator 22.0.1, SVG Export Plug-In . SVG Version: 6.00 Build 0)  -->
<svg version="1.1" id="Layer_1" xmlns="http://www.w3.org/2000/svg" xmlns:xlink="http://www.w3.org/1999/xlink" x="0px" y="0px"
	 viewBox="0 0 1366 768" style="enable-background:new 0 0 1366 768;" xml:space="preserve">
<style type="text/css">
	.st0{fill:#F46060;}
	.st1{fill:#013A3E;}
	.st2{fill:#C5EFF7;}
	.st3{fill:#4961CB;}
	.st4{fill:#D74810;}
	.st5{fill:#FFF933;}
</style>
<path class="st0" d="M775.4,322.9l-135.1-48.6c0,0,95.3-69.6,198.7-28C839,246.2,775.9,260.7,775.4,322.9z"/>
<path class="st0" d="M775.4,407.8l-134.8,49.1c0,0,95.6,69.2,198.8,27.2C839.4,484.1,776.1,469.9,775.4,407.8z"/>
<g>
	<path class="st1" d="M533.8,481.3c-1.6,0-3.4,0-5.3-0.1c-2,0.1-3.7,0.1-5.4,0.1c-40.6,0-91.1-31.7-126.3-58.2
		c-35.9-27.1-63.7-54.5-67.1-57.9c3.4-3.4,31.2-30.8,67.1-57.9c35.2-26.6,85.7-58.2,126.3-58.2c1.6,0,3.3,0,5.3,0.1
		c2-0.1,3.7-0.1,5.4-0.1c46.1,0,156.8,40,241.6,73.6v84.9C690.6,441.3,579.9,481.3,533.8,481.3z"/>
</g>
<g>
	
		<ellipse transform="matrix(0.7071 -0.7071 0.7071 0.7071 -111.8212 460.6435)" class="st2" cx="500.1" cy="365.3" rx="41.1" ry="41.1"/>
</g>
<g>
	<path class="st3" d="M355.1,388.9c-13.4-12-23.6-21.7-25.4-23.6c1.8-1.8,12.4-12,25.7-23.9C358.5,356.5,358.1,373.8,355.1,388.9z"
		/>
</g>
<g>
	<path class="st4" d="M853.3,392.3c-30.1,0-44.7-8.9-44.7-27.2c0-18.1,14.6-27,44.7-27c32.4,0,99.7,23.3,109.9,27
		C953,368.7,885.8,392.3,853.3,392.3z"/>
</g>
<g>
	<path class="st5" d="M840.2,384.2c-21.7,0-32.2-6.4-32.2-19.6c0-13,10.5-19.4,32.2-19.4c23.3,0,71.8,16.8,79.1,19.4
		C912,367.2,863.6,384.2,840.2,384.2z"/>
</g>
<g>
	<path class="st3" d="M750.3,313.1c7.9,3.1,16.9,6.6,25.1,9.8v84.9c-8.1,3.2-17.1,6.7-25.1,9.8V313.1z"/>
</g>
</svg>
