<?xml version="1.0" encoding="utf-8"?>
<!-- Generator: Adobe Illustrator 22.0.1, SVG Export Plug-In . SVG Version: 6.00 Build 0)  -->
<svg version="1.1" id="Layer_1" xmlns="http://www.w3.org/2000/svg" xmlns:xlink="http://www.w3.org/1999/xlink" x="0px" y="0px"
	 viewBox="0 0 1366 768" style="enable-background:new 0 0 1366 768;" xml:space="preserve">
<style type="text/css">
	.st0{fill:#FFFFFF;}
	.st1{fill:#FFFFFF;stroke:#000000;stroke-miterlimit:10;}
</style>
<g>
	<path class="st0" d="M1086.6,77.5c-25.6,0-38.1-7.6-38.1-23.2c0-15.4,12.5-23,38.1-23c27.5,0,84.3,19.7,93.6,23
		C1170.9,57.6,1114.1,77.5,1086.6,77.5z"/>
	<path d="M1086.6,31.8c26.3,0,79.7,18.1,92.1,22.5c-12.5,4.4-65.8,22.7-92.1,22.7c-25.3,0-37.6-7.4-37.6-22.7c0-7,2.5-12.1,7.5-15.8
		C1062.6,34.1,1072.7,31.8,1086.6,31.8 M1086.6,30.8c-30.3,0-38.6,10.4-38.6,23.5s8.3,23.7,38.6,23.7s95.1-23.7,95.1-23.7
		S1116.9,30.8,1086.6,30.8L1086.6,30.8z"/>
</g>
<g>
	<path class="st0" d="M695.1,715.5c-2.3,0-4.7,0-7.6-0.1c-2.9,0.1-5.3,0.1-7.6,0.1c-58,0-188.9-45.4-288.4-83.5
		c-101.8-38.9-192.5-78.4-203.2-83c10.7-4.7,101.4-44.1,203.2-83c99.6-38.1,230.4-83.5,288.4-83.5c2.3,0,4.7,0,7.6,0.1
		c2.9-0.1,5.3-0.1,7.6-0.1c57.9,0,130,45.4,180.3,83.4c51.9,39.2,91.8,79,95.9,83.1c-4.1,4.1-44,43.9-95.9,83.1
		C825.1,670.2,753,715.5,695.1,715.5z"/>
	<path d="M695.1,383c25.5,0,55.8,8.7,90.2,26c27.6,13.8,57.8,33.1,89.7,57.3c50.6,38.3,89.8,77.1,95.5,82.7
		c-5.7,5.7-44.9,44.4-95.5,82.7c-32,24.2-62.2,43.5-89.7,57.3c-34.4,17.2-64.7,26-90.2,26c-2.3,0-4.7,0-7.6-0.1l0,0l0,0
		c-2.8,0.1-5.3,0.1-7.6,0.1c-25.5,0-67.3-8.8-124.1-26c-45.5-13.8-100.7-33.2-164.1-57.4c-99-37.9-187.6-76.2-202.2-82.6
		c14.6-6.4,103.1-44.7,202.2-82.6c63.4-24.2,118.6-43.5,164.1-57.4c56.8-17.3,98.6-26,124.1-26c2.3,0,4.7,0,7.6,0.1l0,0l0,0
		C690.4,383,692.8,383,695.1,383 M695.1,382c-2.6,0-5.1,0.1-7.6,0.1c-2.5-0.1-5-0.1-7.6-0.1C567.5,382,187,549,187,549
		s380.5,167,492.9,167c2.6,0,5.1-0.1,7.6-0.1c2.5,0.1,5,0.1,7.6,0.1C807.5,716,972,549,972,549S807.5,382,695.1,382L695.1,382z"/>
</g>
<g>
	<circle class="st0" cx="733" cy="549" r="60.5"/>
	<path d="M733,489c33.1,0,60,26.9,60,60s-26.9,60-60,60s-60-26.9-60-60S699.9,489,733,489 M733,488c-33.7,0-61,27.3-61,61
		s27.3,61,61,61c33.7,0,61-27.3,61-61S766.7,488,733,488L733,488z"/>
</g>
<g>
	<path class="st0" d="M211.5,405.6C135.1,375.2,74.4,348.8,65.7,345c8.6-3.8,69.4-30.2,145.8-60.6V405.6z"/>
	<path d="M211,285.1v119.7C137.6,375.6,78.7,350.1,67,345C78.7,339.9,137.6,314.4,211,285.1 M212,283.7
		C128.6,316.9,64.5,345,64.5,345s64.1,28.1,147.5,61.3V283.7L212,283.7z"/>
</g>
<g>
	<path class="st0" d="M560.2,309.5c-1.4,0-2.8,0-4.5-0.1c-1.7,0.1-3.2,0.1-4.6,0.1c-64.3,0-158.6-93-165.1-99.5
		c6.5-6.5,100.8-99.5,165.1-99.5c1.4,0,2.8,0,4.5,0.1c1.7-0.1,3.2-0.1,4.6-0.1c39.4,0,133.9,34.3,206.3,63.1v72.8
		C694,275.2,599.6,309.5,560.2,309.5z"/>
	<path d="M551.1,111c1.4,0,2.8,0,4.5,0.1l0,0l0,0c1.7-0.1,3.1-0.1,4.5-0.1c39.3,0,133.5,34.2,205.8,63V246
		c-72.4,28.8-166.6,63-205.8,63c-1.4,0-2.8,0-4.5-0.1l0,0l0,0c-1.7,0.1-3.1,0.1-4.5,0.1c-34.5,0-77.5-27.1-107.5-49.8
		c-29.5-22.4-52.6-45-56.9-49.2c4.2-4.2,27.3-26.8,56.8-49.2C473.5,138.1,516.6,111,551.1,111 M551.1,110
		c-67.3,0-165.8,100-165.8,100s98.5,100,165.8,100c1.5,0,3.1,0,4.6-0.1c1.5,0,3,0.1,4.6,0.1c39.7,0,135.1-34.7,206.8-63.3v-73.4
		C695.3,144.7,599.9,110,560.2,110c-1.5,0-3.1,0-4.6,0.1C554.1,110,552.6,110,551.1,110L551.1,110z"/>
</g>
<g>
	<path class="st0" d="M1139.1,669.5c-96,0-142.6-54.7-142.6-167.4c0-51.7,9.6-90.1,29.3-117.4c11.2-15.5,25.9-27.4,43.7-35.3
		c19.2-8.6,42.6-12.9,69.6-12.9c60,0,135.2,48.4,187.9,89.2c-29.6,47-29.5,107.5,0.3,154.4C1274.5,620.9,1199.2,669.5,1139.1,669.5z
		"/>
	<path d="M1139.1,337c26.6,0,58.5,9.5,94.8,28.3c28.4,14.7,59.5,35.1,92.4,60.5c-29.4,47-29.3,107.3,0.3,154.2
		c-32.9,25.5-64.1,45.9-92.5,60.7c-36.4,18.8-68.3,28.4-94.9,28.4c-26.9,0-50.2-4.4-69.4-13.2c-17.7-8.1-32.4-20.1-43.5-35.8
		C1006.6,592.5,997,554,997,502.1c0-51.6,9.6-89.9,29.2-117.1c11.1-15.4,25.8-27.2,43.5-35.2C1088.8,341.3,1112.2,337,1139.1,337
		 M1139.1,336C1026.7,336,996,409.9,996,502.1S1026.7,670,1139.1,670c59,0,132.4-46.1,188.8-89.8c-30.1-47-30.2-107.6-0.3-154.6
		C1271.3,381.9,1198,336,1139.1,336L1139.1,336z"/>
</g>
<g>
	<path class="st0" d="M884.1,625.5c-29.6-46.5-29.7-106.5-0.3-153.2c2.7,2.1,5.5,4.3,8.3,6.5c-23.7,43.3-23.7,97-0.1,140.4
		C889.3,621.4,886.6,623.5,884.1,625.5z"/>
	<path d="M883.9,473c2.5,1.9,5,3.9,7.6,5.9c-23.5,43.3-23.6,96.8-0.1,140.1c-2.4,1.9-4.8,3.8-7.1,5.6
		C855.1,578.6,855,519.3,883.9,473 M883.6,471.6c-29.9,47.1-29.8,107.6,0.3,154.6c2.9-2.3,5.8-4.6,8.7-6.8
		c-24-43.7-23.9-97,0.1-140.7C889.8,476.3,886.7,474,883.6,471.6L883.6,471.6z"/>
</g>
<g>
	<path class="st0" d="M1319.8,749.6c-11.5-21.2-17.6-45.3-17.6-69.6c0-24.3,6.1-48.3,17.7-69.6c8.3,6.6,16.6,13.5,24.9,20.5
		c-17.2,30.3-17.4,68-0.4,98.4C1336.2,736.3,1327.9,743.1,1319.8,749.6z"/>
	<path d="M1320,611.2c8,6.4,16.1,13,24.1,19.8c-17,30.3-17.2,67.8-0.4,98.2c-7.9,6.7-15.9,13.3-23.8,19.6
		c-11.3-21-17.3-44.8-17.3-68.8C1302.7,656,1308.7,632.3,1320,611.2 M1319.7,609.7c-24.1,43.7-24.1,97-0.1,140.7
		c9-7.2,17.5-14.2,25.4-20.9c-17.2-30.6-17.1-68.2,0.4-98.6C1337.5,624.1,1328.9,617,1319.7,609.7L1319.7,609.7z"/>
</g>
<g>
	<path class="st0" d="M918.1,597.7c-16.7-30.1-16.5-67.2,0.4-97.1c29.5,25.2,49.9,45.5,52.8,48.4
		C968.4,551.9,947.9,572.4,918.1,597.7z"/>
	<path d="M918.7,501.4c28.3,24.2,48,43.7,51.9,47.6c-3.9,3.9-23.8,23.6-52.3,47.9C902.1,567.3,902.2,530.9,918.7,501.4 M918.4,499.8
		c-17.5,30.5-17.6,68.1-0.4,98.6c32.6-27.8,54-49.5,54-49.5S950.8,527.5,918.4,499.8L918.4,499.8z"/>
</g>
<path class="st1" d="M187.5,548.5l178-72c0,0-131-88-267-27C98.5,449.5,183.5,465.5,187.5,548.5z"/>
<path class="st1" d="M187.5,550l178,72c0,0-131,88-267,27C98.5,649,183.5,633,187.5,550z"/>
<g>
	<circle class="st0" cx="593.5" cy="549.5" r="47"/>
	<path d="M593.5,503c25.6,0,46.5,20.9,46.5,46.5S619.1,596,593.5,596S547,575.1,547,549.5S567.9,503,593.5,503 M593.5,502
		c-26.2,0-47.5,21.3-47.5,47.5s21.3,47.5,47.5,47.5s47.5-21.3,47.5-47.5S619.7,502,593.5,502L593.5,502z"/>
</g>
<g>
	<circle class="st0" cx="478.5" cy="549.5" r="35"/>
	<path d="M478.5,515c19,0,34.5,15.5,34.5,34.5S497.5,584,478.5,584S444,568.5,444,549.5S459.5,515,478.5,515 M478.5,514
		c-19.6,0-35.5,15.9-35.5,35.5s15.9,35.5,35.5,35.5s35.5-15.9,35.5-35.5S498.1,514,478.5,514L478.5,514z"/>
</g>
<g>
	<path class="st0" d="M187.1,209.5c-64.3,0-158.6-93-165.1-99.5c6.5-6.5,100.8-99.5,165.1-99.5c31.1,0,53.8,9.7,67.7,28.8
		c11.8,16.3,17.5,39.2,17.5,70.2C272.3,176.8,244.4,209.5,187.1,209.5z"/>
	<path d="M187.1,11c16.1,0,30,2.6,41.4,7.7c10.6,4.7,19.3,11.8,25.9,20.9c11.7,16.2,17.4,39,17.4,69.9c0,30.9-5.7,54-17.4,70.4
		c-6.6,9.3-15.4,16.5-25.9,21.3c-11.4,5.2-25.3,7.8-41.4,7.8c-34.5,0-77.5-27.1-107.5-49.8c-29.5-22.4-52.6-45-56.9-49.2
		c4.2-4.2,27.3-26.8,56.8-49.2C109.5,38.1,152.6,11,187.1,11 M187.1,10C119.7,10,21.3,110,21.3,110s98.5,100,165.8,100
		s85.7-45.3,85.7-100.5S254.4,10,187.1,10L187.1,10z"/>
</g>
<g>
	<path class="st0" d="M196.2,209.5c-57.3,0-85.2-32.7-85.2-100c0-30.9,5.7-53.9,17.5-70.2c13.8-19.1,36.6-28.8,67.7-28.8
		c39.4,0,133.9,34.3,206.3,63.1v72.8C330.1,175.2,235.6,209.5,196.2,209.5z"/>
	<path d="M196.2,11c39.3,0,133.5,34.2,205.8,63V146c-72.4,28.8-166.6,63-205.8,63c-16,0-30-2.6-41.4-7.8
		c-10.5-4.8-19.3-12-25.9-21.3c-11.7-16.4-17.4-39.4-17.4-70.4c0-30.8,5.7-53.7,17.4-69.9c6.6-9.2,15.3-16.2,25.9-20.9
		C166.2,13.6,180.1,11,196.2,11 M196.2,10c-67.3,0-85.7,44.3-85.7,99.5S128.9,210,196.2,210c39.7,0,135.1-34.7,206.8-63.3V73.3
		C331.3,44.7,235.9,10,196.2,10L196.2,10z"/>
</g>
<g>
	<circle class="st0" cx="531.5" cy="210.5" r="35"/>
	<path d="M531.5,176c19,0,34.5,15.5,34.5,34.5S550.5,245,531.5,245S497,229.5,497,210.5S512.5,176,531.5,176 M531.5,175
		c-19.6,0-35.5,15.9-35.5,35.5s15.9,35.5,35.5,35.5s35.5-15.9,35.5-35.5S551.1,175,531.5,175L531.5,175z"/>
</g>
<g>
	<path class="st0" d="M383.8,339.2c-26.1-22.3-44.2-40.2-46.9-42.9c2.7-2.7,20.6-20.5,46.5-42.7C398.3,280,398.5,312.7,383.8,339.2z
		"/>
	<path d="M383.3,254.4c14.4,26,14.5,58,0.3,84.1c-24.9-21.3-42.4-38.5-46-42.2C341.2,292.7,358.6,275.5,383.3,254.4 M383.6,252.8
		c-28.6,24.4-47.4,43.4-47.4,43.4s18.9,19.2,47.7,43.7C399.1,313,399,279.8,383.6,252.8L383.6,252.8z"/>
</g>
<g>
	<path class="st0" d="M1138.2,329.5c-1.4,0-2.8,0-4.5-0.1c-1.7,0.1-3.2,0.1-4.6,0.1c-47.4,0-110.3-49.7-143.7-79.4
		c2.6-13.3,2.6-26.7-0.2-40c33.5-29.8,96.4-79.6,143.8-79.6c1.4,0,2.8,0,4.5,0.1c1.7-0.1,3.2-0.1,4.6-0.1
		c36.4,0,120.5,29.7,184.8,54.7v89.7C1258.7,299.8,1174.6,329.5,1138.2,329.5z"/>
	<path d="M1129.1,131c1.4,0,2.8,0,4.5,0.1l0,0l0,0c1.7-0.1,3.1-0.1,4.5-0.1c36.3,0,120.1,29.6,184.3,54.5v89
		c-64.2,24.9-148.1,54.5-184.3,54.5c-1.4,0-2.8,0-4.5-0.1l0,0l0,0c-1.7,0.1-3.1,0.1-4.5,0.1c-47.1,0-109.7-49.4-143.1-79.1
		c2.6-13.2,2.5-26.5-0.2-39.6C1019.2,180.5,1081.9,131,1129.1,131 M1129.1,130c-47.9,0-111.7,50.7-144.4,79.9
		c2.8,13.3,2.8,27,0.2,40.4c32.8,29.2,96.4,79.7,144.2,79.7c1.5,0,3.1,0,4.6-0.1c1.5,0,3,0.1,4.6,0.1c35.8,0,117.1-28.3,185.3-54.8
		v-90.4c-68.2-26.5-149.5-54.8-185.3-54.8c-1.5,0-3.1,0-4.6,0.1C1132.1,130,1130.6,130,1129.1,130L1129.1,130z"/>
</g>
<g>
	<path class="st0" d="M746,165.6c6.7,2.6,13.6,5.3,20.5,8.1v72.8c-6.9,2.7-13.8,5.4-20.5,8.1V165.6z"/>
	<path d="M746.5,166.3c6.4,2.5,13,5.1,19.5,7.7V246c-6.5,2.6-13.1,5.2-19.5,7.7V166.3 M745.5,164.8v90.4c7.3-2.9,14.5-5.7,21.5-8.5
		v-73.4C760,170.5,752.8,167.7,745.5,164.8L745.5,164.8z"/>
</g>
<g>
	<path class="st0" d="M406.5,229.3c-11.3-10.1-18.9-17.6-20.6-19.3c1.7-1.7,9.2-9.1,20.4-19.1C408.9,203.6,409,216.5,406.5,229.3z"
		/>
	<path d="M406,191.8c2.3,12.1,2.4,24.4,0.2,36.5c-10.3-9.2-17.3-16.2-19.5-18.3C388.8,207.9,395.8,200.9,406,191.8 M406.7,189.9
		c-13.2,11.8-21.4,20.1-21.4,20.1s8.2,8.4,21.6,20.3C409.5,216.9,409.5,203.2,406.7,189.9L406.7,189.9z"/>
</g>
<path class="st1" d="M766.6,174l-114.8-43.2c0,0,82.2-58.2,170-21.5C821.9,109.4,767.9,121,766.6,174z"/>
<path class="st1" d="M766.6,246.2l-114.8,43.2c0,0,82.2,58.2,170,21.5C821.9,310.8,767.9,299.3,766.6,246.2z"/>
<g>
	<path class="st0" d="M818.6,233.5c-25.6,0-38.1-7.6-38.1-23.2c0-15.4,12.5-23,38.1-23c27.5,0,84.3,19.7,93.6,23
		C902.9,213.6,846.1,233.5,818.6,233.5z"/>
	<path d="M818.6,187.8c26.3,0,79.7,18.1,92.1,22.5c-12.5,4.4-65.8,22.7-92.1,22.7c-25.3,0-37.6-7.4-37.6-22.7c0-7,2.5-12.1,7.5-15.8
		C794.6,190.1,804.7,187.8,818.6,187.8 M818.6,186.8c-30.3,0-38.6,10.4-38.6,23.5s8.3,23.7,38.6,23.7c30.3,0,95.1-23.7,95.1-23.7
		S848.9,186.8,818.6,186.8L818.6,186.8z"/>
</g>
<g>
	<path class="st0" d="M116.1,571.5c-27.5,0-84.3-19.9-93.6-23.2c9.4-3.3,66.2-23,93.6-23c25.6,0,38.1,7.5,38.1,23
		C154.2,563.9,141.8,571.5,116.1,571.5z"/>
	<path d="M116.1,525.8c13.8,0,24,2.2,30.1,6.7c5.1,3.7,7.5,8.8,7.5,15.8c0,15.3-12.3,22.7-37.6,22.7c-26.3,0-79.7-18.3-92.1-22.7
		C36.5,543.9,89.8,525.8,116.1,525.8 M116.1,524.8c-30.3,0-95.1,23.5-95.1,23.5S85.8,572,116.1,572c30.3,0,38.6-10.7,38.6-23.7
		S146.4,524.8,116.1,524.8L116.1,524.8z"/>
</g>
</svg>
