<?xml version="1.0" encoding="utf-8"?>
<!-- Generator: Adobe Illustrator 22.0.1, SVG Export Plug-In . SVG Version: 6.00 Build 0)  -->
<svg version="1.1" id="Layer_1" xmlns="http://www.w3.org/2000/svg" xmlns:xlink="http://www.w3.org/1999/xlink" x="0px" y="0px"
	 viewBox="0 0 1366 768" style="enable-background:new 0 0 1366 768;" xml:space="preserve">
<style type="text/css">
	.st0{fill:none;stroke:#000000;stroke-width:0.75;stroke-miterlimit:10;}
</style>
<g>
	<path class="st0" d="M533.8,481.3c-1.6,0-3.4,0-5.3-0.1c-2,0.1-3.7,0.1-5.4,0.1c-40.6,0-91.1-31.8-126.3-58.4
		c-35.9-27.2-63.7-54.7-67.1-58.1c3.4-3.4,31.2-30.9,67.1-58.1c35.2-26.7,85.7-58.4,126.3-58.4c1.6,0,3.3,0,5.3,0.1
		c2-0.1,3.7-0.1,5.4-0.1c46.1,0,156.8,40.2,241.6,73.9v85.3C690.6,441.1,579.9,481.3,533.8,481.3z"/>
	<path class="st0" d="M523.1,248.6c1.6,0,3.3,0,5.3,0.1l0,0l0,0c2-0.1,3.7-0.1,5.3-0.1c46,0,156.4,40.1,241.1,73.8V407
		c-84.8,33.7-195.1,73.8-241.1,73.8c-1.6,0-3.3,0-5.3-0.1l0,0l0,0c-2,0.1-3.7,0.1-5.3,0.1c-17.8,0-39.1-6.1-63.1-18.2
		c-19.3-9.7-40.5-23.2-62.9-40.1c-34.9-26.4-62.1-53.1-66.7-57.8c4.6-4.6,31.8-31.3,66.7-57.7c22.4-17,43.6-30.5,62.9-40.1
		C484.1,254.7,505.3,248.6,523.1,248.6 M523.1,247.6c-78.8,0-194.1,117.1-194.1,117.1s115.3,117.1,194.1,117.1c1.8,0,3.6,0,5.3-0.1
		c1.8,0.1,3.5,0.1,5.3,0.1c46.5,0,158.2-40.7,242.1-74.1v-86c-83.9-33.4-195.7-74.1-242.1-74.1c-1.8,0-3.6,0-5.3,0.1
		C526.7,247.7,524.9,247.6,523.1,247.6L523.1,247.6z"/>
</g>
<g>
	
		<ellipse transform="matrix(0.3827 -0.9239 0.9239 0.3827 -28.7486 687.6564)" class="st0" cx="500.2" cy="365.3" rx="41.1" ry="41.1"/>
	<path class="st0" d="M500.2,324.7c22.4,0,40.6,18.2,40.6,40.6s-18.2,40.6-40.6,40.6s-40.6-18.2-40.6-40.6S477.8,324.7,500.2,324.7
		 M500.2,323.7c-23,0-41.6,18.6-41.6,41.6s18.6,41.6,41.6,41.6s41.6-18.6,41.6-41.6S523.2,323.7,500.2,323.7L500.2,323.7z"/>
</g>
<g>
	<path class="st0" d="M751.3,312.5c7.9,3.1,16,6.3,24.2,9.5v85.3c-8.1,3.2-16.2,6.4-24.2,9.5V312.5z"/>
	<path class="st0" d="M751.8,313.3c7.6,3,15.4,6,23.2,9.1V407c-7.8,3.1-15.6,6.2-23.2,9.1V313.3 M750.8,311.8v105.8
		c8.6-3.3,17-6.7,25.2-9.9v-86C767.8,318.5,759.4,315.1,750.8,311.8L750.8,311.8z"/>
</g>
<g>
	<path class="st0" d="M353.9,387.5c-13.4-12-22.4-20.9-24.2-22.8c1.8-1.8,10.7-10.7,24-22.6C356.8,357.2,356.9,372.4,353.9,387.5z"
		/>
	<path class="st0" d="M353.4,343.1c2.8,14.4,2.9,29,0.2,43.4c-12.3-11.1-20.8-19.4-23.2-21.8C332.8,362.3,341.2,354,353.4,343.1
		 M354.1,341.2C338.6,355,329,364.7,329,364.7s9.7,9.8,25.3,23.7C357.4,372.8,357.3,356.7,354.1,341.2L354.1,341.2z"/>
</g>
<path class="st0" d="M775.5,322.6L641.1,272c0,0,96.3-68.2,199.1-25.1C840.2,246.9,776.9,260.4,775.5,322.6z"/>
<path class="st0" d="M775.5,407.1l-134.4,50.5c0,0,96.3,68.2,199.1,25.1C840.2,482.7,776.9,469.2,775.5,407.1z"/>
<g>
	<path class="st0" d="M853.3,392.3c-30.1,0-44.7-8.9-44.7-27.2c0-18.1,14.6-27,44.7-27c32.4,0,99.7,23.3,109.9,27
		C953,368.7,885.8,392.3,853.3,392.3z"/>
	<path class="st0" d="M853.3,338.6c31.2,0,94.7,21.7,108.4,26.5c-13.7,4.9-77.2,26.7-108.4,26.7c-16.2,0-28.1-2.7-35.3-8
		c-6-4.4-8.9-10.5-8.9-18.8c0-8.2,2.9-14.3,8.9-18.6C825.2,341.2,837.1,338.6,853.3,338.6 M853.3,337.6c-35.5,0-45.2,12.2-45.2,27.5
		c0,15.2,9.7,27.7,45.2,27.7s111.4-27.7,111.4-27.7S888.8,337.6,853.3,337.6L853.3,337.6z"/>
</g>
<g>
	<path class="st0" d="M840.2,384.2c-21.7,0-32.2-6.4-32.2-19.6c0-13,10.5-19.4,32.2-19.4c23.3,0,71.8,16.8,79.1,19.4
		C912,367.2,863.6,384.2,840.2,384.2z"/>
	<path class="st0" d="M840.2,345.5c22.5,0,68.2,15.6,78.1,19.1c-9.9,3.5-55.6,19.2-78.1,19.2c-11.7,0-20.2-1.9-25.4-5.8
		c-4.3-3.2-6.4-7.6-6.4-13.5c0-5.9,2.1-10.3,6.4-13.4C819.9,347.4,828.5,345.5,840.2,345.5 M840.2,344.8c-25.6,0-32.6,8.8-32.6,19.8
		c0,10.9,7,19.9,32.6,19.9c25.6,0,80.2-19.9,80.2-19.9S865.7,344.8,840.2,344.8L840.2,344.8z"/>
</g>
</svg>
