<?xml version="1.0" encoding="utf-8"?>
<!-- Generator: Adobe Illustrator 22.0.1, SVG Export Plug-In . SVG Version: 6.00 Build 0)  -->
<svg version="1.1" id="Layer_1" xmlns="http://www.w3.org/2000/svg" xmlns:xlink="http://www.w3.org/1999/xlink" x="0px" y="0px"
	 viewBox="0 0 1366 768" style="enable-background:new 0 0 1366 768;" xml:space="preserve">
<style type="text/css">
	.st0{fill:#61A39B;}
	.st1{fill:#013A3E;}
	.st2{fill:#B6DADD;}
	.st3{fill:#FFFFFF;}
	.st4{fill:#BFE6EC;stroke:#000000;stroke-width:0.5;stroke-miterlimit:10;}
	.st5{fill:#92D3DD;stroke:#000000;stroke-width:0.5;stroke-miterlimit:10;}
	.st6{fill:none;}
	.st7{fill:#FFB117;}
	.st8{fill:#FFF8DC;}
	.st9{fill:none;stroke:#000000;stroke-width:2;stroke-miterlimit:10;}
	.st10{fill:#92D3DD;}
	.st11{fill:#BFE6EC;}
</style>
<g>
	<rect x="340.8" y="461.4" class="st0" width="199.8" height="244.6"/>
</g>
<g>
	<rect x="755.8" y="461.3" class="st0" width="199.8" height="244.6"/>
	<path class="st0" d="M955.1,461.6v243.8h-199V461.6H955.1 M955.9,461H755.4v245.3h200.5V461L955.9,461z"/>
</g>
<g>
	<polygon class="st1" points="341,418.5 555.7,418.5 582.9,476.1 448.4,475.6 313.8,476.1 	"/>
	<path class="st1" d="M555.5,418.9l26.8,56.5l-133.9-0.5l-133.9,0.5l26.8-56.5h0.4h213.4H555.5 M555.9,418h-0.8H341.7h-0.8
		l-27.7,58.7l135.3-0.5l135.3,0.5L555.9,418L555.9,418z"/>
</g>
<g>
	<polygon class="st1" points="742,418.5 956.7,418.5 983.9,477.4 849.4,476.8 714.8,477.4 	"/>
	<path class="st1" d="M956.5,419l26.8,57.7l-133.9-0.5l-133.9,0.5l26.8-57.7h0.4h213.4H956.5 M956.9,418h-0.8H742.7h-0.8l-27.7,59.9
		l135.3-0.5l135.3,0.5L956.9,418L956.9,418z"/>
</g>
<rect x="600.9" y="195.6" class="st2" width="95.8" height="95.8"/>
<g>
	<rect x="565.6" y="372.9" class="st3" width="164.8" height="63.9"/>
	<path d="M730,373.2v63.2H566v-63.2H730 M730.7,372.5H565.2v64.7h165.5V372.5L730.7,372.5z"/>
</g>
<g>
	<rect x="540.9" y="334.2" class="st2" width="214" height="371.4"/>
	<path class="st2" d="M754.6,334.6v370.7H541.3V334.6H754.6 M755.3,333.8H540.6V706h214.8L755.3,333.8L755.3,333.8z"/>
</g>
<g>
	<rect x="565.6" y="381.9" class="st4" width="164.8" height="63.9"/>
	<path class="st4" d="M730,382.2v63.2H566v-63.2H730 M730.7,381.5H565.2v64.7h165.5V381.5L730.7,381.5z"/>
</g>
<g>
	<rect x="565.6" y="381.9" class="st5" width="82.5" height="63.9"/>
	<path class="st5" d="M647.7,382.2v63.2H566v-63.2H647.7 M648.4,381.5h-83.2v64.7h83.2V381.5L648.4,381.5z"/>
</g>
<g>
	<rect x="565.6" y="381.9" class="st4" width="40.9" height="63.9"/>
	<path class="st4" d="M606.1,382.2v63.2H566v-63.2H606.1 M606.8,381.5h-41.6v64.7h41.6V381.5L606.8,381.5z"/>
</g>
<g>
	<rect x="689.5" y="381.9" class="st5" width="40.9" height="63.9"/>
	<path class="st5" d="M730,382.2v63.2h-40.1v-63.2H730 M730.7,381.5h-41.6v64.7h41.6V381.5L730.7,381.5z"/>
</g>
<g>
	<rect x="565.6" y="487.9" class="st3" width="164.8" height="42.8"/>
	<path class="st6" d="M730,488.2v42.1H566v-42.1L730,488.2"/>
</g>
<g>
	<rect x="596.6" y="576.2" class="st7" width="102.3" height="128.5"/>
	<path class="st7" d="M698.5,576.6v127.9H596.9V576.6H698.5 M699.2,575.9h-103v129.3h102.9L699.2,575.9L699.2,575.9z"/>
</g>
<g>
	<rect x="458.3" y="509.9" class="st5" width="47.7" height="39.4"/>
	<path class="st5" d="M505.6,510.3v38.6h-46.9v-38.6L505.6,510.3 M506.3,509.5h-48.4v40.1h48.4V509.5L506.3,509.5z"/>
</g>
<g>
	<rect x="458" y="509.9" class="st4" width="23.5" height="39.4"/>
	<path class="st4" d="M481.1,510.3v38.6h-22.7v-38.6L481.1,510.3 M481.9,509.5h-24.2v40.1h24.2V509.5L481.9,509.5z"/>
</g>
<g>
	<rect x="458.3" y="549.5" class="st4" width="47.7" height="39.4"/>
	<path class="st4" d="M505.6,549.9v38.6h-46.9v-38.6H505.6 M506.3,549.1h-48.4v40.1h48.4V549.1L506.3,549.1z"/>
</g>
<g>
	<rect x="458" y="549.5" class="st5" width="23.5" height="39.4"/>
	<path class="st5" d="M481.1,549.9v38.6h-22.7v-38.6H481.1 M481.9,549.1h-24.2v40.1h24.2V549.1L481.9,549.1z"/>
</g>
<g>
	<rect x="592.4" y="700.3" class="st1" width="111" height="9.3"/>
	<path class="st1" d="M703,700.7v8.6H592.8v-8.6H703 M703.8,699.9H592V710h111.7L703.8,699.9L703.8,699.9z"/>
</g>
<g>
	<polygon class="st1" points="541,291.5 755.7,291.5 782.9,344.5 648.4,344 513.8,344.5 	"/>
	<path class="st1" d="M755.5,291.9l26.8,52l-133.9-0.5l-133.9,0.5l26.8-52h0.4h213.4H755.5 M755.9,291h-0.8H541.7h-0.8l-27.7,54
		l135.3-0.5l135.3,0.5L755.9,291L755.9,291z"/>
</g>
<g>
	<circle class="st8" cx="648.4" cy="243.1" r="34.9"/>
	<path class="st8" d="M648.4,208.6c19,0,34.5,15.5,34.5,34.5s-15.5,34.5-34.5,34.5s-34.5-15.5-34.5-34.5S629.3,208.6,648.4,208.6
		 M648.4,207.8c-19.5,0-35.3,15.8-35.3,35.3s15.8,35.3,35.3,35.3s35.3-15.8,35.3-35.3S667.9,207.8,648.4,207.8L648.4,207.8z"/>
</g>
<g>
	<line class="st9" x1="636.2" y1="234.9" x2="648.4" y2="244.3"/>
</g>
<g>
	<line class="st9" x1="648.6" y1="244.3" x2="665.3" y2="233.3"/>
</g>
<polygon class="st1" points="696.7,195.6 600.9,195.6 648.8,54.5 "/>
<g>
	<rect x="372.3" y="509.4" class="st5" width="47.7" height="39.4"/>
	<path class="st5" d="M419.6,509.8v38.6h-46.9v-38.6L419.6,509.8 M420.3,509h-48.4v40.1h48.4V509L420.3,509z"/>
</g>
<g>
	<rect x="372" y="509.4" class="st4" width="23.5" height="39.4"/>
	<path class="st4" d="M395.1,509.8v38.6h-22.7v-38.6L395.1,509.8 M395.9,509h-24.2v40.1h24.2V509L395.9,509z"/>
</g>
<g>
	<rect x="372.3" y="549" class="st4" width="47.7" height="39.4"/>
	<path class="st4" d="M419.6,549.5V588h-46.9v-38.6L419.6,549.5 M420.3,548.6h-48.4v40.1h48.4V548.6L420.3,548.6z"/>
</g>
<g>
	<rect x="372" y="549" class="st5" width="23.5" height="39.4"/>
	<path class="st5" d="M395.1,549.5V588h-22.7v-38.6L395.1,549.5 M395.9,548.6h-24.2v40.1h24.2V548.6L395.9,548.6z"/>
</g>
<g>
	<rect x="871.3" y="511.4" class="st5" width="47.7" height="39.4"/>
	<path class="st5" d="M918.6,511.8v38.6h-46.9v-38.6L918.6,511.8 M919.3,511h-48.4v40.1h48.4V511L919.3,511z"/>
</g>
<g>
	<rect x="871" y="511.4" class="st4" width="23.5" height="39.4"/>
	<path class="st4" d="M894.1,511.8v38.6h-22.7v-38.6L894.1,511.8 M894.9,511h-24.2v40.1h24.2V511L894.9,511z"/>
</g>
<g>
	<rect x="871.3" y="551" class="st4" width="47.7" height="39.4"/>
	<path class="st4" d="M918.6,551.4V590h-46.9v-38.6H918.6 M919.3,550.6h-48.4v40.1h48.4V550.6L919.3,550.6z"/>
</g>
<g>
	<rect x="871" y="551" class="st5" width="23.5" height="39.4"/>
	<path class="st5" d="M894.1,551.4V590h-22.7v-38.6H894.1 M894.9,550.6h-24.2v40.1h24.2V550.6L894.9,550.6z"/>
</g>
<g>
	<rect x="785.3" y="510.9" class="st10" width="47.7" height="39.4"/>
	<path class="st10" d="M832.6,511.3v38.6h-46.9v-38.6L832.6,511.3 M833.3,510.5h-48.4v40.1h48.4V510.5L833.3,510.5z"/>
</g>
<g>
	<rect x="785" y="510.9" class="st11" width="23.5" height="39.4"/>
	<path class="st11" d="M808.1,511.3v38.6h-22.7v-38.6L808.1,511.3 M808.9,510.5h-24.2v40.1h24.2V510.5L808.9,510.5z"/>
</g>
<g>
	<rect x="785.3" y="550.5" class="st11" width="47.7" height="39.4"/>
	<path class="st11" d="M832.6,551v38.6h-46.9V551H832.6 M833.3,550.1h-48.4v40.1h48.4V550.1L833.3,550.1z"/>
</g>
<g>
	<rect x="785" y="550.5" class="st10" width="23.5" height="39.4"/>
	<path class="st10" d="M808.1,551v38.6h-22.7V551H808.1 M808.9,550.1h-24.2v40.1h24.2V550.1L808.9,550.1z"/>
</g>
</svg>
