<?xml version="1.0" encoding="utf-8"?>
<!-- Generator: Adobe Illustrator 22.0.1, SVG Export Plug-In . SVG Version: 6.00 Build 0)  -->
<svg version="1.1" id="Layer_1" xmlns="http://www.w3.org/2000/svg" xmlns:xlink="http://www.w3.org/1999/xlink" x="0px" y="0px"
	 viewBox="0 0 1366 768" style="enable-background:new 0 0 1366 768;" xml:space="preserve">
<style type="text/css">
	.st0{fill:none;stroke:#000000;stroke-width:0.5;stroke-miterlimit:10;}
</style>
<g>
	<path d="M733,261v61H547.9l-36.3-30.5l36.3-30.5H733 M734,260H547.5L510,291.5l37.5,31.5H734V260L734,260z"/>
</g>
<line class="st0" x1="576" y1="267" x2="733" y2="267"/>
<g>
	<path d="M684,249c4.4,0,8,3.6,8,8v282c0,4.4-3.6,8-8,8s-8-3.6-8-8V257C676,252.6,679.6,249,684,249 M684,248c-5,0-9,4-9,9v282
		c0,5,4,9,9,9s9-4,9-9V257C693,252,689,248,684,248L684,248z"/>
</g>
</svg>
