<?xml version="1.0" encoding="utf-8"?>
<!-- Generator: Adobe Illustrator 22.0.1, SVG Export Plug-In . SVG Version: 6.00 Build 0)  -->
<svg version="1.1" id="Layer_1" xmlns="http://www.w3.org/2000/svg" xmlns:xlink="http://www.w3.org/1999/xlink" x="0px" y="0px"
	 viewBox="0 0 1366 768" style="enable-background:new 0 0 1366 768;" xml:space="preserve">
<g>
	<path d="M455.4,33c3.6,0,6.9,2,8.9,5.3l96.3,165.2c2.2,3.7,2.2,8.4,0,12.2c-1.9,3.4-5.3,5.4-8.9,5.4H359.1c-3.6,0-7-2-8.9-5.4
		c-2.2-3.8-2.2-8.4,0-12.2l96.3-165.2C448.5,35,451.8,33,455.4,33 M455.4,32c-3.7,0-7.5,1.9-9.7,5.8L349.4,203
		c-4.8,8.3,0.7,19,9.7,19h192.6c9.1,0,14.6-10.8,9.7-19L465.2,37.8C462.9,33.9,459.2,32,455.4,32L455.4,32z"/>
</g>
<g>
	<path d="M455.1,68.3L534.5,202H375.8L455.1,68.3 M455.1,66.3L374,203h162.3L455.1,66.3L455.1,66.3z"/>
</g>
<g>
	<path d="M464.1,129v67h-17v-67H464.1 M465.1,128h-19v69h19V128L465.1,128z"/>
</g>
<g>
	<path d="M487,129v17h-63v-17H487 M488,128h-65v19h65V128L488,128z"/>
</g>
<g>
	<path d="M456,204c4.4,0,8,3.6,8,8v282c0,4.4-3.6,8-8,8s-8-3.6-8-8V212C448,207.6,451.6,204,456,204 M456,203c-5,0-9,4.1-9,9v282
		c0,5,4,9,9,9s9-4,9-9V212C465,207.1,461,203,456,203L456,203z"/>
</g>
</svg>
