<?xml version="1.0" encoding="utf-8"?>
<!-- Generator: Adobe Illustrator 22.0.1, SVG Export Plug-In . SVG Version: 6.00 Build 0)  -->
<svg version="1.1" id="Layer_1" xmlns="http://www.w3.org/2000/svg" xmlns:xlink="http://www.w3.org/1999/xlink" x="0px" y="0px"
	 viewBox="0 0 1366 768" style="enable-background:new 0 0 1366 768;" xml:space="preserve">
<style type="text/css">
	.st0{fill:#DBD4D1;}
	.st1{fill:#FFFFFF;stroke:#DBD4D1;stroke-width:3;stroke-miterlimit:10;}
	.st2{fill:#59ABE3;}
	.st3{fill:#FFFFFF;}
</style>
<path class="st0" d="M326.7,260.3c6.9,0,12.6,5.8,12.6,13v456.9c0,7.1-5.7,13-12.6,13s-12.6-5.8-12.6-13V273.3
	C314.1,266.2,319.7,260.3,326.7,260.3"/>
<path class="st1" d="M325.7,65.2c29.4,0,57,11.3,77.8,32.1c20.8,20.7,32.2,48.1,32.2,77.3s-11.3,56.6-32.2,77.3S355.1,284,325.7,284
	s-57-11.3-77.8-32.1s-32.2-48.1-32.2-77.3S227,118,247.9,97.3C268.7,76.6,296.2,65.2,325.7,65.2"/>
<path class="st2" d="M325.7,76.2c26.5,0,51.2,10.1,69.9,28.8c18.7,18.6,29,43.3,29,69.5s-10.2,50.9-29,69.5s-43.5,28.8-69.9,28.8
	s-51.2-10.1-69.9-28.8s-29-43.3-29-69.5s10.2-50.9,29-69.5C274.5,86.5,299.2,76.2,325.7,76.2"/>
<path class="st3" d="M394,165l-62.6-42.6v29.4h-38.8c-7.5,0-13.7,6.1-13.7,13.6c0,1.2,0.1,2.2,0.4,3.2V217c0,7.4,6.2,13.6,13.7,13.6
	s13.7-6.1,13.7-13.6v-38.3h24.6V207L394,165z"/>
</svg>
