<?xml version="1.0" encoding="utf-8"?>
<!-- Generator: Adobe Illustrator 22.0.1, SVG Export Plug-In . SVG Version: 6.00 Build 0)  -->
<svg version="1.1" id="Layer_1" xmlns="http://www.w3.org/2000/svg" xmlns:xlink="http://www.w3.org/1999/xlink" x="0px" y="0px"
	 viewBox="0 0 1366 768" style="enable-background:new 0 0 1366 768;" xml:space="preserve">
<g>
	<path d="M683,274c29.4,0,57,11.4,77.8,32.2C781.6,327,793,354.6,793,384s-11.4,57-32.2,77.8C740,482.6,712.4,494,683,494
		s-57-11.4-77.8-32.2C584.4,441,573,413.4,573,384s11.4-57,32.2-77.8C626,285.4,653.6,274,683,274 M683,273
		c-61.3,0-111,49.7-111,111s49.7,111,111,111s111-49.7,111-111S744.3,273,683,273L683,273z"/>
</g>
<g>
	<path d="M777,365v38H590v-38H777 M778,364H589v40h189V364L778,364z"/>
</g>
</svg>
