<?xml version="1.0" encoding="utf-8"?>
<!-- Generator: Adobe Illustrator 22.0.1, SVG Export Plug-In . SVG Version: 6.00 Build 0)  -->
<svg version="1.1" id="Layer_1" xmlns="http://www.w3.org/2000/svg" xmlns:xlink="http://www.w3.org/1999/xlink" x="0px" y="0px"
	 viewBox="0 0 1366 768" style="enable-background:new 0 0 1366 768;" xml:space="preserve">
<style type="text/css">
	.st0{fill:none;stroke:#000000;stroke-miterlimit:10;}
</style>
<g>
	<path d="M936,120.8c21.3,0,41.2,8.2,56.2,23.3c15,15,23.3,35,23.3,56.2s-8.2,41.2-23.3,56.2c-15,15-35,23.3-56.2,23.3
		s-41.2-8.2-56.2-23.3c-15-15-23.3-35-23.3-56.2s8.2-41.2,23.3-56.2C894.8,129,914.7,120.8,936,120.8 M936,120
		c-44.3,0-80.3,35.9-80.3,80.3s35.9,80.3,80.3,80.3s80.3-35.9,80.3-80.3S980.3,120,936,120L936,120z"/>
</g>
<path class="st0" d="M883.9,190.3l47.9-33.3v23h29.6c5.7,0,10.4,4.8,10.4,10.6c0,0.9-0.1,1.7-0.3,2.5v37.9c0,5.8-4.7,10.6-10.4,10.6
	c-5.7,0-10.4-4.8-10.4-10.6V201h-18.8V223L883.9,190.3z"/>
<g>
	<path d="M936,260c4.4,0,8,3.6,8,8v282c0,4.4-3.6,8-8,8s-8-3.6-8-8V268C928,263.6,931.6,260,936,260 M936,259c-5,0-9,4-9,9v282
		c0,5,4,9,9,9s9-4,9-9V268C945,263,941,259,936,259L936,259z"/>
</g>
<g>
	<path d="M936,114c23.1,0,44.7,8.9,61.1,25.3s25.3,38,25.3,61.1s-8.9,44.7-25.3,61.1s-38,25.3-61.1,25.3s-44.7-8.9-61.1-25.3
		s-25.3-38-25.3-61.1s8.9-44.7,25.3-61.1S912.9,114,936,114 M936,113.2c-48.1,0-87.1,39-87.1,87.1s39,87.1,87.1,87.1
		s87.1-39,87.1-87.1S984.1,113.2,936,113.2L936,113.2z"/>
</g>
</svg>
