<?xml version="1.0" encoding="utf-8"?>
<!-- Generator: Adobe Illustrator 22.0.1, SVG Export Plug-In . SVG Version: 6.00 Build 0)  -->
<svg version="1.1" id="Layer_1" xmlns="http://www.w3.org/2000/svg" xmlns:xlink="http://www.w3.org/1999/xlink" x="0px" y="0px"
	 viewBox="0 0 1366 768" style="enable-background:new 0 0 1366 768;" xml:space="preserve">
<style type="text/css">
	.st0{fill:none;stroke:#000000;stroke-miterlimit:10;}
</style>
<path class="st0" d="M910.4,245.8L862,212.5v23H832c-5.8,0-10.6,4.8-10.6,10.6c0,0.9,0.1,1.7,0.3,2.5v37.9c0,5.8,4.8,10.6,10.6,10.6
	c5.8,0,10.6-4.8,10.6-10.6v-29.9h19v22.1L910.4,245.8z"/>
<g>
	<path d="M858,179.3c21.3,0,41.2,8.2,56.2,23.3c15,15,23.3,35,23.3,56.2s-8.2,41.2-23.3,56.2c-15,15-35,23.3-56.2,23.3
		s-41.2-8.2-56.2-23.3c-15-15-23.3-35-23.3-56.2s8.2-41.2,23.3-56.2C816.8,187.6,836.7,179.3,858,179.3 M858,178.6
		c-44.3,0-80.3,35.9-80.3,80.2s35.9,80.3,80.3,80.3s80.3-35.9,80.3-80.3S902.3,178.6,858,178.6L858,178.6z"/>
</g>
<g>
	<path d="M858,321c4.4,0,8,3.6,8,8v282c0,4.4-3.6,8-8,8s-8-3.6-8-8V329C850,324.6,853.6,321,858,321 M858,320c-5,0-9,4-9,9v282
		c0,5,4,9,9,9s9-4,9-9V329C867,324,863,320,858,320L858,320z"/>
</g>
<g>
	<path d="M858,172.5c23.1,0,44.7,8.9,61.1,25.3c16.3,16.3,25.3,38,25.3,61.1c0,23.1-8.9,44.7-25.3,61.1
		c-16.3,16.3-38,25.3-61.1,25.3s-44.7-8.9-61.1-25.3c-16.3-16.3-25.3-38-25.3-61.1c0-23.1,8.9-44.7,25.3-61.1
		C813.3,181.5,834.9,172.5,858,172.5 M858,171.7c-48.1,0-87.1,39-87.1,87.1s39,87.1,87.1,87.1s87.1-39,87.1-87.1
		S906.1,171.7,858,171.7L858,171.7z"/>
</g>
</svg>
