<?xml version="1.0" encoding="utf-8"?>
<!-- Generator: Adobe Illustrator 22.0.1, SVG Export Plug-In . SVG Version: 6.00 Build 0)  -->
<svg version="1.1" id="Layer_1" xmlns="http://www.w3.org/2000/svg" xmlns:xlink="http://www.w3.org/1999/xlink" x="0px" y="0px"
	 viewBox="0 0 1366 768" style="enable-background:new 0 0 1366 768;" xml:space="preserve">
<style type="text/css">
	.st0{fill:none;stroke:#000000;stroke-width:0.5;stroke-miterlimit:10;}
</style>
<g>
	<path d="M757.1,261l36.3,30.5L757.1,322H572v-61H757.1 M757.5,260H571v63h186.5l37.5-31.5L757.5,260L757.5,260z"/>
</g>
<line class="st0" x1="572" y1="267" x2="729" y2="267"/>
<g>
	<path d="M623,249c4.4,0,8,3.6,8,8v282c0,4.4-3.6,8-8,8s-8-3.6-8-8V257C615,252.6,618.6,249,623,249 M623,248c-5,0-9,4-9,9v282
		c0,5,4,9,9,9s9-4,9-9V257C632,252,628,248,623,248L623,248z"/>
</g>
</svg>
