<?xml version="1.0" encoding="utf-8"?>
<!-- Generator: Adobe Illustrator 22.0.1, SVG Export Plug-In . SVG Version: 6.00 Build 0)  -->
<svg version="1.1" id="Layer_1" xmlns="http://www.w3.org/2000/svg" xmlns:xlink="http://www.w3.org/1999/xlink" x="0px" y="0px"
	 viewBox="0 0 1366 768" style="enable-background:new 0 0 1366 768;" xml:space="preserve">
<style type="text/css">
	.st0{fill:none;stroke:#000000;stroke-miterlimit:10;}
</style>
<g>
	<path d="M682,83c23.1,0,44.7,8.9,61,25.3c16.3,16.3,25.3,38,25.3,61s-8.9,44.7-25.3,61s-38,25.3-61,25.3s-44.7-8.9-61-25.3
		s-25.3-38-25.3-61s8.9-44.7,25.3-61C637.3,92,658.9,83,682,83 M682,82.2c-48.1,0-87.1,39-87.1,87.1s39,87.1,87.1,87.1
		s87.1-39,87.1-87.1S730.1,82.2,682,82.2L682,82.2z"/>
</g>
<rect x="611" y="155" class="st0" width="142" height="28.7"/>
<g>
	<path d="M682,234c4.4,0,8,3.6,8,8v282c0,4.4-3.6,8-8,8s-8-3.6-8-8V242C674,237.6,677.6,234,682,234 M682,233c-5,0-9,4-9,9v282
		c0,5,4,9,9,9s9-4,9-9V242C691,237,687,233,682,233L682,233z"/>
</g>
</svg>
