<?xml version="1.0" encoding="utf-8"?>
<!-- Generator: Adobe Illustrator 22.0.1, SVG Export Plug-In . SVG Version: 6.00 Build 0)  -->
<svg version="1.1" id="Layer_1" xmlns="http://www.w3.org/2000/svg" xmlns:xlink="http://www.w3.org/1999/xlink" x="0px" y="0px"
	 viewBox="0 0 1366 768" style="enable-background:new 0 0 1366 768;" xml:space="preserve">
<style type="text/css">
	.st0{fill:#DBD4D1;}
	.st1{fill:#FFFFFF;stroke:#DBD4D1;stroke-width:3;stroke-miterlimit:10;}
	.st2{fill:#59ABE3;}
	.st3{fill:#FFFFFF;}
</style>
<path class="st0" d="M681.7,242.6c6.9,0,12.6,5.8,12.6,12.9V710c0,7.1-5.7,12.9-12.6,12.9c-6.9,0-12.6-5.8-12.6-12.9V255.5
	C669.1,248.4,674.8,242.6,681.7,242.6"/>
<path class="st1" d="M681.7,44.9c29.4,0,57,11,77.8,31.4c20.8,20.2,32.2,47.1,32.2,75.7s-11.3,55.4-32.2,75.7
	c-21,20.1-48.5,31.3-77.8,31.3s-57-11-77.8-31.4c-20.8-20.3-32.2-47.1-32.2-75.7s11.3-55.4,32.2-75.7
	C624.7,56.1,652.2,44.9,681.7,44.9"/>
<path class="st2" d="M681.7,55.7c26.5,0,51.2,9.9,69.9,28.2c18.7,18.2,29,42.4,29,68s-10.2,49.8-29,68s-43.5,28.2-69.9,28.2
	s-51.2-9.9-69.9-28.2s-29-42.4-29-68s10.2-49.8,29-68C630.5,65.7,655.2,55.7,681.7,55.7"/>
<path class="st3" d="M615,142.6l62.6-41.7v28.8h38.8c7.5,0,13.7,6,13.7,13.3c0,1.1-0.1,2.1-0.4,3.1v47.5c0,7.3-6.2,13.3-13.7,13.3
	s-13.7-6-13.7-13.3v-37.5h-24.6v27.7L615,142.6z"/>
</svg>
