<?xml version="1.0" encoding="utf-8"?>
<!-- Generator: Adobe Illustrator 22.0.1, SVG Export Plug-In . SVG Version: 6.00 Build 0)  -->
<svg version="1.1" id="Layer_1" xmlns="http://www.w3.org/2000/svg" xmlns:xlink="http://www.w3.org/1999/xlink" x="0px" y="0px"
	 viewBox="0 0 1366 768" style="enable-background:new 0 0 1366 768;" xml:space="preserve">
<style type="text/css">
	.st0{fill:none;stroke:#777777;stroke-width:0.75;stroke-miterlimit:10;}
</style>
<g>
	<line class="st0" x1="467.5" y1="345.5" x2="467" y2="698"/>
</g>
<g>
	<g>
		<path class="st0" d="M494,695c-17.7,0-35.3,0-53,0c-7.7,0-7.7,12,0,12c17.7,0,35.3,0,53,0C501.7,707,501.7,695,494,695L494,695z"
			/>
	</g>
</g>
<polygon class="st0" points="491.8,244.4 442,244.4 415.3,279 442,343.6 491.8,343.6 519.2,279 "/>
<polygon class="st0" points="415.3,279 442,343.6 467.2,343.6 467.2,279 "/>
<polygon class="st0" points="441.4,236 407.5,279 526.9,279 491.2,236 "/>
<circle class="st0" cx="467.2" cy="220.7" r="10.7"/>
</svg>
