<?xml version="1.0" encoding="utf-8"?>
<!-- Generator: Adobe Illustrator 22.0.1, SVG Export Plug-In . SVG Version: 6.00 Build 0)  -->
<svg version="1.1" id="Layer_1" xmlns="http://www.w3.org/2000/svg" xmlns:xlink="http://www.w3.org/1999/xlink" x="0px" y="0px"
	 viewBox="0 0 1366 768" style="enable-background:new 0 0 1366 768;" xml:space="preserve">
<g>
	<path d="M689.8,249.5v239.1c-31.7-0.1-61.5-12.6-84-35c-22.6-22.6-35-52.6-35-84.5s12.4-61.9,35-84.5
		C628.3,262.1,658.1,249.7,689.8,249.5 M690.4,248.5c-66.6,0-120.5,54-120.5,120.5s54,120.5,120.5,120.5c0.1,0,0.3,0,0.4,0V248.5
		C690.6,248.5,690.5,248.5,690.4,248.5L690.4,248.5z"/>
</g>
<g>
	<path d="M689.9,249.5c31.9,0,61.9,12.4,84.5,35c22.6,22.6,35,52.6,35,84.5s-12.4,61.9-35,84.5c-22.6,22.6-52.6,35-84.5,35
		c-31.9,0-61.9-12.4-84.5-35c-22.6-22.6-35-52.6-35-84.5s12.4-61.9,35-84.5C628,262,658,249.5,689.9,249.5 M689.9,248.5
		c-66.6,0-120.5,54-120.5,120.5s54,120.5,120.5,120.5s120.5-54,120.5-120.5S756.5,248.5,689.9,248.5L689.9,248.5z"/>
</g>
<g>
	<path d="M871.7,349.2c26.1,0,51.3,7.2,72.8,20.7l0.1,0.1l0.1,0c14.5,4.6,31.5,9.5,49.2,9.5c3.1,0,6.2-0.2,9.2-0.5l0,0l0,0
		c5.6-0.9,11.3-1.9,16.9-3.1c-14.7,4.7-30.1,7.1-45.4,7.1c-11.4,0-22.6-1.4-33.4-4c-17.8-7.9-37.3-12.1-56.5-12.1
		c-20.8,0-40.8,4.9-57.8,14.3v-24.6C841.2,351.7,856.2,349.2,871.7,349.2 M871.7,348.2c-15.5,0-31,2.6-45.7,7.8c0,9,0,18,0,27
		c18-10.3,38.4-15,58.8-15c19.3,0,38.7,4.2,56.2,12c11,2.7,22.3,4.1,33.7,4.1c21.8,0,43.6-4.9,63.3-14.1c-11,4-23,6-35,8
		c-3.1,0.3-6.1,0.4-9.1,0.4c-16.7,0-32.8-4.4-48.9-9.4C923.2,355.3,897.4,348.2,871.7,348.2L871.7,348.2z"/>
</g>
<g>
	<path d="M403.8,348.6v1c10,0,20.1,1.1,29.9,3.3c20.1,8.5,41.4,12.9,61.5,12.9c21.2,0,40.6-4.8,57.8-14.2v24.6
		c-15.1,5-30.4,7.5-45.5,7.5c-16.2,0-31.7-2.9-46.1-8.7c-5.5-2.1-10.9-4.6-16.1-7c-11.8-5.4-24.1-11-38.1-13.1
		c-5.7-0.8-11.5-1.2-17.4-1.2c-10.5,0-21.3,1.3-32.2,3.7c15-5.3,30.5-8,46.2-8L403.8,348.6 M403.8,348.6c-21.1,0-42.2,4.9-61.8,14.4
		c15.5-5.2,31.6-8.2,47.8-8.2c5.7,0,11.5,0.4,17.2,1.2c20,3,36,13,54,20c15,6,30.8,8.8,46.5,8.8S539,382,554,377c0-9,0-18,0-27
		c-18.3,10.4-38.4,14.9-58.8,14.9c-20.9,0-42-4.8-61.2-12.9C424,349.7,413.9,348.6,403.8,348.6L403.8,348.6z"/>
</g>
<g>
	<path d="M697.6,42.7c7.4,23.5,8,49.8,1.5,76c-16.3,37.9-15.5,80.5,2.3,114.3h-23.7c-8.8-20-8.6-42.5-7.7-61.9
		c1.2-14.9,7.6-28.8,13.8-42.1c4.1-8.9,8.4-18.1,11.2-27.7C700.5,80.8,701.3,60.9,697.6,42.7 M690,22c11,25,11,53,4,79
		c-7,24-23,45-25,70c-1,21-1,43,8,63c9,0,17,0,26,0c-19-35-19-78-3-115C708,87,706,52,690,22L690,22z"/>
</g>
<g>
	<path d="M984.2,199.6c-16.3,22.3-37.7,38.6-61.5,46.5c-7.8,2.9-15.9,4.9-23.7,6.9c-11.2,2.8-22.7,5.8-33.4,11.1
		c-18.3,9.2-34.6,23.2-48.3,41.9c-1.8-4.1-4.3-8-6.7-11.8c-1.9-2.9-3.8-5.9-5.4-9c10.4-10.4,18.9-17.4,28.3-23.4
		c1.4-1,2.9-1.7,4.4-2.4c1.5-0.7,3-1.5,4.6-2.5c22.9-11.4,47.4-15.2,68.6-17.9c12-1,25.3-5.1,36.4-11.1l0,0l0,0
		c2.9-1.9,5.9-3.9,8.8-4.9l0.1,0l0.1-0.1C967.4,216.3,976.3,208.1,984.2,199.6 M993,188c-11,13-22,25-37,34c-3,1-6,3-9,5
		c-11,6-24,10-36,11c-24,3-47,7-69,18c-3,2-6,3-9,5c-11,7-20,15-29,24c4,8,10,15,13,23c13-18,29-33,49-43c18-9,38-11,57-18
		C953,237,977,215,993,188L993,188z"/>
</g>
<g>
	<path d="M860,80.3c-1.5,12.7-4.8,25.1-9.8,37.1c-7.2,17.2-17.6,32.6-30.9,45.9c-10.2,9.2-20.7,19.5-29.2,32.2l0,0.1l0,0.1
		c-1.5,3-3,5.8-4.5,8.5c-1.5,2.7-3,5.5-4.5,8.5l0,0.1l0,0.1c-5.7,15.8-8.9,29.8-9.9,42.8c-3.5-1.8-6.8-3.8-10.1-5.8
		c-3.5-2.1-7.1-4.3-10.9-6.2c6-31.1,24.2-55.6,38.5-70.7c19.9-13.6,37.3-26.5,50.2-46.2c1.4-2.3,2.9-4.4,4.2-6.5
		c3.4-5.1,6.7-9.9,8.8-15.7C855.3,97,858,89.2,860,80.3 M862,64c-2,14-5,27-11,40c-3,8-8,14-13,22c-13,20-31,33-50,46
		c-19,20-34,45-39,72c8,4,15,9,23,13c1-15,5-30,10-44c3-6,6-11,9-17c8-12,18-22,29-32C847,137,862,101,862,64L862,64z"/>
</g>
<g>
	<path d="M706.3,506c7.2,24.2,9.3,43.3,6.8,61.9c-2.9,21.5-11.7,40.2-21.9,60.7l0,0.1l0,0.1l-3,9l0,0l0,0
		c-5.3,19.9-5.9,40.5-1.9,59.9c-8.2-25.3-9.1-52.5-2.2-77.3c15.8-35.9,16.5-73.8,2-106.7l0-0.1l0-0.1c-1.6-2.5-3.3-5-4.4-7.4H706.3
		 M707,505c-9,0-18,0-27,0c1,3,3,6,5,9c15,34,13,72-2,106c-9,32-5,67,10,97c-10-25-11-53-4-79c1-3,2-6,3-9c10-20,19-39,22-61
		S713,525,707,505L707,505z"/>
</g>
<g>
	<path d="M782.7,481.2c15.1,16.1,26.6,37.7,34.3,64.1c2.4,9.5,2.6,18.9,2.9,28.9c0.2,6.5,0.3,13.2,1.1,20
		c3.4,26.2,14.4,50.5,31.6,69.9c-11.8-10.6-21.6-23.6-29.4-38.9c-9.7-19-15.6-40.9-17.1-63.2l0-0.1l0-0.1
		c-6.1-20.6-18.9-49.4-45.1-70.5C768.1,487.6,775.5,483.9,782.7,481.2 M783,480c-8,3-16,7-24,11c23,18,38,44,46,71
		c3,44,23,88,60,113c-24-21-39-50-43-81c-2-17,0-33-4-49C811,521,800,498,783,480L783,480z"/>
</g>
<g>
	<path d="M823.3,425.1c29,8.8,54.8,27.4,72.8,52.4c15.6,32.9,45.7,58.8,80.8,70.3c-36.4-7.2-70.6-30.2-92.1-62.4l0-0.1l-0.1-0.1
		c-19.6-20.6-46.3-34.8-75.2-40.1C813,438.6,817.4,432.1,823.3,425.1 M823,424c-6,7-11,14-15,22c29,5,56,19,76,40
		c24,36,65,62,109,65c-41-8-78-36-96-74C879,452,853,433,823,424L823,424z"/>
</g>
<g>
	<path d="M412.1,192.1c31.9,7.1,57.9,23,76.1,46.5l0,0.1l0,0c0.6,0.6,1.4,1.1,2.2,1.6c0.7,0.4,1.3,0.9,1.8,1.3
		c22.7,34,58.1,47.1,84.3,52.1c-3.5,6.7-7.9,13.1-13.8,20.1c-19.5-6-37.3-15.9-53-29.6c-0.6-0.6-1.2-1.3-1.9-2.1
		c-1.4-1.7-3.1-3.5-5.2-5c-7.5-8.4-13.4-17-19.8-28.7l0,0l0,0c-5.6-8.9-11.7-16.7-18.1-23.2l-0.1-0.1l-0.1-0.1
		c-2.9-1.9-4.8-3.8-6.7-6.7l-0.1-0.1l-0.1-0.1C444.8,206.8,429.5,198,412.1,192.1 M393,188c24,5,46,15,64,31c2,3,4,5,7,7
		c7,7,13,15,18,23c6,11,12,20,20,29c3,2,5,5,7,7c16,14,34,24,54,30c6-7,11-14,15-22c-33-6-65-22-85-52c-1-1-3-2-4-3
		C465,207,430,192,393,188L393,188z"/>
</g>
<g>
	<path d="M533.5,72.2c20.4,16.6,35.6,40.1,42.5,66.1c2.4,8.3,4,16.8,5.6,25c2.9,15.6,5.9,31.7,14.5,46.2l0,0l0,0
		c10.4,15.7,18.9,27.7,32,38.3c-7.2,3.6-14.6,7.2-21.9,10c-6.7-7.6-13.5-15.6-18.4-25.2c-1-3.1-3.1-6.1-5.1-9.1
		c-8.4-17.9-12.9-36.8-12.9-54.5c0-30-7.4-56.4-22.1-78.5c-2.1-5.1-5.2-9.2-9.2-12.3c-1.8-1.8-3.4-3.9-5-5.8
		C533.6,72.4,533.6,72.3,533.5,72.2 M524,64c6,4,9,10,14,15c4,3,7,7,9,12c16,24,22,51,22,78c0,19,5,38,13,55c2,3,4,6,5,9
		c5,10,12,18,19,26c8-3,16-7,24-11c-14-11-23-24-33-39c-13-22-13-47-20-71C569,108,550,81,524,64L524,64z"/>
</g>
<g>
	<path d="M607,483.9c6.5,4.4,13.9,8.1,21,11.7c-0.1,5.1-1.9,9.9-3.7,15c-1.2,3.2-2.4,6.5-3.2,9.9c-0.5,0.5-1,1.3-1.4,1.9
		c-0.5,0.7-0.9,1.4-1.4,1.8l-0.2,0.2l-0.1,0.2c-9.1,27.4-30.9,43.8-54,61.2c-1.9,1.4-3.8,2.9-5.7,4.3l-0.1,0l0,0l-7,7
		c-14.3,15.1-25.2,35.1-31.9,58.6c1.7-11.4,4.1-22.7,8.6-33.5c8.6-20.6,22.7-39,45.7-59.6l0,0l0,0c11.7-12.8,20.5-27.1,25.2-41.4
		l3-9l0-0.1l0-0.1c0.5-2.5,1.1-5,1.6-7.5C605.1,497.9,606.7,490.9,607,483.9 M606,482c0,10-3,20-5,30c-1,3-2,6-3,9
		c-5,15-14,29-25,41c-19,17-36,36-46,60c-7,17-9,35-11,53c5-28,16-56,36-77c2-2,5-5,7-7c25-19,50-36,60-66c1-1,2-3,3-4
		c2-9,7-17,7-26C621,491,613,487,606,482L606,482z"/>
</g>
<g>
	<path d="M564.8,432.9c1.8,3.5,3.5,6.8,5.3,10.1c1.9,3.5,3.8,7.1,5.7,10.9c-14,15.9-31.2,25.7-46.2,33.2
		c-19.8,8.9-42.1,11-63.6,12.9c-0.8,0-1.6,0.6-2.5,1.2c-0.4,0.3-1.2,0.8-1.4,0.8h-0.1l-0.1,0c-19.9,3.6-37.8,12.9-56.5,29.2
		l-0.1,0.1l-0.1,0.1c-1.3,1.9-3,3.4-4.7,4.9c-0.3,0.3-0.6,0.5-0.9,0.7c8-10.4,17.6-19.7,28.9-28.2c14.6-10.1,27.2-16.3,40.7-19.9
		c3.9-1,7.8-1.8,11.6-2.7c11.9-2.6,24.1-5.3,35.6-11.4C536.2,464.1,552,450.3,564.8,432.9 M565,431c-13,18-29,32-49,43
		c-15,8-31,10-47,14c-15,4-28,11-41,20c-16,12-29,26-39,43c3-5,7-8,10-12c2-2,5-4,7-7c16-14,34-25,56-29c1,0,3-2,4-2
		c22-2,44-4,64-13c18-9,34-19,47-34C573,446,569,439,565,431L565,431z"/>
</g>
</svg>
