<?xml version="1.0" encoding="utf-8"?>
<!-- Generator: Adobe Illustrator 22.0.1, SVG Export Plug-In . SVG Version: 6.00 Build 0)  -->
<svg version="1.1" id="Layer_1" xmlns="http://www.w3.org/2000/svg" xmlns:xlink="http://www.w3.org/1999/xlink" x="0px" y="0px"
	 viewBox="0 0 1366 768" style="enable-background:new 0 0 1366 768;" xml:space="preserve">
<style type="text/css">
	.st0{fill:#FFB117;}
	.st1{fill:#FFF933;}
</style>
<path class="st0" d="M574,177.4c20.9,0,40.6,8.1,55.4,22.8c14.8,14.7,22.9,34.3,22.9,55s-8.2,40.3-22.9,55
	C614.6,325,594.9,333,574,333s-40.6-8.1-55.4-22.8c-14.8-14.7-22.9-34.3-22.9-55s8.2-40.3,22.9-55
	C533.4,185.5,553.1,177.4,574,177.4"/>
<path class="st1" d="M574.3,177.4c-43.2-0.5-79,35.2-79,78.5S531,333,574.6,333c0.1,0-0.1,1.4,0,1.4v-157
	C574.5,177.4,574.4,177.4,574.3,177.4L574.3,177.4z"/>
<path class="st1" d="M692.4,242.3c17,0,33.4,4.7,47.4,13.5l0.1,0.1h0.1c9.4,3,20.5,6.2,32,6.2c2,0,4-0.1,6-0.3l0,0l0,0
	c3.6-0.6,7.4-1.2,11-2c-9.6,3.1-19.6,4.6-29.6,4.6c-7.4,0-14.7-0.9-21.8-2.6c-11.6-5.1-24.3-7.9-36.8-7.9c-13.5,0-26.6,3.2-37.6,9.3
	v-16C672.6,243.9,682.3,242.3,692.4,242.3"/>
<path class="st1" d="M387.7,241.9v0.7c6.5,0,13.1,0.7,19.5,2.1c13.1,5.5,27,8.4,40.1,8.4c13.8,0,26.4-3.1,37.6-9.2v16
	c-9.8,3.3-19.8,4.9-29.6,4.9c-10.6,0-20.6-1.9-30-5.7c-3.6-1.4-7.1-3-10.5-4.6c-7.7-3.5-15.7-7.2-24.8-8.5
	c-3.7-0.5-7.5-0.8-11.3-0.8c-6.8,0-13.9,0.8-21,2.4c9.8-3.5,19.9-5.2,30.1-5.2v-0.5"/>
<path class="st0" d="M579,42.7c4.8,15.3,5.2,32.4,1,49.5c-10.6,24.7-10.1,52.4,1.5,74.4h-15.4c-5.7-13-5.6-27.7-5-40.3
	c0.8-9.7,4.9-18.8,9-27.4c2.7-5.8,5.5-11.8,7.3-18C580.9,67.5,581.4,54.6,579,42.7"/>
<path class="st0" d="M765.7,144.9c-10.6,14.5-24.6,25.1-40.1,30.3c-5.1,1.9-10.4,3.2-15.4,4.5c-7.3,1.8-14.8,3.8-21.8,7.2
	c-11.9,6-22.5,15.1-31.5,27.3c-1.2-2.7-2.8-5.2-4.4-7.7c-1.2-1.9-2.5-3.8-3.5-5.9c6.8-6.8,12.3-11.3,18.4-15.2
	c0.9-0.7,1.9-1.1,2.9-1.6s2-1,3-1.6c14.9-7.4,30.9-9.9,44.7-11.7c7.8-0.7,16.5-3.3,23.7-7.2l0,0l0,0c1.9-1.2,3.8-2.5,5.7-3.2h0.1
	l0.1-0.1C754.7,155.8,760.5,150.4,765.7,144.9"/>
<path class="st1" d="M684.8,67.2c-1,8.3-3.1,16.3-6.4,24.2c-4.7,11.2-11.5,21.2-20.1,29.9c-6.6,6-13.5,12.7-19,21v0.1v0.1
	c-1,2-2,3.8-2.9,5.5c-1,1.8-2,3.6-2.9,5.5v0.1v0.1c-3.7,10.3-5.8,19.4-6.4,27.9c-2.3-1.2-4.4-2.5-6.6-3.8c-2.3-1.4-4.6-2.8-7.1-4
	c3.9-20.3,15.8-36.2,25.1-46c13-8.9,24.3-17.3,32.7-30.1c0.9-1.5,1.9-2.9,2.7-4.2c2.2-3.3,4.4-6.4,5.7-10.2
	C681.7,78.1,683.5,73,684.8,67.2"/>
<path class="st0" d="M584.7,344.4c4.7,15.8,6.1,28.2,4.4,40.3c-1.9,14-7.6,26.2-14.3,39.5v0.1v0.1l-2,5.9l0,0l0,0
	c-3.5,13-3.8,26.4-1.2,39c-5.3-16.5-5.9-34.2-1.4-50.3c10.3-23.4,10.7-48.1,1.3-69.5v-0.1v-0.1c-1-1.6-2.1-3.3-2.9-4.8L584.7,344.4"
	/>
<path class="st1" d="M634.5,328.3c9.8,10.5,17.3,24.6,22.3,41.7c1.6,6.2,1.7,12.3,1.9,18.8c0.1,4.2,0.2,8.6,0.7,13
	c2.2,17.1,9.4,32.9,20.6,45.5c-7.7-6.9-14.1-15.4-19.1-25.3c-6.3-12.4-10.2-26.6-11.1-41.2v-0.1v-0.1c-4-13.4-12.3-32.2-29.4-45.9
	C624.9,332.4,629.8,330,634.5,328.3"/>
<path class="st0" d="M660.9,291.7c18.9,5.7,35.7,17.8,47.4,34.1c10.2,21.4,29.8,38.3,52.6,45.8c-23.7-4.7-46-19.7-60-40.6l0,0
	l-0.1-0.1c-12.8-13.4-30.2-22.7-49-26.1C654.2,300.5,657.1,296.3,660.9,291.7"/>
<path class="st0" d="M393.1,140c20.8,4.6,37.7,15,49.6,30.3v0.1l0,0c0.4,0.4,0.9,0.7,1.4,1s0.8,0.6,1.2,0.8
	c14.8,22.1,37.8,30.7,54.9,33.9c-2.3,4.4-5.1,8.5-9,13.1c-12.7-3.9-24.3-10.4-34.5-19.3c-0.4-0.4-0.8-0.8-1.2-1.4
	c-0.9-1.1-2-2.3-3.4-3.3c-4.9-5.5-8.7-11.1-12.9-18.7l0,0l0,0c-3.6-5.8-7.6-10.9-11.8-15.1l-0.1-0.1l-0.1-0.1
	c-1.9-1.2-3.1-2.5-4.4-4.4l-0.1-0.1l-0.1-0.1C414.4,149.6,404.4,143.8,393.1,140"/>
<path class="st1" d="M472.2,61.9c13.3,10.8,23.2,26.1,27.7,43c1.6,5.4,2.6,10.9,3.6,16.3c1.9,10.2,3.8,20.6,9.4,30.1l0,0l0,0
	c6.8,10.2,12.3,18,20.8,24.9c-4.7,2.3-9.5,4.7-14.3,6.5c-4.4-4.9-8.8-10.2-12-16.4c-0.7-2-2-4-3.3-5.9c-5.5-11.7-8.4-24-8.4-35.5
	c0-19.5-4.8-36.7-14.4-51.1c-1.4-3.3-3.4-6-6-8c-1.2-1.2-2.2-2.5-3.3-3.8C472.2,62,472.2,62,472.2,61.9"/>
<path class="st1" d="M520,330c4.2,2.9,9.1,5.3,13.7,7.6c-0.1,3.3-1.2,6.4-2.4,9.8c-0.8,2.1-1.6,4.2-2.1,6.4
	c-0.3,0.3-0.7,0.8-0.9,1.2c-0.3,0.5-0.6,0.9-0.9,1.2l-0.1,0.1l-0.1,0.1c-5.9,17.8-20.1,28.5-35.2,39.9c-1.2,0.9-2.5,1.9-3.7,2.8
	h-0.1l0,0l-4.6,4.6c-9.3,9.8-16.4,22.9-20.8,38.2c1.1-7.4,2.7-14.8,5.6-21.8c5.6-13.4,14.8-25.4,29.8-38.8l0,0l0,0
	c7.6-8.3,13.4-17.6,16.4-27l2-5.9v-0.1v-0.1c0.3-1.6,0.7-3.3,1-4.9C518.8,339.2,519.8,334.6,520,330"/>
<path class="st0" d="M492.7,295.6c-8.5,11.7-18.9,20.8-31.9,28c-9.8,5.2-20.2,6.5-30.6,9.1c-9.8,2.6-18.2,7.2-26.7,13
	c-10.4,7.8-18.9,16.9-25.4,28c2-3.3,4.6-5.2,6.5-7.8c1.3-1.3,3.3-2.6,4.6-4.6c10.4-9.1,22.1-16.3,36.5-18.9c0.7,0,2-1.3,2.6-1.3
	c14.3-1.3,28.7-2.6,41.7-8.5c11.7-5.9,22.1-12.4,30.6-22.1C497.9,305.4,495.3,300.8,492.7,295.6L492.7,295.6z"/>
</svg>
