<?xml version="1.0" encoding="utf-8"?>
<!-- Generator: Adobe Illustrator 22.0.1, SVG Export Plug-In . SVG Version: 6.00 Build 0)  -->
<svg version="1.1" id="Layer_1" xmlns="http://www.w3.org/2000/svg" xmlns:xlink="http://www.w3.org/1999/xlink" x="0px" y="0px"
	 viewBox="0 0 1366 768" style="enable-background:new 0 0 1366 768;" xml:space="preserve">
<style type="text/css">
	.st0{fill:none;stroke:#000000;stroke-miterlimit:10;}
</style>
<g>
	<path class="st0" d="M533.5,468.5c0-61.9,50.1-112,112-112"/>
</g>
<g>
	<path class="st0" d="M757.5,468.5c0-61.9-50.1-112-112-112"/>
</g>
<line class="st0" x1="505" y1="468.5" x2="367" y2="468.5"/>
<line class="st0" x1="924" y1="468.5" x2="786" y2="468.5"/>
<line class="st0" x1="645.5" y1="189" x2="645.5" y2="327"/>
<line class="st0" x1="844.3" y1="270.2" x2="746.7" y2="367.8"/>
<line class="st0" x1="447.7" y1="271.2" x2="545.3" y2="368.8"/>
<line class="st0" x1="903.2" y1="362.6" x2="775.8" y2="415.4"/>
<line class="st0" x1="751.9" y1="211.3" x2="699.1" y2="338.7"/>
<line class="st0" x1="386.8" y1="361.6" x2="514.2" y2="414.4"/>
<line class="st0" x1="539.1" y1="211.3" x2="591.9" y2="338.7"/>
<line class="st0" x1="456.5" y1="341.7" x2="528.5" y2="389.8"/>
<line class="st0" x1="422.1" y1="424.3" x2="506.9" y2="441.2"/>
<line class="st0" x1="519.5" y1="278.8" x2="567.5" y2="350.7"/>
<line class="st0" x1="771.5" y1="279.8" x2="723.5" y2="351.7"/>
<line class="st0" x1="689.9" y1="245.3" x2="673.1" y2="330.2"/>
<line class="st0" x1="834.5" y1="341.7" x2="762.5" y2="389.8"/>
<line class="st0" x1="601.1" y1="245.3" x2="617.9" y2="330.2"/>
<line class="st0" x1="868.9" y1="424.3" x2="784.1" y2="441.2"/>
<line class="st0" x1="593.5" y1="287.5" x2="576.8" y2="236"/>
<line class="st0" x1="623.3" y1="234.3" x2="619.5" y2="192.5"/>
<line class="st0" x1="501.5" y1="348.5" x2="456.9" y2="315"/>
<line class="st0" x1="417.6" y1="445.8" x2="396" y2="442.9"/>
<line class="st0" x1="447.5" y1="407.5" x2="394.4" y2="393.3"/>
<line class="st0" x1="446.1" y1="364.4" x2="414.5" y2="349.3"/>
<line class="st0" x1="671" y1="228" x2="665.5" y2="281.5"/>
<line class="st0" x1="892.6" y1="443.4" x2="825.8" y2="451.1"/>
<line class="st0" x1="543.8" y1="271.7" x2="521.5" y2="232.5"/>
<line class="st0" x1="511.1" y1="301.2" x2="492.5" y2="280.5"/>
<line class="st0" x1="879.3" y1="402.5" x2="851.3" y2="410.1"/>
<line class="st0" x1="816.5" y1="263.5" x2="783.1" y2="301.8"/>
<line class="st0" x1="833.6" y1="316.2" x2="818" y2="328.4"/>
<line class="st0" x1="710.7" y1="253.7" x2="720.9" y2="216.9"/>
<line class="st0" x1="870.5" y1="347.5" x2="807.5" y2="380.5"/>
<line class="st0" x1="771.3" y1="240.7" x2="744.5" y2="287.5"/>
</svg>
