<?xml version="1.0" encoding="utf-8"?>
<!-- Generator: Adobe Illustrator 22.0.1, SVG Export Plug-In . SVG Version: 6.00 Build 0)  -->
<svg version="1.1" id="Layer_1" xmlns="http://www.w3.org/2000/svg" xmlns:xlink="http://www.w3.org/1999/xlink" x="0px" y="0px"
	 viewBox="0 0 1366 768" style="enable-background:new 0 0 1366 768;" xml:space="preserve">
<style type="text/css">
	.st0{fill:none;stroke:#000000;stroke-width:0.5;stroke-miterlimit:10;}
</style>
<g>
	<path class="st0" d="M623.9,638.9c-15,0-28.4-5.8-36.5-15.9l-97.6-121.1c-17.6-21.8-8.6-57,10.9-72.6c8.4-6.8,18.7-10.4,29.6-10.4
		c14.9,0,28.9,6.7,38.3,18.3l97.9,121.5c16.9,21,13.9,51.5-6.7,68C650.2,634.5,637.1,638.9,623.9,638.9z"/>
	<path class="st0" d="M530.4,419.3c14.8,0,28.6,6.6,37.9,18.2L666.1,559c16.7,20.7,13.7,51-6.6,67.3c-9.5,7.7-22.5,12.1-35.6,12.1
		c-14.9,0-28.1-5.7-36.1-15.7l-97.6-121.1c-7.8-9.6-10.8-23.3-8.5-37.5c2.3-13.9,9.4-26.4,19.3-34.4
		C509.4,422.9,519.5,419.3,530.4,419.3L530.4,419.3 M530.3,418.3c-10.6,0-21.2,3.4-30,10.5l0,0c-20.7,16.7-28,52.2-11,73.3
		L587,623.3c8.9,11,22.7,16.1,36.9,16.1c13,0,26.3-4.3,36.2-12.3l0,0c20.7-16.7,23.8-47.6,6.8-68.7L569,436.9
		C559.2,424.7,544.8,418.3,530.3,418.3L530.3,418.3z"/>
</g>
<g>
	<path class="st0" d="M625.4,634.8c-15.3,0-29.4-6.8-38.9-18.5l-93.8-116.5c-17.3-21.4-13.9-52.9,7.6-70.2c8.8-7.1,19.9-11,31.2-11
		c15.3,0,29.4,6.8,38.9,18.5l93.8,116.5c17.3,21.4,13.9,52.9-7.6,70.2C647.9,630.9,636.8,634.8,625.4,634.8z"/>
	<path class="st0" d="M531.5,418.1v1c15.1,0,29.2,6.7,38.6,18.4L663.9,554c8.2,10.2,12,23.1,10.6,36.3s-7.8,24.9-18.1,33.2
		c-8.7,7-19.7,10.9-30.9,10.9c-15.1,0-29.2-6.7-38.6-18.4l-93.8-116.5c-17.1-21.2-13.7-52.4,7.5-69.5c8.7-7,19.7-10.9,30.9-10.9
		V418.1 M531.5,418.1c-11.1,0-22.3,3.6-31.5,11.1l0,0c-21.6,17.4-25,49.3-7.6,70.9l93.8,116.5c9.9,12.3,24.6,18.7,39.3,18.7
		c11.1,0,22.3-3.6,31.5-11.1l0,0c21.6-17.4,25-49.3,7.6-70.9l-93.8-116.5C560.9,424.5,546.2,418.1,531.5,418.1L531.5,418.1z"/>
</g>
<g>
	<path class="st0" d="M492.7,499.8c-17.3-21.4-13.9-52.9,7.6-70.2c8.8-7.1,19.9-11,31.2-11c15.3,0,29.4,6.8,38.9,18.5l46.2,57.7
		L539,557.3L492.7,499.8z"/>
	<path class="st0" d="M531.5,418.1v1c15.1,0,29.2,6.7,38.5,18.4l45.9,57.3l-76.8,61.8l-46-57.2c-8.2-10.2-12-23.1-10.6-36.3
		c1.4-13.2,7.8-24.9,18.1-33.2c8.7-7,19.7-10.9,30.9-10.9L531.5,418.1 M531.5,418.1c-11.1,0-22.3,3.6-31.5,11.1l0,0
		c-21.6,17.4-25,49.3-7.6,70.9L539,558l78.3-63.1l-46.5-58.1C560.9,424.5,546.2,418.1,531.5,418.1L531.5,418.1z"/>
</g>
<g>
	<path class="st0" d="M766.6,537.1c-5.2,0-10-1.2-14.3-3.5l-100.9-54.2c-18.1-9.7-22-36-13.4-52.2c6.1-11.3,18-18.3,31.1-18.3
		c5.9,0,11.8,1.5,17.1,4.3l101.2,54.3c17.4,9.3,24.1,30.8,14.9,47.9C795.5,528.2,780.8,537.1,766.6,537.1z"/>
	<path class="st0" d="M669.2,408.4v1c5.8,0,11.7,1.5,16.8,4.2L787.2,468c17.1,9.2,23.7,30.4,14.7,47.2
		c-6.8,12.6-21.3,21.4-35.3,21.4c-5.1,0-9.8-1.2-14-3.4L651.7,479c-8-4.3-13.9-12.6-16.4-22.9c-2.4-10-1.2-20.4,3.2-28.7
		c6-11.1,17.7-18,30.6-18L669.2,408.4 M669.2,408.4c-12.8,0-25.2,6.7-31.5,18.6l0,0c-9.3,17.3-4,43.4,13.6,52.9L752.1,534
		c4.5,2.4,9.5,3.5,14.5,3.5c14.4,0,29.3-9.1,36.1-21.9l0,0c9.3-17.3,2.5-39.1-15.1-48.5l-101.2-54.3
		C681,409.8,675,408.4,669.2,408.4L669.2,408.4z"/>
</g>
<g>
	<path class="st0" d="M767.5,531.5c-6,0-11.9-1.5-17.2-4.3l-97-52.1c-8.6-4.6-14.9-12.3-17.7-21.7c-2.8-9.4-1.8-19.3,2.8-27.9
		c6.4-11.9,18.8-19.3,32.4-19.3c6,0,11.9,1.5,17.2,4.3l97,52.1c17.8,9.6,24.5,31.8,14.9,49.6C793.5,524.1,781.1,531.5,767.5,531.5z"
		/>
	<path class="st0" d="M670.8,405.7v1c5.9,0,11.8,1.5,17,4.3l97,52.1c8.5,4.5,14.7,12.1,17.4,21.4c2.8,9.3,1.8,19-2.7,27.5
		c-6.3,11.7-18.5,19-31.9,19c-5.9,0-11.8-1.5-17-4.3l-97-52.1c-8.5-4.5-14.7-12.1-17.4-21.4c-2.8-9.3-1.8-19,2.7-27.5
		c6.3-11.7,18.5-19,31.9-19V405.7 M670.8,405.7c-13.2,0-26.1,7.1-32.8,19.5l0,0c-9.7,18-2.8,40.6,15.1,50.2l97,52.1
		c5.5,3,11.5,4.4,17.4,4.4c13.2,0,26.1-7.1,32.8-19.5l0,0c9.7-18,2.8-40.6-15.1-50.2l-97-52.1C682.7,407.1,676.7,405.7,670.8,405.7
		L670.8,405.7z"/>
</g>
<g>
	<path class="st0" d="M653.4,475.1c-8.6-4.6-14.9-12.3-17.7-21.7c-2.8-9.4-1.8-19.3,2.8-27.9c6.4-11.9,18.8-19.3,32.4-19.3
		c6,0,11.9,1.5,17.2,4.3l47.7,25.8l-34.6,64.3L653.4,475.1z"/>
	<path class="st0" d="M670.8,405.7v1c5.9,0,11.8,1.5,17,4.3l47.3,25.6L701,500.1l-47.4-25.4c-8.5-4.5-14.7-12.1-17.4-21.4
		c-2.8-9.3-1.8-19,2.7-27.5c6.3-11.7,18.5-19,31.9-19V405.7 M670.8,405.7c-13.2,0-26.1,7.1-32.8,19.5l0,0
		c-9.7,18-2.8,40.6,15.1,50.2l48.2,25.9l35-65.2L688.1,410C682.7,407.1,676.7,405.7,670.8,405.7L670.8,405.7z"/>
</g>
<g>
	<circle class="st0" cx="594" cy="344.5" r="39"/>
	<path class="st0" d="M594,306.1c21.2,0,38.5,17.3,38.5,38.5s-17.3,38.5-38.5,38.5s-38.5-17.3-38.5-38.5
		C555.5,323.3,572.8,306.1,594,306.1 M594,305.1c-21.8,0-39.5,17.7-39.5,39.5s17.7,39.5,39.5,39.5s39.5-17.7,39.5-39.5
		C633.5,322.7,615.8,305.1,594,305.1L594,305.1z"/>
</g>
<ellipse transform="matrix(0.7071 -0.7071 0.7071 0.7071 -68.7295 519.3726)" class="st0" cx="592.6" cy="342.7" rx="38.1" ry="38.1"/>
<path class="st0" d="M592.6,305c20.8,0,37.6,16.9,37.6,37.6s-16.9,37.6-37.6,37.6c-20.8,0-37.6-16.9-37.6-37.6S571.9,305,592.6,305"
	/>
<path class="st0" d="M563.7,367.2c-6.4-7.7-9.4-17.5-8.5-27.5c0.9-10.2,5.7-19.4,13.4-25.9c6.9-5.8,15.6-9,24.5-9
	c11.2,0,21.7,4.8,28.9,13.3c-0.9,0.8-3.9,3.3-7.7,6.3c-5.5,4.5-13.1,10.7-21.5,17.8c-8.4,7.1-15.9,13.6-21.4,18.3
	C567.8,363.8,564.7,366.4,563.7,367.2z"/>
<path class="st0" d="M593.2,304.3c-8.8,0-17.6,3-24.9,9.1c-16.3,13.7-18.4,38.1-4.7,54.5l0,0c0.4,0,13.4-11.6,29.6-25.3
	c16.3-13.7,29.7-24.3,29.5-24.5C615.1,309,604.2,304.3,593.2,304.3L593.2,304.3z"/>
<g>
	<path class="st0" d="M764.9,649.3c-20.9,0-39.3-14.8-43.8-35.2c-5.3-24.2,10-48.2,34.2-53.5c3.2-0.7,6.5-1.1,9.7-1.1
		c20.9,0,39.3,14.8,43.8,35.2c5.3,24.2-10,48.2-34.2,53.5C771.4,649,768.2,649.3,764.9,649.3z"/>
	<path class="st0" d="M765,559.1v1c9.9,0,19.7,3.4,27.6,9.6c7.9,6.3,13.5,15.3,15.7,25.2c5.3,23.9-9.9,47.6-33.8,52.9
		c-3.2,0.7-6.4,1.1-9.6,1.1c-9.9,0-19.7-3.4-27.6-9.6c-7.9-6.3-13.5-15.3-15.7-25.2c-2.6-11.6-0.4-23.5,5.9-33.4
		c6.4-10,16.3-16.9,27.8-19.4c3.2-0.7,6.4-1,9.6-1.1L765,559.1 M765,559.1c-3.2,0-6.5,0.3-9.8,1.1c-24.5,5.4-39.9,29.6-34.5,54.1
		c4.7,21.2,23.4,35.6,44.3,35.6c3.2,0,6.5-0.3,9.8-1.1c24.5-5.4,39.9-29.6,34.5-54.1C804.6,573.5,785.8,559.1,765,559.1L765,559.1z"
		/>
</g>
<g>
	<path class="st0" d="M764.9,643.6c-20.4,0-38.5-14.5-42.9-34.5c-5.2-23.7,9.8-47.2,33.5-52.4c3.1-0.7,6.3-1,9.5-1
		c20.4,0,38.5,14.5,42.9,34.5c2.5,11.5,0.4,23.2-5.9,33.1c-6.3,9.9-16.1,16.7-27.6,19.3C771.3,643.3,768.1,643.6,764.9,643.6z"/>
	<path class="st0" d="M765,555.2v1c9.7,0,19.3,3.4,27,9.4c7.8,6.2,13.2,14.9,15.4,24.7c5.2,23.4-9.7,46.6-33.1,51.8
		c-3.1,0.7-6.3,1-9.4,1c-9.7,0-19.3-3.4-27-9.4c-7.8-6.2-13.2-14.9-15.4-24.7c-5.2-23.4,9.7-46.6,33.1-51.8c3.1-0.7,6.3-1,9.4-1
		V555.2 M765,555.2c-3.2,0-6.4,0.3-9.6,1.1c-24,5.3-39.1,29-33.8,53c4.6,20.7,23,34.9,43.4,34.9c3.2,0,6.4-0.3,9.6-1.1
		c24-5.3,39.1-29,33.8-53C803.8,569.3,785.4,555.2,765,555.2L765,555.2z"/>
</g>
<g>
	<path class="st0" d="M738.6,634.5c-9.1-7.1-15-17.4-16.5-28.9c-1.5-11.6,1.6-23.2,8.7-32.5c8.4-10.9,21.1-17.2,34.9-17.2
		c9.6,0,18.7,3,26.4,8.8c-0.8,1.1-3.6,4.7-7.1,9.1c-5.1,6.4-12,15.2-19.8,25.3c-7.7,10.1-14.5,19.2-19.5,25.9
		C742.3,629.7,739.4,633.5,738.6,634.5z"/>
	<path class="st0" d="M765.7,555.5v1c9.3,0,18.2,2.9,25.7,8.4c-1,1.4-3.6,4.7-6.8,8.6c-5.1,6.4-12,15.2-19.8,25.3
		c-7.7,10-14.5,19.2-19.5,25.8c-3.1,4.2-5.8,7.7-6.8,9.1c-8.8-7-14.4-17-15.9-28.2c-1.5-11.5,1.5-22.9,8.6-32.1
		c8.3-10.8,20.9-17,34.5-17V555.5 M765.7,555.5c-13.3,0-26.5,6-35.3,17.4c-14.9,19.5-11.3,47.4,8.2,62.3l0,0
		c0.4,0,12.1-16.3,27-35.7c14.9-19.5,27.4-34.6,27.1-34.8C784.6,558.5,775.1,555.5,765.7,555.5L765.7,555.5z"/>
</g>
</svg>
