<?xml version="1.0" encoding="utf-8"?>
<!-- Generator: Adobe Illustrator 22.0.1, SVG Export Plug-In . SVG Version: 6.00 Build 0)  -->
<svg version="1.1" id="Layer_1" xmlns="http://www.w3.org/2000/svg" xmlns:xlink="http://www.w3.org/1999/xlink" x="0px" y="0px"
	 viewBox="0 0 1366 768" style="enable-background:new 0 0 1366 768;" xml:space="preserve">
<g>
	<path d="M253.1,300.1c7.4,13.4,59.1,109.3,59.1,157.1c0,16.5-6,31.8-16.9,43.1c-11,11.4-26,17.7-42.3,17.7
		c-33.3,0-58.7-26.2-59.1-60.8C193.5,409.3,245.7,313.5,253.1,300.1 M253.1,298c0,0-60.7,107.1-60.1,159.2
		c0.4,34.5,25.7,61.8,60.1,61.8s60.1-27.4,60.1-61.8C313.2,405.1,253.1,298,253.1,298L253.1,298z"/>
</g>
</svg>
