<?xml version="1.0" encoding="utf-8"?>
<!-- Generator: Adobe Illustrator 22.0.1, SVG Export Plug-In . SVG Version: 6.00 Build 0)  -->
<svg version="1.1" id="Layer_1" xmlns="http://www.w3.org/2000/svg" xmlns:xlink="http://www.w3.org/1999/xlink" x="0px" y="0px"
	 viewBox="0 0 1366 768" style="enable-background:new 0 0 1366 768;" xml:space="preserve">
<style type="text/css">
	.st0{fill:#FFFFFF;}
</style>
<g>
	<path class="st0" d="M240,496.5c-6.3,0-11.5-5.2-11.5-11.5V191c0-6.3,5.2-11.5,11.5-11.5h158c6.3,0,11.5,5.2,11.5,11.5v294
		c0,6.3-5.2,11.5-11.5,11.5H240z"/>
	<path d="M398,180c6.1,0,11,4.9,11,11v294c0,6.1-4.9,11-11,11H240c-6.1,0-11-4.9-11-11V191c0-6.1,4.9-11,11-11H398 M398,179H240
		c-6.6,0-12,5.4-12,12v294c0,6.6,5.4,12,12,12h158c6.6,0,12-5.4,12-12V191C410,184.4,404.6,179,398,179L398,179z"/>
</g>
<g>
	<circle class="st0" cx="319.5" cy="464.5" r="20"/>
	<path d="M319.5,445c10.8,0,19.5,8.7,19.5,19.5s-8.7,19.5-19.5,19.5s-19.5-8.7-19.5-19.5S308.7,445,319.5,445 M319.5,444
		c-11.3,0-20.5,9.2-20.5,20.5s9.2,20.5,20.5,20.5s20.5-9.2,20.5-20.5S330.8,444,319.5,444L319.5,444z"/>
</g>
<g>
	<rect x="285.5" y="211.5" class="st0" width="108" height="221"/>
	<path d="M393,212v220H286V212H393 M394,211H285v222h109V211L394,211z"/>
</g>
<g>
	<path class="st0" d="M299,199.5c-1.9,0-3.5-1.6-3.5-3.5s1.6-3.5,3.5-3.5h42c1.9,0,3.5,1.6,3.5,3.5s-1.6,3.5-3.5,3.5H299z"/>
	<path d="M341,193c1.7,0,3,1.3,3,3s-1.3,3-3,3h-42c-1.7,0-3-1.3-3-3s1.3-3,3-3H341 M341,192h-42c-2.2,0-4,1.8-4,4s1.8,4,4,4h42
		c2.2,0,4-1.8,4-4S343.2,192,341,192L341,192z"/>
</g>
<g>
	<polygon class="st0" points="245.5,432.5 245.5,211.5 290.6,211.5 359.3,432.5 	"/>
	<path d="M290.3,212l68.4,220H246V212H290.3 M291,211h-46v222h115L291,211L291,211z"/>
</g>
</svg>
