<?xml version="1.0" encoding="utf-8"?>
<!-- Generator: Adobe Illustrator 22.0.1, SVG Export Plug-In . SVG Version: 6.00 Build 0)  -->
<svg version="1.1" id="Layer_1" xmlns="http://www.w3.org/2000/svg" xmlns:xlink="http://www.w3.org/1999/xlink" x="0px" y="0px"
	 viewBox="0 0 1366 768" style="enable-background:new 0 0 1366 768;" xml:space="preserve">
<style type="text/css">
	.st0{fill:none;stroke:#000000;stroke-width:0.5;stroke-miterlimit:10;}
</style>
<path class="st0" d="M851.7,196.6c7.6,0,13.6,6.1,13.6,13.8v367.8c0,7.6-6.1,13.8-13.6,13.8h-196c-7.6,0-13.6-6.1-13.6-13.8V210.3
	c0-7.6,6.1-13.8,13.6-13.8H851.7"/>
<circle class="st0" cx="756.5" cy="556" r="25.3"/>
<path class="st0" d="M756.5,531.4c13.6,0,24.6,11,24.6,24.6c0,13.6-11,24.6-24.6,24.6s-24.6-11-24.6-24.6
	C731.8,542.4,742.8,531.4,756.5,531.4"/>
<rect x="713.5" y="236.4" class="st0" width="136.4" height="279.2"/>
<path class="st0" d="M730.6,221.2c-2.4,0-4.4-2-4.4-4.4s2-4.4,4.4-4.4h53.1c2.4,0,4.4,2,4.4,4.4s-2,4.4-4.4,4.4H730.6z"/>
<path class="st0" d="M783.6,213c2.1,0,3.8,1.6,3.8,3.8c0,2.1-1.6,3.8-3.8,3.8h-53.1c-2.1,0-3.8-1.6-3.8-3.8c0-2.1,1.6-3.8,3.8-3.8
	H783.6"/>
<polygon class="st0" points="663,515.6 663,236.4 720,236.4 806.8,515.6 "/>
</svg>
