<?xml version="1.0" encoding="utf-8"?>
<!-- Generator: Adobe Illustrator 22.0.1, SVG Export Plug-In . SVG Version: 6.00 Build 0)  -->
<svg version="1.1" id="Layer_1" xmlns="http://www.w3.org/2000/svg" xmlns:xlink="http://www.w3.org/1999/xlink" x="0px" y="0px"
	 viewBox="0 0 1366 768" style="enable-background:new 0 0 1366 768;" xml:space="preserve">
<style type="text/css">
	.st0{fill:none;stroke:#000000;stroke-width:0.5;stroke-miterlimit:10;}
</style>
<path class="st0" d="M746.6,309.7c-52.5,0-95,42.5-95,95c0,0.4,0,0.7,0,1.1c-23.1,6.5-40,27.7-40,52.9c0,30.4,24.6,55,55,55
	c1.4,0,2.9-0.1,4.3-0.2c7.5,16.6,24.3,28.2,43.7,28.2c16.3,0,30.7-8.1,39.4-20.6c17.4,20,43,32.6,71.6,32.6c36,0,67.4-20,83.5-49.6
	c4.9,1.7,10.1,2.6,15.5,2.6c26.5,0,48-21.5,48-48s-21.5-48-48-48c-1.8,0-3.7,0.1-5.4,0.3c0.9-4.6,1.4-9.4,1.4-14.3
	c0-39.2-31.8-71-71-71c-13.6,0-26.4,3.8-37.2,10.5C795.4,319.8,772.2,309.7,746.6,309.7L746.6,309.7z"/>
</svg>
