<?xml version="1.0" encoding="utf-8"?>
<!-- Generator: Adobe Illustrator 22.0.1, SVG Export Plug-In . SVG Version: 6.00 Build 0)  -->
<svg version="1.1" id="Layer_1" xmlns="http://www.w3.org/2000/svg" xmlns:xlink="http://www.w3.org/1999/xlink" x="0px" y="0px"
	 viewBox="0 0 1366 768" style="enable-background:new 0 0 1366 768;" xml:space="preserve">
<style type="text/css">
	.st0{fill:#F2CECE;}
</style>
<g>
	<path class="st0" d="M603.8,150.7c4,0,8,0.3,11.9,0.8c36.9,4.7,67.7,30.8,78.3,66.5l0.2,0.7h0.7c19.7,0.6,38.5,8.4,52.8,22.1
		c14.4,13.8,23.1,32.3,24.4,52.2c1.2,17.2-3.2,34-12.5,48.5c-9,14-22.5,25-38,31.1l-0.5,0.2l-0.1,0.5c-5.4,20.8-16.9,39.2-33.5,53.2
		c-16.9,14.2-37.5,22.5-59.5,24c-2.3,0.2-4.7,0.2-7,0.2c-37.1,0-71.5-20.1-89.8-52.5l-0.5-0.8l-0.8,0.4c-13.7,6.4-28.3,9.6-43.4,9.6
		c-4.3,0-8.7-0.3-13.1-0.8c-27.8-3.5-52.4-17.8-69.3-40.2l-0.5-0.7l-0.8,0.4c-8.8,4.8-18.4,7.5-28.4,8.2c-1.6,0.1-3.2,0.2-4.7,0.2
		c-17.6,0-34.4-6.6-47.3-18.6c-13-12.1-20.8-28.5-21.9-46.1c-1.2-18.5,4.8-36.4,17-50.3c12.2-14,29.1-22.3,47.6-23.6
		c1.6-0.1,3.1-0.2,4.7-0.2c11.2,0,22.4,2.8,32.3,8l0.8,0.4l0.5-0.7c19.4-26.3,50.3-41.9,82.8-41.9c4.3,0,8.8,0.3,13.1,0.8
		c6,0.8,12,2.1,17.8,3.9l0.8,0.3l0.4-0.8C533.7,172.3,567.2,150.7,603.8,150.7"/>
</g>
</svg>
