<?xml version="1.0" encoding="utf-8"?>
<!-- Generator: Adobe Illustrator 22.0.1, SVG Export Plug-In . SVG Version: 6.00 Build 0)  -->
<svg version="1.1" id="Layer_1" xmlns="http://www.w3.org/2000/svg" xmlns:xlink="http://www.w3.org/1999/xlink" x="0px" y="0px"
	 viewBox="0 0 1366 768" style="enable-background:new 0 0 1366 768;" xml:space="preserve">
<g>
	<path d="M778.3,130c10.3,0,20.6,1.3,30.6,3.9c26.9,7,50.7,23.2,67.1,45.6c16.1,22.1,24.4,49.2,23.3,76.3l0,0.9l0.9,0.1
		c3.6,0.5,7.3,1.2,10.8,2.1c45.7,11.9,73.2,58.8,61.3,104.5c-9.8,37.7-43.9,64.1-82.8,64.1c-7.3,0-14.6-0.9-21.7-2.8
		c-7.6-2-14.8-4.9-21.5-8.8l-0.9-0.5l-0.5,0.9c-7.7,14.4-19.1,26.5-33.2,34.9c-14,8.4-30.1,12.9-46.4,12.9c-7.7,0-15.3-1-22.8-2.9
		c-24.4-6.4-45.1-22.8-56.9-45l-0.6-1.2l-1,1c-11.2,11.2-24.3,19.9-39,26.1c-14.8,6.2-30.5,9.3-46.5,9.3c-10.3,0-20.6-1.3-30.6-3.9
		c-31.3-8.2-57.5-28-73.9-55.9c-16.4-27.9-20.9-60.5-12.7-91.8c11.3-43.3,45.3-76.7,88.9-87.2l0.9-0.2l-0.1-0.9
		c-0.7-7.2-0.2-14.5,1.6-21.5c7-26.7,31.1-45.4,58.7-45.4c5.2,0,10.3,0.7,15.3,2c15.4,4,28.4,13.8,36.7,27.4l0.7,1.2l0.9-1.1
		c11.2-13.6,25.6-24.8,41.6-32.4C742.6,134,760.5,130,778.3,130 M778.3,129c-36.7,0-71.2,16.7-94.1,44.4c-8-13.3-21-23.7-37.3-27.9
		c-5.2-1.4-10.4-2-15.6-2c-27.4,0-52.4,18.4-59.6,46.1c-1.9,7.4-2.4,14.7-1.7,21.9c-42.3,10.2-77.8,42.8-89.6,87.9
		c-17,65.2,22.1,131.9,87.3,148.9c10.3,2.7,20.7,4,30.9,4c32.6,0,63.6-13.2,86.1-35.7c11.6,21.8,31.8,38.8,57.6,45.5
		c7.7,2,15.5,3,23.1,3c33.5,0,64.6-18.6,80.4-48.3c6.7,3.9,13.9,6.9,21.7,8.9c7.3,1.9,14.7,2.8,21.9,2.8c38.5,0,73.6-25.8,83.8-64.8
		c12.1-46.3-15.7-93.7-62-105.7c-3.7-1-7.3-1.7-11-2.1c2.3-56.1-34.6-108.1-91.2-122.9C798.8,130.3,788.4,129,778.3,129L778.3,129z"
		/>
</g>
</svg>
