<?xml version="1.0" encoding="utf-8"?>
<!-- Generator: Adobe Illustrator 22.0.1, SVG Export Plug-In . SVG Version: 6.00 Build 0)  -->
<svg version="1.1" id="Layer_1" xmlns="http://www.w3.org/2000/svg" xmlns:xlink="http://www.w3.org/1999/xlink" x="0px" y="0px"
	 viewBox="0 0 1366 768" style="enable-background:new 0 0 1366 768;" xml:space="preserve">
<g>
	<path d="M515.7,189.3c18.9,0,37.2,5.7,52.8,16.4c15.5,10.6,27.4,25.4,34.3,42.7l0.4,1l1-0.5c7.3-3.7,15.1-6,23.3-7
		c2.7-0.3,5.5-0.5,8.3-0.5c35.4,0,65.3,26.6,69.4,61.8c2.2,18.6-3,36.9-14.6,51.6c-11.6,14.7-28.2,24-46.8,26.1
		c-2.7,0.3-5.5,0.5-8.3,0.5c-10.1,0-19.8-2.1-29-6.3l-0.9-0.4l-0.4,0.9c-6.9,15.2-20.8,25.4-37.4,27.4c-1.8,0.2-3.7,0.3-5.5,0.3
		c-4.4,0-8.8-0.6-13-1.8l-1-0.3l-0.2,1c-4.4,18.6-14.2,35.3-28.4,48.3c-14.5,13.2-32.6,21.4-52.2,23.7c-3.7,0.4-7.4,0.7-11.1,0.7
		c-37.4,0-71.2-22.2-86.1-56.5l-0.4-0.9l-0.9,0.3c-3.7,1.4-7.6,2.4-11.5,2.9c-1.8,0.2-3.7,0.3-5.5,0.3c-23.8,0-43.8-17.8-46.6-41.5
		c-1.9-16.4,4.7-32.3,17.7-42.5l0.7-0.5l-0.4-0.7c-5.9-10.3-9.6-21.6-11-33.5c-2.8-23.6,3.8-46.9,18.5-65.5
		c14.7-18.7,35.8-30.5,59.5-33.2c3.5-0.4,7-0.6,10.5-0.6c16.8,0,33.2,4.8,47.4,13.8l0.7,0.4l0.6-0.6c15-14.8,34-24,55-26.4
		C508.3,189.5,512.1,189.3,515.7,189.3 M515.7,188.3c-3.7,0-7.4,0.2-11.2,0.7c-21.9,2.6-41.1,12.4-55.6,26.7
		c-14-8.9-30.5-13.9-48-13.9c-3.5,0-7,0.2-10.6,0.6c-49.4,5.8-84.7,50.5-78.9,99.9c1.4,12.3,5.3,23.8,11.1,33.9
		c-12.7,10-20.1,26.2-18.1,43.4C307.3,404.1,328,422,352,422c1.9,0,3.8-0.1,5.7-0.3c4.1-0.5,8.1-1.5,11.8-2.9
		c14.8,34.1,48.8,57.1,87,57.1c3.7,0,7.4-0.2,11.2-0.7c40.9-4.8,72.6-34.9,81.4-72.8c4.2,1.2,8.7,1.9,13.3,1.9
		c1.9,0,3.8-0.1,5.7-0.3c17.4-2,31.4-13.1,38.2-27.9c9,4.1,19,6.4,29.4,6.4c2.8,0,5.6-0.2,8.4-0.5c38.9-4.6,66.8-39.9,62.2-78.8
		c-4.2-36.1-34.9-62.7-70.4-62.7c-2.8,0-5.6,0.2-8.4,0.5c-8.5,1-16.4,3.4-23.6,7.1C589.7,212.5,554.9,188.3,515.7,188.3L515.7,188.3
		z"/>
</g>
</svg>
