<?xml version="1.0" encoding="utf-8"?>
<!-- Generator: Adobe Illustrator 22.0.1, SVG Export Plug-In . SVG Version: 6.00 Build 0)  -->
<svg version="1.1" id="Layer_1" xmlns="http://www.w3.org/2000/svg" xmlns:xlink="http://www.w3.org/1999/xlink" x="0px" y="0px"
	 viewBox="0 0 1366 768" style="enable-background:new 0 0 1366 768;" xml:space="preserve">
<g>
	<path d="M316,84c24.4,0,47.5,9.3,65.1,26.2l0.6,0.5l0.7-0.4c11-6.8,23.7-10.4,36.6-10.4c38.6,0,70,31.4,70,70
		c0,4.8-0.5,9.5-1.4,14.1l-0.3,1.3l1.4-0.2c1.8-0.2,3.6-0.3,5.3-0.3c25.9,0,47,21.1,47,47s-21.1,47-47,47c-5.2,0-10.3-0.9-15.2-2.5
		l-0.8-0.3l-0.4,0.7C461.1,307.2,429.4,326,395,326c-27.2,0-53-11.7-70.9-32.2l-0.8-1l-0.7,1c-8.8,12.6-23.2,20.2-38.6,20.2
		c-18.4,0-35.2-10.8-42.8-27.6l-0.3-0.6l-0.7,0.1c-1.6,0.1-2.9,0.2-4.2,0.2c-29.8,0-54-24.2-54-54c0-24.1,16.2-45.4,39.3-52l0.7-0.2
		l0-0.8l0-0.4c0-0.2,0-0.4,0-0.7C222,126.2,264.2,84,316,84 M316,83c-52.5,0-95,42.5-95,95c0,0.4,0,0.7,0,1.1
		c-23.1,6.5-40,27.7-40,52.9c0,30.4,24.6,55,55,55c1.4,0,2.9-0.1,4.3-0.2c7.5,16.6,24.3,28.2,43.7,28.2c16.3,0,30.7-8.1,39.4-20.6
		c17.4,20,43,32.6,71.6,32.6c36,0,67.4-20,83.5-49.6c4.9,1.7,10.1,2.6,15.5,2.6c26.5,0,48-21.5,48-48c0-26.5-21.5-48-48-48
		c-1.8,0-3.7,0.1-5.4,0.3c0.9-4.6,1.4-9.4,1.4-14.3c0-39.2-31.8-71-71-71c-13.6,0-26.4,3.8-37.2,10.5C364.8,93.1,341.6,83,316,83
		L316,83z"/>
</g>
</svg>
