<?xml version="1.0" encoding="utf-8"?>
<!-- Generator: Adobe Illustrator 22.0.1, SVG Export Plug-In . SVG Version: 6.00 Build 0)  -->
<svg version="1.1" id="Layer_1" xmlns="http://www.w3.org/2000/svg" xmlns:xlink="http://www.w3.org/1999/xlink" x="0px" y="0px"
	 viewBox="0 0 1366 768" style="enable-background:new 0 0 1366 768;" xml:space="preserve">
<g>
	<path d="M724.3,284.9c4,0,8,0.3,11.9,0.8c36.9,4.7,67.7,30.8,78.3,66.5l0.2,0.7l0.7,0c19.7,0.6,38.5,8.4,52.8,22.1
		c14.4,13.8,23.1,32.3,24.4,52.2c1.2,17.2-3.2,34-12.5,48.5c-9,14-22.5,25-38,31.1l-0.5,0.2l-0.1,0.5c-5.4,20.8-16.9,39.2-33.5,53.2
		c-16.9,14.2-37.5,22.5-59.5,24c-2.3,0.2-4.7,0.2-7,0.2c-37.1,0-71.5-20.1-89.8-52.5l-0.5-0.8l-0.8,0.4c-13.7,6.4-28.3,9.6-43.4,9.6
		c-4.3,0-8.7-0.3-13.1-0.8c-27.8-3.5-52.4-17.8-69.3-40.2l-0.5-0.7l-0.8,0.4c-8.8,4.8-18.4,7.5-28.4,8.2c-1.6,0.1-3.2,0.2-4.7,0.2
		c-17.6,0-34.4-6.6-47.3-18.6c-13-12.1-20.8-28.5-21.9-46.1c-1.2-18.5,4.8-36.4,17-50.3c12.2-14,29.1-22.3,47.6-23.6
		c1.6-0.1,3.1-0.2,4.7-0.2c11.2,0,22.4,2.8,32.3,8l0.8,0.4l0.5-0.7c19.4-26.3,50.3-41.9,82.8-41.9c4.3,0,8.8,0.3,13.1,0.8
		c6,0.8,12,2.1,17.8,3.9l0.8,0.3l0.4-0.8C654.2,306.5,687.7,284.9,724.3,284.9 M724.3,283.9c-37.5,0-71.1,22.2-86.3,55.4
		c-5.8-1.8-11.8-3.1-18-3.9c-4.4-0.6-8.9-0.8-13.2-0.8c-33.7,0-64.5,16.4-83.6,42.3c-9.8-5.2-21-8.1-32.8-8.1
		c-1.6,0-3.2,0.1-4.8,0.2c-38.8,2.6-68.2,36.2-65.6,75c2.5,37.2,33.5,65.7,70.2,65.7c1.6,0,3.2-0.1,4.8-0.2
		c10.4-0.7,20.2-3.7,28.8-8.3c16.3,21.7,41,37,70,40.6c4.4,0.6,8.8,0.8,13.2,0.8c15.5,0,30.4-3.5,43.8-9.7c18,31.8,52.2,53,90.6,53
		c2.3,0,4.7-0.1,7.1-0.2c46-3.1,83-35.6,93.9-77.9c31.9-12.5,53.5-44.5,51.1-80.6c-2.8-41.9-37-74.1-78.1-75.3
		c-10.4-35-40.6-62.3-79.1-67.2C732.3,284.2,728.2,283.9,724.3,283.9L724.3,283.9z"/>
</g>
</svg>
