<?xml version="1.0" encoding="utf-8"?>
<!-- Generator: Adobe Illustrator 22.0.1, SVG Export Plug-In . SVG Version: 6.00 Build 0)  -->
<svg version="1.1" id="Layer_1" xmlns="http://www.w3.org/2000/svg" xmlns:xlink="http://www.w3.org/1999/xlink" x="0px" y="0px"
	 viewBox="0 0 1366 768" style="enable-background:new 0 0 1366 768;" xml:space="preserve">
<g>
	<path d="M757.2,117.9c31.6,0,62.6,11.1,87.3,31.2c25,20.4,42.2,49,48.4,80.7c1.9,9.5,2.7,19.3,2.6,29l0,0.8l0.8,0.2
		c14.5,3.6,27.6,11.3,38,22c10.7,11,17.9,24.9,20.8,40c4.1,20.9-0.2,42.1-12.1,59.8c-11.9,17.7-29.9,29.6-50.8,33.7
		c-5.1,1-10.2,1.5-15.3,1.5c-7.2,0-14.3-1-21.3-2.9l-0.6-0.2l-0.4,0.5c-15.3,19.6-37.2,33.1-61.6,37.9c-6.6,1.3-13.3,1.9-19.9,1.9
		c-30.5,0-59.3-13.5-79-36.9l-0.5-0.6l-0.7,0.4c-11.7,6.7-24.5,11.4-37.8,14c-8,1.6-16.1,2.4-24.2,2.4c-30.3,0-59.7-11.1-82.6-31.2
		l-0.7-0.6l-0.7,0.6c-9.1,7.8-20.1,13.2-31.9,15.5c-4.4,0.9-8.9,1.3-13.4,1.3c-33.1,0-61.7-23.6-68.1-56.1
		c-7.3-37.6,17.2-74.1,54.8-81.5c4.4-0.9,8.8-1.3,13.3-1.3c2,0,4,0.1,6,0.3l0.9,0.1l0.2-0.8c11.2-48.2,49.7-85.4,98.2-94.9
		c8-1.6,16.1-2.3,24.2-2.3c2.9,0,5.8,0.1,8.6,0.3l0.6,0l0.3-0.5c10-15.6,22.7-28.9,37.9-39.4c15.7-10.9,33.3-18.3,52.2-22
		C739.3,118.8,748.3,117.9,757.2,117.9 M757.2,116.9c-8.9,0-17.9,0.9-26.9,2.6c-39,7.6-71,30.8-90.8,61.8c-2.9-0.2-5.8-0.3-8.7-0.3
		c-8,0-16.2,0.8-24.4,2.4c-50.5,9.9-88.1,48.6-99,95.7c-2-0.2-4-0.3-6-0.3c-4.4,0-9,0.4-13.5,1.3c-38.2,7.5-63.1,44.5-55.6,82.6
		c6.6,33.6,36,56.9,69,56.9c4.5,0,9-0.4,13.6-1.3c12.4-2.4,23.4-8,32.4-15.7c22.6,19.8,52.1,31.4,83.3,31.4c8,0,16.2-0.8,24.4-2.4
		c13.8-2.7,26.6-7.5,38.1-14.1c19.5,23.2,48.5,37.3,79.8,37.3c6.6,0,13.3-0.6,20.1-2c25.7-5,47.3-19.1,62.2-38.2
		c6.9,1.9,14.1,2.9,21.5,2.9c5.1,0,10.3-0.5,15.5-1.5c43.7-8.6,72.3-50.9,63.7-94.7c-6.2-31.7-30.2-55.4-59.5-62.8
		c0.2-9.6-0.7-19.4-2.6-29.2C880.8,163.1,822.5,116.9,757.2,116.9L757.2,116.9z"/>
</g>
</svg>
