<?xml version="1.0" encoding="utf-8"?>
<!-- Generator: Adobe Illustrator 22.0.1, SVG Export Plug-In . SVG Version: 6.00 Build 0)  -->
<svg version="1.1" id="Layer_1" xmlns="http://www.w3.org/2000/svg" xmlns:xlink="http://www.w3.org/1999/xlink" x="0px" y="0px"
	 viewBox="0 0 1366 768" style="enable-background:new 0 0 1366 768;" xml:space="preserve">
<style type="text/css">
	.st0{fill:none;stroke:#000000;stroke-miterlimit:10;}
</style>
<path class="st0" d="M335,362"/>
<path class="st0" d="M557,362"/>
<g>
	<path d="M715,327v208h-63V327H715 M716,326h-65v210h65V326L716,326z"/>
</g>
<g>
	<path d="M683,186c29.4,0,57,11.4,77.8,32.2S793,266.6,793,296s-11.4,57-32.2,77.8C740,394.6,712.4,406,683,406s-57-11.4-77.8-32.2
		C584.4,353,573,325.4,573,296s11.4-57,32.2-77.8S653.6,186,683,186 M683,185c-61.3,0-111,49.7-111,111s49.7,111,111,111
		s111-49.7,111-111S744.3,185,683,185L683,185z"/>
</g>
<g>
	<path d="M744,425c9.9,0,18,8.1,18,18c0,9.9-8.1,18-18,18h-56c-9.9,0-18-8.1-18-18c0-9.9,8.1-18,18-18H744 M744,424h-56
		c-10.5,0-19,8.5-19,19v0c0,10.4,8.5,19,19,19h56c10.5,0,19-8.5,19-19v0C763,432.5,754.5,424,744,424L744,424z"/>
</g>
<g>
	<path d="M679,479c9.9,0,18,8.1,18,18c0,9.9-8.1,18-18,18h-56c-9.9,0-18-8.1-18-18c0-9.9,8.1-18,18-18H679 M679,478h-56
		c-10.5,0-19,8.5-19,19v0c0,10.4,8.5,19,19,19h56c10.5,0,19-8.5,19-19v0C698,486.5,689.5,478,679,478L679,478z"/>
</g>
<g>
	<path d="M682,186v220c-29-0.3-56.2-11.7-76.8-32.2C584.4,353,573,325.4,573,296s11.4-57,32.2-77.8C625.8,197.7,653,186.3,682,186
		 M683,185c-61.3,0-111,49.7-111,111s49.7,111,111,111V185L683,185z"/>
</g>
</svg>
