<?xml version="1.0" encoding="utf-8"?>
<!-- Generator: Adobe Illustrator 22.0.1, SVG Export Plug-In . SVG Version: 6.00 Build 0)  -->
<svg version="1.1" id="Layer_1" xmlns="http://www.w3.org/2000/svg" xmlns:xlink="http://www.w3.org/1999/xlink" x="0px" y="0px"
	 viewBox="0 0 1366 768" style="enable-background:new 0 0 1366 768;" xml:space="preserve">
<style type="text/css">
	.st0{fill:#FFFFFF;}
</style>
<g>
	<rect x="383.5" y="444.5" class="st0" width="21" height="144"/>
	<path d="M404,445v143h-20V445H404 M405,444h-22v145h22V444L405,444z"/>
</g>
<g>
	<path class="st0" d="M393.7,482.5c-38.7,0-70.2-31.5-70.2-70.2V202.7c0-38.7,31.5-70.2,70.2-70.2c38.7,0,70.2,31.5,70.2,70.2v209.7
		C463.8,451,432.4,482.5,393.7,482.5z"/>
	<path d="M393.7,133c18.5,0,36,7.3,49.2,20.5s20.5,30.7,20.5,49.2v209.7c0,18.5-7.3,36-20.5,49.2S412.2,482,393.7,482
		c-18.5,0-36-7.3-49.2-20.5S324,430.9,324,412.3V202.7c0-18.5,7.3-36,20.5-49.2S375.1,133,393.7,133 M393.7,132L393.7,132
		c-38.9,0-70.7,31.8-70.7,70.7v209.7c0,38.9,31.8,70.7,70.7,70.7h0c38.9,0,70.7-31.8,70.7-70.7V202.7
		C464.3,163.8,432.5,132,393.7,132L393.7,132z"/>
</g>
<g>
	<path class="st0" d="M329.7,419.2c-4.2,0-6.2-2.3-6.2-6.9V202.7c0-38.7,31.5-70.2,70.2-70.2s70.2,31.5,70.2,70.2v84.8
		c0,14.7-22.2,45.5-56.6,78.4C374.4,397.3,342.6,419.2,329.7,419.2z"/>
	<path d="M393.7,133c18.5,0,36,7.3,49.2,20.5c13.2,13.2,20.5,30.7,20.5,49.2v84.8c0,7.6-5.8,19.5-16.9,34.3
		c-9.9,13.2-23.9,28.8-39.6,43.8c-32.7,31.3-64.5,53.2-77.2,53.2c-3.9,0-5.7-2-5.7-6.4V202.7c0-18.5,7.3-36,20.5-49.2
		C357.7,140.3,375.1,133,393.7,133 M393.7,132L393.7,132c-38.9,0-70.7,31.8-70.7,70.7v209.7c0,5.1,2.5,7.4,6.7,7.4
		c28.1,0,134.6-98.5,134.6-132.3v-84.8C464.3,163.8,432.5,132,393.7,132L393.7,132z"/>
</g>
<g>
	<path class="st0" d="M332.5,311.4c-6.1,0-9-2.7-9-8.3V202.7c0-38.7,31.5-70.2,70.2-70.2c38.7,0,70.2,31.5,70.2,70.2l0,0.7
		C463.8,235.4,364.6,311.4,332.5,311.4z"/>
	<path d="M393.7,133c18.5,0,36,7.3,49.2,20.5c13.2,13.2,20.5,30.7,20.5,49.2l0,0.7l0,0v0c0,17-27.7,45.1-53.6,65.7
		c-30.9,24.6-62.7,41.8-77.2,41.8c-5.7,0-8.5-2.6-8.5-7.8V202.7c0-18.5,7.3-36,20.5-49.2C357.7,140.3,375.1,133,393.7,133
		 M393.7,132L393.7,132c-38.9,0-70.7,31.8-70.7,70.7V303c0,6.2,3.5,8.8,9.5,8.8c31.7,0,131.8-75.8,131.8-108.5l0-0.7
		C464.3,163.8,432.5,132,393.7,132L393.7,132z"/>
</g>
</svg>
