<?xml version="1.0" encoding="utf-8"?>
<!-- Generator: Adobe Illustrator 22.0.1, SVG Export Plug-In . SVG Version: 6.00 Build 0)  -->
<svg version="1.1" id="Layer_1" xmlns="http://www.w3.org/2000/svg" xmlns:xlink="http://www.w3.org/1999/xlink" x="0px" y="0px"
	 viewBox="0 0 1366 768" style="enable-background:new 0 0 1366 768;" xml:space="preserve">
<style type="text/css">
	.st0{fill:none;stroke:#000000;stroke-width:0.5;stroke-miterlimit:10;}
</style>
<rect x="383.5" y="444.5" class="st0" width="21" height="144"/>
<path class="st0" d="M404,445v143h-20V445H404"/>
<path class="st0" d="M393.7,482.5c-38.7,0-70.2-31.5-70.2-70.2V202.7c0-38.7,31.5-70.2,70.2-70.2s70.2,31.5,70.2,70.2v209.7
	C463.8,451,432.4,482.5,393.7,482.5z"/>
<path class="st0" d="M393.7,143.3c18.5,0,36,7.1,49.2,19.9c13.2,12.8,20.5,29.8,20.5,47.8v203.8c0,18-7.3,35-20.5,47.8
	c-13.2,12.8-30.7,19.8-49.2,19.8s-36-7.1-49.2-19.9S324,432.8,324,414.8V211.1c0-18,7.3-35,20.5-47.8
	C357.7,150.4,375.1,143.3,393.7,143.3"/>
<path class="st0" d="M329.7,419.2c-4.2,0-6.2-2.3-6.2-6.9V202.7c0-38.7,31.5-70.2,70.2-70.2s70.2,31.5,70.2,70.2v84.8
	c0,14.7-22.2,45.5-56.6,78.4C374.4,397.3,342.6,419.2,329.7,419.2z"/>
<path class="st0" d="M393.7,147.3c18.5,0,36,7,49.2,19.5s20.5,29.3,20.5,46.9v80.8c0,7.2-5.8,18.6-16.9,32.7
	c-9.9,12.6-23.9,27.5-39.6,41.8c-32.7,29.8-64.5,50.7-77.2,50.7c-3.9,0-5.7-1.9-5.7-6.1V213.8c0-17.6,7.3-34.3,20.5-46.9
	S375.1,147.3,393.7,147.3"/>
<path class="st0" d="M393.7,132.5c18.5,0,36,7.4,49.2,20.7s20.5,31,20.5,49.6v0.7l0,0l0,0c0,17.1-27.7,45.5-53.6,66.3
	c-30.9,24.8-62.7,42.2-77.2,42.2c-5.7,0-8.5-2.6-8.5-7.9V202.8c0-18.7,7.3-36.3,20.5-49.6C357.7,139.9,375.1,132.5,393.7,132.5"/>
</svg>
