<?xml version="1.0" encoding="utf-8"?>
<!-- Generator: Adobe Illustrator 22.0.1, SVG Export Plug-In . SVG Version: 6.00 Build 0)  -->
<svg version="1.1" id="Layer_1" xmlns="http://www.w3.org/2000/svg" xmlns:xlink="http://www.w3.org/1999/xlink" x="0px" y="0px"
	 viewBox="0 0 1366 768" style="enable-background:new 0 0 1366 768;" xml:space="preserve">
<style type="text/css">
	.st0{fill:none;stroke:#000000;stroke-miterlimit:10;}
	.st1{fill:none;}
	.st2{fill:#CC7939;}
	.st3{fill:#013A3E;}
	.st4{fill:#61A39B;}
</style>
<path class="st0" d="M335,362"/>
<path class="st1" d="M557,362"/>
<path class="st2" d="M715,329v208h-63V329H715"/>
<path class="st3" d="M683.5,169.9c29.4,0,57,11.4,77.8,32.2s32.2,48.4,32.2,77.8s-11.4,57-32.2,77.8c-20.8,20.8-48.4,32.2-77.8,32.2
	s-57-11.4-77.8-32.2c-20.8-20.8-32.2-48.4-32.2-77.8s11.4-57,32.2-77.8S654.1,169.9,683.5,169.9"/>
<path class="st4" d="M744,415c9.9,0,18,8.1,18,18s-8.1,18-18,18h-56c-9.9,0-18-8.1-18-18s8.1-18,18-18H744"/>
<path class="st3" d="M680.2,472c9.3,0,16.8,8.1,16.8,18s-7.6,18-16.8,18h-52.3c-9.3,0-16.8-8.1-16.8-18s7.6-18,16.8-18H680.2"/>
<path class="st4" d="M682,169.9v220c-29-0.3-56.2-11.7-76.8-32.2c-20.8-20.8-32.2-48.4-32.2-77.8s11.4-57,32.2-77.8
	C625.8,181.6,653,170.2,682,169.9"/>
</svg>
