<?xml version="1.0" encoding="utf-8"?>
<!-- Generator: Adobe Illustrator 22.0.1, SVG Export Plug-In . SVG Version: 6.00 Build 0)  -->
<svg version="1.1" id="Layer_1" xmlns="http://www.w3.org/2000/svg" xmlns:xlink="http://www.w3.org/1999/xlink" x="0px" y="0px"
	 viewBox="0 0 1366 768" style="enable-background:new 0 0 1366 768;" xml:space="preserve">
<style type="text/css">
	.st0{fill:none;stroke:#000000;stroke-width:8;stroke-miterlimit:10;}
</style>
<line class="st0" x1="395.4" y1="410.9" x2="395.4" y2="617"/>
<line class="st0" x1="467.3" y1="617" x2="325.5" y2="617"/>
<path class="st0" d="M273.3,133c-2.8,20.2-4.3,41.5-4.3,63.4C269,331.5,326.1,411,396,411s126-79.5,126-214.6
	c0-21.9-1.5-43.2-4.3-63.4H273.3z"/>
<path class="st0" d="M269,193c0,1.1,0,2.3,0,3.4C269,331.5,326.1,411,396,411s126-79.5,126-214.6c0-1.2,0-2.3,0-3.4H269z"/>
</svg>
