<?xml version="1.0" encoding="utf-8"?>
<!-- Generator: Adobe Illustrator 22.0.1, SVG Export Plug-In . SVG Version: 6.00 Build 0)  -->
<svg version="1.1" id="Layer_1" xmlns="http://www.w3.org/2000/svg" xmlns:xlink="http://www.w3.org/1999/xlink" x="0px" y="0px"
	 viewBox="0 0 1366 768" style="enable-background:new 0 0 1366 768;" xml:space="preserve">
<style type="text/css">
	.st0{fill:none;stroke:#C5EFF7;stroke-width:5;stroke-miterlimit:10;}
	.st1{fill:#D74810;}
</style>
<line class="st0" x1="357.3" y1="329.7" x2="357.3" y2="475.6"/>
<line class="st0" x1="408.2" y1="475.6" x2="307.8" y2="475.6"/>
<path class="st0" d="M270.9,133c-2,14.3-3,29.4-3,44.9c0,95.6,40.4,151.9,89.9,151.9S447,273.5,447,177.9c0-15.5-1.1-30.6-3-44.9
	H270.9z"/>
<path class="st1" d="M265.4,174.2c0,0.8,0,1.7,0,2.5c0,99.9,40.2,155.5,91.9,155.5s92.2-55.8,92.2-155.6c0-0.9,0-1.7,0-2.5H265.4z"
	/>
</svg>
